{
.appVersion = "3202";
.formatVersion = 3;
axes = (
{
name = Width;
tag = wdth;
},
{
name = Weight;
tag = wght;
},
{
name = Slant;
tag = slnt;
}
);
customParameters = (
{
name = "Use Typo Metrics";
value = 1;
},
{
name = fsType;
value = (
);
},
{
name = "Variable Font Origin";
value = "B743CB11-DC16-45F2-BA04-3635CB00F7DA";
}
);
date = "2017-05-31 15:56:58 +0000";
familyName = "Hubot Sans";
featurePrefixes = (
{
automatic = 1;
code = "languagesystem DFLT dflt;

languagesystem latn dflt;
languagesystem latn AZE;
languagesystem latn CRT;
languagesystem latn KAZ;
languagesystem latn TAT;
languagesystem latn TRK;
languagesystem latn ROM;
languagesystem latn MOL;
languagesystem latn NLD;
";
name = Languagesystems;
}
);
features = (
{
automatic = 1;
code = "feature locl;
feature subs;
feature sinf;
feature sups;
feature numr;
feature dnom;
feature frac;
feature ordn;
feature pnum;
feature tnum;
feature case;
feature ss01;
feature ss04;
";
tag = aalt;
},
{
automatic = 1;
code = "lookup ccmp_Other_1 {
	@CombiningTopAccents = [acutecomb brevecomb caroncomb circumflexcomb commaturnedabovecomb dieresiscomb dotaccentcomb gravecomb hungarumlautcomb macroncomb ringcomb tildecomb];
	lookupflag UseMarkFilteringSet @CombiningTopAccents;
	sub i' @CombiningTopAccents by idotless;
	sub j' @CombiningTopAccents by jdotless;
} ccmp_Other_1;

lookup ccmp_latn_1 {
	sub fi by f i;
} ccmp_latn_1;

script latn;
lookup ccmp_latn_1;
";
tag = ccmp;
},
{
automatic = 1;
code = "script latn;
language AZE;
lookup locl_latn_0 {
	sub i by idotaccent;
} locl_latn_0;
language CRT;
lookup locl_latn_0;
language KAZ;
lookup locl_latn_0;
language TAT;
lookup locl_latn_0;
language TRK;
lookup locl_latn_0;

script latn;
language ROM;
lookup locl_latn_1 {
	sub Scedilla by Scommaaccent;
	sub scedilla by scommaaccent;
	sub Tcedilla by Tcommaaccent;
	sub tcedilla by tcommaaccent;
} locl_latn_1;
language MOL;
lookup locl_latn_1;

script latn;
language NLD;
lookup locl_latn_2 {
	sub iacute j' by jacute;

glyphs = (
{
color = 6;
glyphname = A;
kernLeft = A;
kernRight = A;
lastChange = "2022-11-17 14:59:21 +0000";
layers = (
{
anchors = (
{
name = bottom;
pos = (197,0);
},
{
name = ogonek;
pos = (354,10);
},
{
name = top;
pos = (197,729);
}
);
layerId = "6932EABA-00D8-4526-96D6-87ADD7AC589E";
shapes = (
{
closed = 1;
nodes = (
(44,0,l),
(84,183,l),
(308,183,l),
(348,0,l),
(380,0,l),
(216,729,l),
(176,729,l),
(12,0,l)
);
},
{
closed = 1;
nodes = (
(165,556,l),
(194,694,l),
(198,694,l),
(227,556,l),
(302,211,l),
(90,211,l)
);
}
);
width = 392;
},
{
anchors = (
{
name = bottom;
pos = (261,0);
},
{
name = ogonek;
pos = (427,10);
},
{
name = top;
pos = (261,729);
}
);
layerId = "E787E54A-EE3E-475A-BF02-8501A6DA5144";
shapes = (
{
closed = 1;
nodes = (
(192,0,l),
(203,117,l),
(319,117,l),
(330,0,l),
(508,0,l),
(388,729,l),
(134,729,l),
(14,0,l)
);
},
{
closed = 1;
nodes = (
(243,424,l),
(256,570,l),
(266,570,l),
(279,424,l),
(300,249,l),
(222,249,l)
);
}
);
width = 522;
},
{
anchors = (
{
name = bottom;
pos = (313,0);
},
{
name = ogonek;
pos = (590,10);
},
{
name = top;
pos = (313,729);
}
);
layerId = "B743CB11-DC16-45F2-BA04-3635CB00F7DA";
shapes = (
{
closed = 1;
nodes = (
(49,0,l),
(129,209,l),
(499,209,l),
(578,0,l),
(618,0,l),
(341,729,l),
(287,729,l),
(9,0,l)
);
},
{
closed = 1;
nodes = (
(244,515,l),
(311,691,l),
(316,691,l),
(382,517,l),
(487,242,l),
(140,242,l)
);
}
);
width = 626;
},
{
anchors = (
{
name = bottom;
pos = (219,0);
},
{
name = ogonek;
pos = (391,10);
},
{
name = top;
pos = (335,729);
}
);
layerId = "3257632A-050A-40C2-B21A-C728868BC46F";
shapes = (
{
closed = 1;
nodes = (
(155,0,l),
(187,117,l),
(298,117,l),
(293,0,l),
(472,0,l),
(453,729,l),
(216,729,l),
(-34,0,l)
);
},
{
closed = 1;
nodes = (
(289,488,l),
(307,564,l),
(317,564,l),
(313,488,l),
(303,249,l),
(223,249,l)
);
}
);
width = 534;
},
{
anchors = (
{
name = bottom;
pos = (136,0);
},
{
name = ogonek;
pos = (285,10);
},
{
name = top;
pos = (262,729);
}
);
layerId = "84BE75FC-12C8-47E9-B302-5F6D56903923";
shapes = (
{
closed = 1;
nodes = (
(-2,0,l),
(66,183,l),
(269,183,l),
(272,0,l),
(302,0,l),
(284,729,l),
(240,729,l),
(-33,0,l)
);
},
{
closed = 1;
nodes = (
(240,654,l),
(255,695,l),
(259,695,l),
(260,654,l),
(268,211,l),
(76,211,l)
);
}
);
width = 359;
},
{
anchors = (
{
name = bottom;
pos = (271,0);
},
{
name = ogonek;
pos = (552,10);
},
{
name = top;
pos = (378,729);
}
);
guides = (
{
pos = (129,209);
},
{
pos = (140,242);
}
);
layerId = "33C7CA81-8DED-4513-9072-CA0E40765DD9";
shapes = (
{
closed = 1;
nodes = (
(6,0,l),
(118,209,l),
(491,209,l),
(540,0,l),
(579,0,l),
(406,729,l),
(349,729,l),
(-36,0,l)
);
},
{
closed = 1;
nodes = (
(340,634,l),
(370,695,l),
(377,695,l),
(390,635,l),
(482,242,l),
(136,242,l)
);
}
);
width = 632;
},
{
anchors = (
{
name = bottom;
pos = (327,0);
},
{
name = ogonek;
pos = (657,10);
},
{
name = top;
pos = (456,729);
}
);
layerId = "46C13DED-2BAB-471A-8D19-A1FA49A5501E";
shapes = (
{
closed = 1;
nodes = (
(16,0,l),
(147,210,l),
(586,210,l),
(643,0,l),
(684,0,l),
(487,729,l),
(424,729,l),
(-30,0,l)
);
},
{
closed = 1;
nodes = (
(421,652,l),
(448,695,l),
(456,695,l),
(467,652,l),
(578,244,l),
(168,244,l)
);
}
);
width = 744;
},
{
anchors = (
{
name = bottom;
pos = (371,0);
},
{
name = ogonek;
pos = (701,10);
},
{
name = top;
pos = (371,729);
}
);
layerId = "C1814757-B5F7-4D49-B715-04BFD84ECCF6";
shapes = (
{
closed = 1;
nodes = (
(57,0,l),
(153,213,l),
(590,213,l),
(684,0,l),
(727,0,l),
(398,729,l),
(343,729,l),
(15,0,l)
);
},
{
closed = 1;
nodes = (
(338,630,l),
(368,693,l),
(374,693,l),
(404,630,l),
(575,246,l),
(167,246,l)
);
}
);
width = 742;
},
{
anchors = (
{
name = bottom;
pos = (379,0);
},
{
name = ogonek;
pos = (665,10);
},
{
name = top;
pos = (379,729);
}
);
layerId = "8B1B4E65-9831-4464-9A92-CA98D2219836";
shapes = (
{
closed = 1;
nodes = (
(203,0,l),
(239,121,l),
(512,121,l),
(548,0,l),
(759,0,l),
(526,729,l),
(230,729,l),
(-2,0,l)
);
},
{
closed = 1;
nodes = (
(347,478,l),
(372,566,l),
(379,566,l),
(404,478,l),
(463,282,l),
(288,282,l)
);
}
);
width = 757;
},
{
anchors = (
{
name = bottom;
pos = (321,0);
},
{
name = ogonek;
pos = (601,10);
},
{
name = top;
pos = (440,729);
}
);
layerId = "2359B287-0F82-447F-8C68-59A72835D733";
shapes = (
{
closed = 1;
nodes = (
(169,0,l),
(224,121,l),
(467,121,l),
(481,0,l),
(691,0,l),
(577,729,l),
(302,729,l),
(-50,0,l)
);
},
{
closed = 1;
nodes = (
(376,459,l),
(407,549,l),
(418,549,l),
(425,457,l),
(445,282,l),
(297,282,l)
);
}
);
width = 737;
},
{
anchors = (
{
name = bottom;
pos = (450,0);
},
{
name = ogonek;
pos = (814,10);
},
{
name = top;
pos = (451,729);
}
);
layerId = "46DCD09A-F85A-41B9-8FAA-640012B7D4F4";
shapes = (
{
closed = 1;
nodes = (
(218,0,l),
(269,124,l),
(624,124,l),
(673,0,l),
(915,0,l),
(619,729,l),
(283,729,l),
(-15,0,l)
);
},
{
closed = 1;
nodes = (
(398,442,l),
(442,562,l),
(450,562,l),
(494,443,l),
(560,287,l),
(332,287,l)
);
}
);
width = 902;
},
{
anchors = (
{
name = bottom;
pos = (372,0);
},
{
name = ogonek;
pos = (695,10);
},
{
name = top;
pos = (484,729);
}
);
layerId = "0D69E86C-407B-4861-9815-978EE2313DB2";
shapes = (
{
closed = 1;
nodes = (
(184,0,l),
(247,124,l),
(550,124,l),
(577,0,l),
(807,0,l),
(631,729,l),
(337,729,l),
(-64,0,l)
);
},
{
closed = 1;
nodes = (
(416,458,l),
(452,534,l),
(461,534,l),
(478,453,l),
(514,285,l),
(330,285,l)
);
}
);
width = 842;
}
);
unicode = 65;
},
{
color = 6;
glyphname = AE;
kernLeft = A;
kernRight = E;
lastChange = "2022-11-17 14:59:21 +0000";
layers = (
{
layerId = "6932EABA-00D8-4526-96D6-87ADD7AC589E";
shapes = (
{
closed = 1;
nodes = (
(44,0,l),
(84,183,l),
(308,183,l),
(348,0,l),
(510,0,l),
(510,28,l),
(374,28,l),
(299,362,l),
(488,362,l),
(488,390,l),
(292,390,l),
(222,701,l),
(505,701,l),
(505,729,l),
(176,729,l),
(12,0,l)
);
},
{
closed = 1;
nodes = (
(165,556,l),
(194,694,l),
(198,694,l),
(227,556,l),
(302,211,l),
(90,211,l)
);
}
);
width = 558;
},
{
layerId = "E787E54A-EE3E-475A-BF02-8501A6DA5144";
shapes = (
{
closed = 1;
nodes = (
(192,0,l),
(203,117,l),
(319,117,l),
(330,0,l),
(645,0,l),
(645,146,l),
(484,146,l),
(459,300,l),
(601,300,l),
(601,442,l),
(435,442,l),
(412,583,l),
(639,583,l),
(639,729,l),
(134,729,l),
(14,0,l)
);
},
{
closed = 1;
nodes = (
(243,424,l),
(256,570,l),
(266,570,l),
(279,424,l),
(300,249,l),
(222,249,l)
);
}
);
width = 667;
},
{
layerId = "B743CB11-DC16-45F2-BA04-3635CB00F7DA";
shapes = (
{
closed = 1;
nodes = (
(49,0,l),
(129,209,l),
(499,209,l),
(578,0,l),
(899,0,l),
(899,37,l),
(604,37,l),
(482,358,l),
(852,358,l),
(852,393,l),
(469,393,l),
(355,692,l),
(899,692,l),
(899,729,l),
(287,729,l),
(9,0,l)
);
},
{
closed = 1;
nodes = (
(245,519,l),
(311,691,l),
(316,691,l),
(382,517,l),
(487,242,l),
(140,242,l)
);
}
);
width = 969;
},
{
layerId = "84BE75FC-12C8-47E9-B302-5F6D56903923";
shapes = (
{
closed = 1;
nodes = (
(-2,0,l),
(66,183,l),
(269,183,l),
(272,0,l),
(434,0,l),
(439,28,l),
(301,28,l),
(293,362,l),
(476,362,l),
(480,390,l),
(292,390,l),
(285,701,l),
(552,701,l),
(557,729,l),
(240,729,l),
(-33,0,l)
);
},
{
closed = 1;
nodes = (
(240,654,l),
(255,695,l),
(259,695,l),
(260,654,l),
(268,211,l),
(76,211,l)
);
}
);
width = 527;
},
{
layerId = "3257632A-050A-40C2-B21A-C728868BC46F";
shapes = (
{
closed = 1;
nodes = (
(155,0,l),
(187,117,l),
(298,117,l),
(293,0,l),
(608,0,l),
(633,146,l),
(468,146,l),
(464,300,l),
(617,300,l),
(642,442,l),
(460,442,l),
(457,583,l),
(705,583,l),
(730,729,l),
(216,729,l),
(-34,0,l)
);
},
{
closed = 1;
nodes = (
(289,488,l),
(307,564,l),
(317,564,l),
(313,488,l),
(303,249,l),
(223,249,l)
);
}
);
width = 678;
},
{
layerId = "33C7CA81-8DED-4513-9072-CA0E40765DD9";
shapes = (
{
closed = 1;
nodes = (
(6,0,l),
(115,204,l),
(492,204,l),
(540,0,l),
(851,0,l),
(857,37,l),
(570,37,l),
(494,358,l),
(867,358,l),
(873,393,l),
(486,393,l),
(415,692,l),
(973,692,l),
(979,729,l),
(349,729,l),
(-36,0,l)
);
},
{
closed = 1;
nodes = (
(340,634,l),
(370,695,l),
(377,695,l),
(390,635,l),
(484,236,l),
(132,236,l)
);
}
);
width = 966;
},
{
layerId = "46C13DED-2BAB-471A-8D19-A1FA49A5501E";
shapes = (
{
closed = 1;
nodes = (
(16,0,l),
(144,210,l),
(569,210,l),
(623,0,l),
(990,0,l),
(996,38,l),
(655,38,l),
(572,358,l),
(999,358,l),
(1005,395,l),
(563,395,l),
(487,691,l),
(1113,691,l),
(1119,729,l),
(414,729,l),
(-30,0,l)
);
},
{
closed = 1;
nodes = (
(412,652,l),
(438,695,l),
(446,695,l),
(456,652,l),
(561,244,l),
(165,244,l)
);
}
);
width = 1089;
},
{
layerId = "C1814757-B5F7-4D49-B715-04BFD84ECCF6";
shapes = (
{
closed = 1;
nodes = (
(57,0,l),
(153,213,l),
(590,213,l),
(684,0,l),
(1079,0,l),
(1079,39,l),
(709,39,l),
(565,358,l),
(1021,358,l),
(1021,396,l),
(548,396,l),
(415,690,l),
(1079,690,l),
(1079,729,l),
(343,729,l),
(15,0,l)
);
},
{
closed = 1;
nodes = (
(338,631,l),
(368,693,l),
(374,693,l),
(404,630,l),
(575,246,l),
(167,246,l)
);
}
);
width = 1131;
},
{
layerId = "8B1B4E65-9831-4464-9A92-CA98D2219836";
shapes = (
{
closed = 1;
nodes = (
(203,0,l),
(241,121,l),
(509,121,l),
(548,0,l),
(962,0,l),
(962,180,l),
(702,180,l),
(668,284,l),
(908,284,l),
(908,452,l),
(614,452,l),
(584,549,l),
(962,549,l),
(962,729,l),
(230,729,l),
(-2,0,l)
);
},
{
closed = 1;
nodes = (
(328,400,l),
(372,561,l),
(379,561,l),
(422,403,l),
(457,282,l),
(294,282,l)
);
}
);
width = 1007;
},
{
layerId = "2359B287-0F82-447F-8C68-59A72835D733";
shapes = (
{
closed = 1;
nodes = (
(169,0,l),
(224,122,l),
(467,122,l),
(481,0,l),
(895,0,l),
(926,180,l),
(662,180,l),
(647,284,l),
(892,284,l),
(921,452,l),
(620,452,l),
(607,549,l),
(991,549,l),
(1023,729,l),
(302,729,l),
(-50,0,l)
);
},
{
closed = 1;
nodes = (
(376,459,l),
(407,549,l),
(418,549,l),
(425,457,l),
(445,283,l),
(297,283,l)
);
}
);
width = 988;
},
{
layerId = "46DCD09A-F85A-41B9-8FAA-640012B7D4F4";
shapes = (
{
closed = 1;
nodes = (
(218,0,l),
(266,124,l),
(605,124,l),
(651,0,l),
(1096,0,l),
(1096,184,l),
(822,184,l),
(783,282,l),
(1034,282,l),
(1034,452,l),
(716,452,l),
(680,545,l),
(1097,545,l),
(1097,729,l),
(272,729,l),
(-15,0,l)
);
},
{
closed = 1;
nodes = (
(387,442,l),
(431,562,l),
(439,562,l),
(483,443,l),
(542,287,l),
(328,287,l)
);
}
);
width = 1134;
},
{
layerId = "0D69E86C-407B-4861-9815-978EE2313DB2";
shapes = (
{
closed = 1;
nodes = (
(184,0,l),
(246,124,l),
(530,124,l),
(555,0,l),
(965,0,l),
(997,181,l),
(746,181,l),
(723,283,l),
(954,283,l),
(984,453,l),
(685,453,l),
(664,548,l),
(1064,548,l),
(1094,729,l),
(327,729,l),
(-64,0,l)
);
},
{
closed = 1;
nodes = (
(410,454,l),
(442,532,l),
(451,532,l),
(466,453,l),
(498,285,l),
(328,285,l)
);
}
);
width = 1051;
}
);
metricLeft = A;
metricRight = E;
unicode = 198;
},
{
color = 6;
glyphname = B;
kernLeft = H;
kernRight = C;
lastChange = "2022-11-17 14:59:21 +0000";
layers = (
{
anchors = (
{
name = bottom;
pos = (200,0);
},
{
name = top;
pos = (200,729);
}
);
layerId = "6932EABA-00D8-4526-96D6-87ADD7AC589E";
shapes = (
{
closed = 1;
nodes = (
(194,0,ls),
(296,0,o),
(355,54,o),
(355,194,cs),
(355,307,o),
(326,362,o),
(253,374,c),
(253,378,l),
(321,392,o),
(349,449,o),
(349,554,cs),
(349,683,o),
(291,729,o),
(188,729,cs),
(88,729,l),
(88,0,l)
);
},
{
closed = 1;
nodes = (
(118,718,l),
(101,701,l),
(188,701,ls),
(282,701,o),
(318,654,o),
(318,584,cs),
(318,561,o),
(318,538,o),
(318,515,cs),
(318,425,o),
(272,390,o),
(205,390,cs),
(111,390,l),
(111,362,l),
(205,362,ls),
(276,362,o),
(324,327,o),
(324,237,cs),
(324,214,o),
(324,191,o),
(324,168,cs),
(324,84,o),
(288,28,o),
(194,28,cs),
(101,28,l),
(118,11,l)
);
}
);
width = 395;
},
{
anchors = (
{
name = bottom;
pos = (256,0);
},
{
name = top;
pos = (256,729);
}
);
background = {
shapes = (
{
closed = 1;
nodes = (
(267,0,ls),
(406,0,o),
(484,65,o),
(484,204,cs),
(484,295,o),
(441,362,o),
(365,374,c),
(365,382,l),
(436,399,o),
(469,456,o),
(469,539,cs),
(469,653,o),
(406,729,o),
(273,729,cs),
(35,729,l),
(35,0,l)
);
},
{
closed = 1;
nodes = (
(213,308,l),
(246,308,ls),
(284,308,o),
(309,292,o),
(309,242,cs),
(309,228,o),
(309,208,o),
(309,194,cs),
(309,157,o),
(294,133,o),
(246,133,cs),
(213,133,l)
);
},
{
closed = 1;
nodes = (
(213,596,l),
(248,596,ls),
(279,596,o),
(299,580,o),
(299,539,cs),
(299,525,o),
(299,511,o),
(299,497,cs),
(299,461,o),
(285,437,o),
(248,437,cs),
(213,437,l)
);
}
);
};
layerId = "E787E54A-EE3E-475A-BF02-8501A6DA5144";
shapes = (
{
closed = 1;
nodes = (
(267,0,ls),
(406,0,o),
(484,65,o),
(484,204,cs),
(484,297,o),
(444,364,o),
(364,376,c),
(364,382,l),
(439,399,o),
(469,456,o),
(469,539,cs),
(469,653,o),
(406,729,o),
(273,729,cs),
(35,729,l),
(35,0,l)
);
},
{
closed = 1;
nodes = (
(213,628,l),
(181,596,l),
(248,596,ls),
(279,596,o),
(299,580,o),
(299,539,cs),
(299,525,o),
(299,511,o),
(299,497,cs),
(299,461,o),
(285,437,o),
(248,437,cs),
(197,437,l),
(197,308,l),
(246,308,ls),
(284,308,o),
(309,292,o),
(309,242,cs),
(309,228,o),
(309,208,o),
(309,194,cs),
(309,157,o),
(294,133,o),
(246,133,cs),
(181,133,l),
(213,101,l)
);
}
);
width = 503;
},
{
anchors = (
{
name = bottom;
pos = (389,0);
},
{
name = top;
pos = (389,729);
}
);
layerId = "B743CB11-DC16-45F2-BA04-3635CB00F7DA";
shapes = (
{
closed = 1;
nodes = (
(450,0,ls),
(584,0,o),
(668,69,o),
(668,197,cs),
(668,294,o),
(614,355,o),
(528,371,c),
(528,377,l),
(610,401,o),
(651,463,o),
(651,547,cs),
(651,667,o),
(577,729,o),
(455,729,cs),
(134,729,l),
(134,0,l)
);
},
{
closed = 1;
nodes = (
(173,721,l),
(146,694,l),
(448,694,ls),
(544,694,o),
(609,651,o),
(609,567,cs),
(609,551,o),
(609,536,o),
(609,520,cs),
(609,442,o),
(549,390,o),
(449,390,cs),
(165,390,l),
(165,356,l),
(452,356,ls),
(556,356,o),
(625,309,o),
(625,222,cs),
(625,208,o),
(625,194,o),
(625,180,cs),
(625,89,o),
(559,35,o),
(451,35,cs),
(146,35,l),
(173,8,l)
);
}
);
width = 732;
},
{
anchors = (
{
name = bottom;
pos = (209,0);
},
{
name = top;
pos = (338,729);
}
);
background = {
shapes = (
{
closed = 1;
nodes = (
(265,596,ls),
(296,596,o),
(316,580,o),
(316,539,cs),
(316,525,o),
(316,511,o),
(316,497,cs),
(316,461,o),
(302,437,o),
(265,437,cs),
(237,437,l),
(237,308,l),
(263,308,ls),
(301,308,o),
(326,292,o),
(326,242,cs),
(326,228,o),
(326,208,o),
(326,194,cs),
(326,157,o),
(311,133,o),
(263,133,cs),
(237,133,l),
(237,0,l),
(284,0,ls),
(423,0,o),
(501,65,o),
(501,204,cs),
(501,297,o),
(461,364,o),
(381,376,c),
(381,382,l),
(456,399,o),
(486,456,o),
(486,539,cs),
(486,653,o),
(423,729,o),
(290,729,cs),
(237,729,l),
(237,596,l)
);
},
{
closed = 1;
nodes = (
(52,729,l),
(52,0,l),
(237,0,l),
(237,133,l),
(230,133,l),
(230,308,l),
(237,308,l),
(237,437,l),
(230,437,l),
(230,596,l),
(237,596,l),
(237,729,l)
);
}
);
};
layerId = "3257632A-050A-40C2-B21A-C728868BC46F";
shapes = (
{
closed = 1;
nodes = (
(221,0,ls),
(358,0,o),
(446,46,o),
(471,186,cs),
(487,277,o),
(458,348,o),
(380,366,c),
(382,372,l),
(460,382,o),
(499,435,o),
(514,519,cs),
(534,635,o),
(485,729,o),
(353,729,cs),
(116,729,l),
(-12,0,l)
);
},
{
closed = 1;
nodes = (
(277,630,l),
(243,596,l),
(306,596,ls),
(334,596,o),
(353,576,o),
(346,535,cs),
(343,520,o),
(342,512,o),
(339,492,cs),
(332,453,o),
(312,437,o),
(278,437,cs),
(227,437,l),
(204,308,l),
(253,308,ls),
(288,308,o),
(312,287,o),
(304,239,cs),
(301,222,o),
(298,204,o),
(295,187,cs),
(289,153,o),
(270,133,o),
(222,133,cs),
(160,133,l),
(183,101,l)
);
}
);
width = 505;
},
{
anchors = (
{
name = bottom;
pos = (156,0);
},
{
name = top;
pos = (284,729);
}
);
layerId = "84BE75FC-12C8-47E9-B302-5F6D56903923";
shapes = (
{
closed = 1;
nodes = (
(149,0,ls),
(251,0,o),
(318,40,o),
(343,181,cs),
(362,290,o),
(343,351,o),
(273,369,c),
(274,373,l),
(343,381,o),
(381,433,o),
(399,537,cs),
(422,667,o),
(373,727,o),
(271,727,cs),
(171,727,l),
(43,0,l)
);
},
{
closed = 1;
nodes = (
(200,714,l),
(181,699,l),
(265,699,ls),
(360,699,o),
(386,640,o),
(374,571,cs),
(370,548,o),
(366,524,o),
(362,501,cs),
(346,412,o),
(294,386,o),
(228,386,cs),
(135,386,l),
(130,358,l),
(224,358,ls),
(293,358,o),
(335,314,o),
(319,225,cs),
(315,202,o),
(311,179,o),
(307,156,cs),
(291,65,o),
(241,28,o),
(155,28,cs),
(66,28,l),
(76,15,l)
);
}
);
width = 396;
},
{
anchors = (
{
name = bottom;
pos = (340,0);
},
{
name = top;
pos = (468,729);
}
);
layerId = "33C7CA81-8DED-4513-9072-CA0E40765DD9";
shapes = (
{
closed = 1;
nodes = (
(400,0,ls),
(557,0,o),
(645,67,o),
(649,205,cs),
(653,302,o),
(612,352,o),
(537,366,c),
(538,372,l),
(635,382,o),
(693,450,o),
(696,554,cs),
(700,675,o),
(634,728,o),
(500,728,cs),
(218,728,l),
(89,0,l)
);
},
{
closed = 1;
nodes = (
(254,720,l),
(222,694,l),
(501,694,ls),
(616,694,o),
(661,647,o),
(657,566,cs),
(655,545,o),
(652,521,o),
(648,496,cs),
(637,428,o),
(577,387,o),
(484,387,cs),
(186,387,l),
(180,355,l),
(470,355,ls),
(564,355,o),
(617,311,o),
(612,223,cs),
(610,202,o),
(607,179,o),
(603,156,cs),
(589,78,o),
(522,35,o),
(416,35,cs),
(105,35,l),
(127,9,l)
);
}
);
width = 725;
},
{
anchors = (
{
name = bottom;
pos = (365,0);
},
{
name = top;
pos = (493,729);
}
);
layerId = "46C13DED-2BAB-471A-8D19-A1FA49A5501E";
shapes = (
{
closed = 1;
nodes = (
(452,0,ls),
(638,0,o),
(730,78,o),
(727,213,cs),
(725,307,o),
(674,352,o),
(596,364,c),
(597,371,l),
(706,382,o),
(772,457,o),
(770,558,cs),
(768,677,o),
(691,729,o),
(543,729,cs),
(195,729,l),
(64,0,l)
);
},
{
closed = 1;
nodes = (
(232,718,l),
(200,692,l),
(548,692,ls),
(676,692,o),
(729,649,o),
(727,564,cs),
(727,544,o),
(722,507,o),
(720,495,cs),
(710,432,o),
(645,388,o),
(540,388,cs),
(162,388,l),
(156,353,l),
(523,353,ls),
(632,353,o),
(685,309,o),
(685,220,cs),
(685,199,o),
(682,178,o),
(678,155,cs),
(664,82,o),
(588,37,o),
(473,37,cs),
(84,37,l),
(106,11,l)
);
}
);
width = 803;
},
{
anchors = (
{
name = bottom;
pos = (412,0);
},
{
name = top;
pos = (412,729);
}
);
layerId = "C1814757-B5F7-4D49-B715-04BFD84ECCF6";
shapes = (
{
closed = 1;
nodes = (
(495,0,ls),
(659,0,o),
(743,72,o),
(743,196,cs),
(743,291,o),
(684,357,o),
(584,371,c),
(584,377,l),
(675,398,o),
(722,465,o),
(722,549,cs),
(722,666,o),
(647,729,o),
(503,729,cs),
(109,729,l),
(109,0,l)
);
},
{
closed = 1;
nodes = (
(148,719,l),
(121,692,l),
(514,692,ls),
(617,692,o),
(678,651,o),
(678,564,cs),
(678,549,o),
(678,536,o),
(678,522,cs),
(678,445,o),
(628,390,o),
(511,390,cs),
(139,390,l),
(139,354,l),
(512,354,ls),
(630,354,o),
(697,305,o),
(697,220,cs),
(697,206,o),
(697,194,o),
(697,182,cs),
(697,91,o),
(635,37,o),
(507,37,cs),
(121,37,l),
(148,10,l)
);
}
);
width = 806;
},
{
anchors = (
{
name = bottom;
pos = (373,0);
},
{
name = top;
pos = (373,729);
}
);
layerId = "8B1B4E65-9831-4464-9A92-CA98D2219836";
shapes = (
{
closed = 1;
nodes = (
(420,0,ls),
(588,0,o),
(701,56,o),
(701,207,cs),
(701,303,o),
(642,370,o),
(554,375,c),
(554,383,l),
(635,397,o),
(681,460,o),
(681,542,cs),
(681,654,o),
(613,729,o),
(440,729,cs),
(63,729,l),
(63,0,l)
);
},
{
closed = 1;
nodes = (
(269,613,l),
(233,577,l),
(382,577,ls),
(430,577,o),
(462,564,o),
(462,520,cs),
(462,516,o),
(462,511,o),
(462,506,cs),
(462,469,o),
(434,447,o),
(382,447,cs),
(253,447,l),
(253,298,l),
(393,298,ls),
(451,298,o),
(478,272,o),
(478,234,cs),
(478,228,o),
(478,221,o),
(478,216,cs),
(478,173,o),
(444,152,o),
(393,152,cs),
(233,152,l),
(269,116,l)
);
}
);
width = 719;
},
{
anchors = (
{
name = bottom;
pos = (329,0);
},
{
name = top;
pos = (458,729);
}
);
layerId = "2359B287-0F82-447F-8C68-59A72835D733";
shapes = (
{
closed = 1;
nodes = (
(410,0,ls),
(570,0,o),
(683,66,o),
(690,203,cs),
(694,288,o),
(644,357,o),
(566,373,c),
(568,380,l),
(666,396,o),
(724,462,o),
(728,547,cs),
(735,685,o),
(640,729,o),
(516,729,cs),
(150,729,l),
(21,0,l)
);
},
{
closed = 1;
nodes = (
(336,603,l),
(307,578,l),
(457,578,ls),
(484,578,o),
(514,568,o),
(509,525,cs),
(508,516,o),
(506,508,o),
(505,498,cs),
(496,461,o),
(471,446,o),
(424,446,cs),
(294,446,l),
(266,298,l),
(405,298,ls),
(441,298,o),
(475,288,o),
(473,244,cs),
(472,231,o),
(470,217,o),
(467,203,cs),
(462,169,o),
(431,151,o),
(378,151,cs),
(230,151,l),
(252,127,l)
);
}
);
width = 733;
},
{
anchors = (
{
name = bottom;
pos = (438,0);
},
{
name = top;
pos = (438,729);
}
);
layerId = "46DCD09A-F85A-41B9-8FAA-640012B7D4F4";
shapes = (
{
closed = 1;
nodes = (
(555,0,ls),
(737,0,o),
(839,75,o),
(839,200,cs),
(839,309,o),
(768,371,o),
(664,375,c),
(664,384,l),
(760,394,o),
(814,458,o),
(814,540,cs),
(814,713,o),
(670,729,o),
(528,729,cs),
(63,729,l),
(63,0,l)
);
},
{
closed = 1;
nodes = (
(298,610,l),
(263,575,l),
(478,575,ls),
(529,575,o),
(562,558,o),
(562,519,cs),
(562,520,o),
(562,511,o),
(562,504,cs),
(562,471,o),
(539,448,o),
(478,448,cs),
(282,448,l),
(282,298,l),
(488,298,ls),
(542,298,o),
(582,278,o),
(582,234,cs),
(582,234,o),
(582,224,o),
(582,218,cs),
(582,182,o),
(549,154,o),
(489,154,cs),
(263,154,l),
(298,119,l)
);
}
);
width = 866;
},
{
anchors = (
{
name = bottom;
pos = (378,0);
},
{
name = top;
pos = (509,729);
}
);
layerId = "0D69E86C-407B-4861-9815-978EE2313DB2";
shapes = (
{
closed = 1;
nodes = (
(492,0,ls),
(675,0,o),
(799,78,o),
(800,217,cs),
(800,305,o),
(748,366,o),
(679,377,c),
(680,385,l),
(773,400,o),
(837,468,o),
(837,553,cs),
(837,680,o),
(742,729,o),
(601,729,cs),
(145,729,l),
(15,0,l)
);
},
{
closed = 1;
nodes = (
(352,595,l),
(331,576,l),
(503,576,ls),
(566,576,o),
(584,565,o),
(584,518,cs),
(584,514,o),
(582,506,o),
(581,500,cs),
(573,453,o),
(528,448,o),
(468,448,cs),
(308,448,l),
(283,298,l),
(473,298,ls),
(517,298,o),
(551,284,o),
(553,245,cs),
(553,234,o),
(552,221,o),
(549,206,cs),
(540,169,o),
(504,153,o),
(446,153,cs),
(250,153,l),
(268,128,l)
);
}
);
width = 840;
}
);
metricLeft = H;
unicode = 66;
},
{
color = 6;
glyphname = C;
kernLeft = C;
kernRight = C;
lastChange = "2022-11-17 14:59:21 +0000";
layers = (
{
anchors = (
{
name = bottom;
pos = (223,0);
},
{
name = top;
pos = (223,729);
}
);
layerId = "6932EABA-00D8-4526-96D6-87ADD7AC589E";
shapes = (
{
closed = 1;
nodes = (
(337,-9,o),
(378,67,o),
(378,246,c),
(347,246,l),
(349,84,o),
(318,18,o),
(223,18,cs),
(149,18,o),
(99,53,o),
(99,193,cs),
(99,536,ls),
(99,641,o),
(124,711,o),
(223,711,cs),
(316,711,o),
(348,648,o),
(347,483,c),
(378,483,l),
(378,659,o),
(339,738,o),
(223,739,cs),
(130,738,o),
(68,692,o),
(68,536,cs),
(68,193,ls),
(68,37,o),
(130,-9,o),
(223,-10,cs)
);
}
);
width = 439;
},
{
anchors = (
{
name = bottom;
pos = (267,0);
},
{
name = top;
pos = (267,729);
}
);
layerId = "E787E54A-EE3E-475A-BF02-8501A6DA5144";
shapes = (
{
closed = 1;
nodes = (
(424,-10,o),
(509,64,o),
(507,255,c),
(333,255,l),
(333,170,o),
(318,136,o),
(269,136,cs),
(229,136,o),
(205,155,o),
(205,214,cs),
(205,515,ls),
(205,574,o),
(229,593,o),
(269,593,cs),
(318,593,o),
(333,559,o),
(333,474,c),
(507,474,l),
(509,665,o),
(424,739,o),
(271,739,cs),
(115,739,o),
(27,667,o),
(27,480,cs),
(27,249,ls),
(27,62,o),
(115,-10,o),
(271,-10,cs)
);
}
);
width = 531;
},
{
anchors = (
{
name = bottom;
pos = (395,0);
},
{
name = top;
pos = (367,729);
}
);
layerId = "B743CB11-DC16-45F2-BA04-3635CB00F7DA";
shapes = (
{
closed = 1;
nodes = (
(559,-10,o),
(679,83,o),
(696,226,c),
(656,226,l),
(637,92,o),
(526,26,o),
(395,26,cs),
(203,26,o),
(103,148,o),
(103,316,cs),
(103,412,ls),
(103,580,o),
(203,702,o),
(395,702,cs),
(521,702,o),
(635,638,o),
(656,503,c),
(696,503,l),
(678,645,o),
(558,738,o),
(395,738,cs),
(187,738,o),
(60,610,o),
(60,366,cs),
(60,361,ls),
(60,109,o),
(196,-10,o),
(395,-10,cs)
);
}
);
width = 756;
},
{
anchors = (
{
name = bottom;
pos = (240,0);
},
{
name = top;
pos = (326,729);
}
);
layerId = "3257632A-050A-40C2-B21A-C728868BC46F";
shapes = (
{
closed = 1;
nodes = (
(393,-11,o),
(479,63,o),
(506,250,c),
(330,250,l),
(316,167,o),
(297,137,o),
(254,137,cs),
(201,137,o),
(187,166,o),
(197,222,cs),
(249,520,ls),
(258,575,o),
(282,592,o),
(317,592,cs),
(376,592,o),
(383,552,o),
(369,475,c),
(545,475,l),
(568,650,o),
(500,739,o),
(315,739,cs),
(182,739,o),
(97,671,o),
(67,500,cs),
(27,270,ls),
(-2,101,o),
(62,-11,o),
(238,-11,cs)
);
}
);
width = 534;
},
{
anchors = (
{
name = bottom;
pos = (197,0);
},
{
name = top;
pos = (291,729);
}
);
background = {
shapes = (
{
closed = 1;
nodes = (
(323,-9,o),
(369,70,o),
(399,246,c),
(367,246,l),
(343,86,o),
(304,18,o),
(219,18,cs),
(111,18,o),
(91,89,o),
(111,202,cs),
(132,323,o),
(151,436,o),
(171,547,cs),
(189,645,o),
(223,711,o),
(309,711,cs),
(425,711,o),
(434,624,o),
(409,483,c),
(440,483,l),
(465,640,o),
(448,738,o),
(309,738,cs),
(219,738,o),
(164,684,o),
(141,550,cs),
(121,435,o),
(87,240,o),
(81,207,cs),
(58,73,o),
(89,-9,o),
(217,-9,cs)
);
}
);
};
layerId = "84BE75FC-12C8-47E9-B302-5F6D56903923";
shapes = (
{
closed = 1;
nodes = (
(300,-9,o),
(346,67,o),
(376,239,c),
(345,239,l),
(321,84,o),
(280,18,o),
(195,18,cs),
(109,18,o),
(66,70,o),
(89,202,cs),
(149,546,ls),
(169,658,o),
(201,711,o),
(290,712,cs),
(404,711,o),
(413,624,o),
(388,484,c),
(419,484,l),
(444,639,o),
(427,739,o),
(290,739,cs),
(201,739,o),
(145,699,o),
(119,549,cs),
(59,207,ls),
(36,77,o),
(76,-9,o),
(195,-9,cs)
);
}
);
width = 440;
},
{
anchors = (
{
name = bottom;
pos = (412,0);
},
{
name = top;
pos = (438,729);
}
);
background = {
shapes = (
{
closed = 1;
nodes = (
(564,-10,o),
(674,68,o),
(708,204,c),
(667,204,l),
(637,93,o),
(543,26,o),
(411,26,cs),
(214,26,o),
(93,152,o),
(124,353,cs),
(129,386,o),
(136,427,o),
(140,449,cs),
(166,599,o),
(265,703,o),
(433,703,cs),
(588,703,o),
(686,622,o),
(703,498,c),
(745,498,l),
(727,644,o),
(611,739,o),
(433,739,cs),
(256,739,o),
(129,634,o),
(90,415,cs),
(84,381,o),
(80,337,o),
(80,306,cs),
(80,106,o),
(211,-10,o),
(409,-10,cs)
);
}
);
};
layerId = "33C7CA81-8DED-4513-9072-CA0E40765DD9";
shapes = (
{
closed = 1;
nodes = (
(564,-10,o),
(674,68,o),
(708,204,c),
(667,204,l),
(637,93,o),
(543,26,o),
(410,26,cs),
(214,26,o),
(93,152,o),
(124,353,cs),
(140,449,ls),
(166,599,o),
(265,703,o),
(433,703,cs),
(588,703,o),
(686,622,o),
(703,498,c),
(745,498,l),
(727,644,o),
(611,739,o),
(433,739,cs),
(202,739,o),
(80,553,o),
(80,314,cs),
(80,306,ls),
(80,106,o),
(211,-10,o),
(410,-10,cs)
);
}
);
width = 777;
},
{
anchors = (
{
name = bottom;
pos = (465,0);
},
{
name = top;
pos = (483,729);
}
);
background = {
shapes = (
{
closed = 1;
nodes = (
(640,-10,o),
(771,68,o),
(807,194,c),
(762,194,l),
(730,95,o),
(620,27,o),
(468,27,cs),
(257,27,o),
(110,151,o),
(135,354,cs),
(137,380,o),
(142,413,o),
(147,438,cs),
(173,611,o),
(297,702,o),
(480,702,cs),
(638,702,o),
(765,622,o),
(796,502,c),
(840,502,l),
(810,642,o),
(663,739,o),
(480,739,cs),
(254,739,o),
(111,603,o),
(93,373,cs),
(91,361,o),
(91,347,o),
(91,336,cs),
(91,121,o),
(233,-10,o),
(468,-10,cs)
);
}
);
};
layerId = "46C13DED-2BAB-471A-8D19-A1FA49A5501E";
shapes = (
{
closed = 1;
nodes = (
(647,-10,o),
(781,68,o),
(818,194,c),
(773,194,l),
(741,95,o),
(626,27,o),
(470,27,cs),
(253,27,o),
(96,152,o),
(125,354,cs),
(137,438,ls),
(162,611,o),
(290,702,o),
(478,702,cs),
(641,702,o),
(774,622,o),
(806,502,c),
(850,502,l),
(818,642,o),
(667,739,o),
(478,739,cs),
(230,739,o),
(80,577,o),
(80,337,cs),
(80,331,ls),
(82,118,o),
(230,-10,o),
(470,-10,cs)
);
}
);
width = 871;
},
{
anchors = (
{
name = bottom;
pos = (456,0);
},
{
name = top;
pos = (431,729);
}
);
background = {
shapes = (
{
closed = 1;
nodes = (
(696,-10,o),
(854,121,o),
(854,362,cs),
(854,363,o),
(854,365,o),
(854,366,cs),
(854,607,o),
(696,738,o),
(456,738,cs),
(216,738,o),
(58,607,o),
(58,366,cs),
(58,365,o),
(58,363,o),
(58,362,cs),
(58,121,o),
(216,-10,o),
(456,-10,cs)
);
},
{
closed = 1;
nodes = (
(216,28,o),
(103,164,o),
(103,336,cs),
(103,355,o),
(103,373,o),
(103,392,cs),
(103,570,o),
(216,700,o),
(456,700,cs),
(696,700,o),
(809,570,o),
(809,392,cs),
(809,373,o),
(809,355,o),
(809,336,cs),
(809,164,o),
(696,28,o),
(456,28,cs)
);
}
);
};
layerId = "C1814757-B5F7-4D49-B715-04BFD84ECCF6";
shapes = (
{
closed = 1;
nodes = (
(648,-10,o),
(791,83,o),
(814,222,c),
(772,222,l),
(751,106,o),
(636,28,o),
(456,28,cs),
(216,28,o),
(103,164,o),
(103,336,cs),
(103,392,ls),
(103,570,o),
(216,700,o),
(456,700,cs),
(620,700,o),
(745,631,o),
(772,507,c),
(814,507,l),
(791,646,o),
(647,738,o),
(456,738,cs),
(216,738,o),
(58,607,o),
(58,366,cs),
(58,362,ls),
(58,121,o),
(216,-10,o),
(456,-10,cs)
);
}
);
width = 856;
},
{
anchors = (
{
name = bottom;
pos = (395,0);
},
{
name = top;
pos = (378,729);
}
);
layerId = "8B1B4E65-9831-4464-9A92-CA98D2219836";
shapes = (
{
closed = 1;
nodes = (
(579,-10,o),
(721,99,o),
(737,261,c),
(518,261,l),
(504,209,o),
(454,174,o),
(395,174,cs),
(311,174,o),
(254,214,o),
(254,304,cs),
(254,424,ls),
(254,502,o),
(298,554,o),
(395,554,cs),
(455,554,o),
(501,523,o),
(518,469,c),
(737,469,l),
(721,630,o),
(587,738,o),
(395,738,cs),
(175,738,o),
(31,607,o),
(31,365,cs),
(31,363,ls),
(31,141,o),
(145,-10,o),
(395,-10,cs)
);
}
);
width = 767;
},
{
anchors = (
{
name = bottom;
pos = (393,0);
},
{
name = top;
pos = (425,729);
}
);
layerId = "2359B287-0F82-447F-8C68-59A72835D733";
shapes = (
{
closed = 1;
nodes = (
(572,-10,o),
(710,85,o),
(740,254,c),
(521,254,l),
(507,205,o),
(464,173,o),
(391,173,cs),
(297,173,o),
(245,234,o),
(263,336,cs),
(282,442,ls),
(297,525,o),
(346,556,o),
(428,556,cs),
(496,556,o),
(546,520,o),
(553,467,c),
(773,467,l),
(770,630,o),
(635,739,o),
(437,739,cs),
(191,739,o),
(49,580,o),
(49,319,cs),
(49,310,ls),
(49,118,o),
(172,-10,o),
(391,-10,cs)
);
}
);
width = 773;
},
{
anchors = (
{
name = bottom;
pos = (473,0);
},
{
name = top;
pos = (456,729);
}
);
layerId = "46DCD09A-F85A-41B9-8FAA-640012B7D4F4";
shapes = (
{
closed = 1;
nodes = (
(695,-10,o),
(868,108,o),
(889,261,c),
(635,261,l),
(616,213,o),
(546,179,o),
(472,179,cs),
(345,179,o),
(284,240,o),
(284,323,cs),
(284,406,ls),
(284,489,o),
(345,550,o),
(472,550,cs),
(547,550,o),
(613,518,o),
(635,469,c),
(889,469,l),
(868,621,o),
(705,739,o),
(473,739,cs),
(216,739,o),
(28,608,o),
(28,375,cs),
(28,355,ls),
(28,121,o),
(216,-10,o),
(473,-10,cs)
);
}
);
width = 901;
},
{
anchors = (
{
name = bottom;
pos = (451,0);
},
{
name = top;
pos = (507,729);
}
);
layerId = "0D69E86C-407B-4861-9815-978EE2313DB2";
shapes = (
{
closed = 1;
nodes = (
(667,-10,o),
(831,86,o),
(860,258,c),
(614,258,l),
(597,205,o),
(536,177,o),
(458,177,cs),
(339,177,o),
(276,242,o),
(293,340,cs),
(310,434,ls),
(322,502,o),
(371,553,o),
(478,553,cs),
(563,553,o),
(619,521,o),
(638,463,c),
(884,463,l),
(861,629,o),
(700,739,o),
(479,739,cs),
(208,739,o),
(50,586,o),
(50,354,cs),
(50,344,ls),
(49,132,o),
(206,-10,o),
(448,-10,cs)
);
}
);
width = 874;
}
);
metricLeft = O;
unicode = 67;
},
{
color = 6;
glyphname = D;
kernLeft = B;
kernRight = D;
lastChange = "2022-11-17 14:59:21 +0000";
layers = (
{
anchors = (
{
name = bottom;
pos = (228,0);
},
{
name = center;
pos = (118,365);
},
{
name = top;
pos = (228,729);
}
);
layerId = "6932EABA-00D8-4526-96D6-87ADD7AC589E";
shapes = (
{
closed = 1;
nodes = (
(229,0,ls),
(332,0,o),
(397,57,o),
(397,232,cs),
(397,497,ls),
(397,672,o),
(332,729,o),
(229,729,cs),
(88,729,l),
(88,0,l)
);
},
{
closed = 1;
nodes = (
(119,701,l),
(229,701,ls),
(340,701,o),
(366,619,o),
(366,496,cs),
(366,233,ls),
(366,110,o),
(340,28,o),
(229,28,cs),
(119,28,l)
);
}
);
width = 465;
},
{
anchors = (
{
name = bottom;
pos = (267,0);
},
{
name = center;
pos = (137,365);
},
{
name = top;
pos = (267,729);
}
);
layerId = "E787E54A-EE3E-475A-BF02-8501A6DA5144";
shapes = (
{
closed = 1;
nodes = (
(273,0,ls),
(440,0,o),
(504,95,o),
(504,264,cs),
(504,465,ls),
(504,634,o),
(440,729,o),
(273,729,cs),
(35,729,l),
(35,0,l)
);
},
{
closed = 1;
nodes = (
(213,583,l),
(253,583,ls),
(302,583,o),
(326,558,o),
(326,484,cs),
(326,245,ls),
(326,171,o),
(302,146,o),
(253,146,cs),
(213,146,l)
);
}
);
width = 531;
},
{
anchors = (
{
name = bottom;
pos = (413,0);
},
{
name = center;
pos = (183,365);
},
{
name = top;
pos = (413,729);
}
);
layerId = "B743CB11-DC16-45F2-BA04-3635CB00F7DA";
shapes = (
{
closed = 1;
nodes = (
(389,0,ls),
(586,0,o),
(717,108,o),
(717,360,cs),
(717,369,ls),
(717,621,o),
(585,729,o),
(389,729,cs),
(134,729,l),
(134,0,l)
);
},
{
closed = 1;
nodes = (
(173,692,l),
(388,692,ls),
(579,692,o),
(673,580,o),
(673,412,cs),
(673,317,ls),
(673,133,o),
(563,37,o),
(388,37,cs),
(173,37,l)
);
}
);
width = 778;
},
{
anchors = (
{
name = bottom;
pos = (221,0);
},
{
name = center;
pos = (158,365);
},
{
name = top;
pos = (350,729);
}
);
background = {
shapes = (
{
closed = 1;
nodes = (
(226,0,ls),
(393,0,o),
(473,95,o),
(503,264,cs),
(515,331,o),
(527,398,o),
(539,465,cs),
(569,634,o),
(521,729,o),
(354,729,cs),
(116,729,l),
(-12,0,l)
);
},
{
closed = 1;
nodes = (
(269,583,l),
(309,583,ls),
(358,583,o),
(377,558,o),
(364,484,cs),
(349,397,o),
(337,331,o),
(322,245,cs),
(309,171,o),
(280,146,o),
(231,146,cs),
(191,146,l)
);
}
);
};
layerId = "3257632A-050A-40C2-B21A-C728868BC46F";
shapes = (
{
closed = 1;
nodes = (
(228,0,ls),
(388,0,o),
(472,71,o),
(502,246,cs),
(536,444,ls),
(565,614,o),
(520,729,o),
(354,729,cs),
(116,729,l),
(-12,0,l)
);
},
{
closed = 1;
nodes = (
(269,583,l),
(309,583,ls),
(358,583,o),
(377,554,o),
(364,479,cs),
(322,240,ls),
(309,168,o),
(281,146,o),
(232,146,cs),
(191,146,l)
);
}
);
width = 534;
},
{
anchors = (
{
name = bottom;
pos = (183,0);
},
{
name = center;
pos = (147,365);
},
{
name = top;
pos = (311,729);
}
);
layerId = "84BE75FC-12C8-47E9-B302-5F6D56903923";
shapes = (
{
closed = 1;
nodes = (
(185,0,ls),
(299,0,o),
(358,42,o),
(388,210,cs),
(437,489,ls),
(468,668,o),
(412,729,o),
(309,729,cs),
(171,729,l),
(43,0,l)
);
},
{
closed = 1;
nodes = (
(197,701,l),
(309,701,ls),
(418,701,o),
(426,608,o),
(405,489,cs),
(359,226,ls),
(334,83,o),
(298,28,o),
(187,28,cs),
(79,28,l)
);
}
);
width = 464;
},
{
anchors = (
{
name = bottom;
pos = (367,0);
},
{
name = center;
pos = (201,365);
},
{
name = top;
pos = (495,729);
}
);
layerId = "33C7CA81-8DED-4513-9072-CA0E40765DD9";
shapes = (
{
closed = 1;
nodes = (
(349,0,ls),
(617,0,o),
(738,172,o),
(738,429,cs),
(738,439,ls),
(738,613,o),
(648,729,o),
(458,729,cs),
(219,729,l),
(89,0,l)
);
},
{
closed = 1;
nodes = (
(251,694,l),
(451,694,ls),
(628,694,o),
(727,594,o),
(692,382,cs),
(671,255,ls),
(649,124,o),
(535,36,o),
(365,36,cs),
(133,36,l)
);
}
);
width = 780;
},
{
anchors = (
{
name = bottom;
pos = (392,0);
},
{
name = center;
pos = (184,365);
},
{
name = top;
pos = (520,729);
}
);
layerId = "46C13DED-2BAB-471A-8D19-A1FA49A5501E";
shapes = (
{
closed = 1;
nodes = (
(400,0,ls),
(646,0,o),
(809,147,o),
(809,409,cs),
(809,413,ls),
(809,603,o),
(684,729,o),
(477,729,cs),
(196,729,l),
(64,0,l)
);
},
{
closed = 1;
nodes = (
(230,692,l),
(481,692,ls),
(671,692,o),
(796,577,o),
(767,376,cs),
(754,286,ls),
(733,139,o),
(605,38,o),
(405,38,cs),
(112,38,l)
);
}
);
width = 849;
},
{
anchors = (
{
name = bottom;
pos = (436,0);
},
{
name = center;
pos = (176,362);
},
{
name = top;
pos = (436,723);
}
);
background = {
shapes = (
{
closed = 1;
nodes = (
(406,0,ls),
(668,0,o),
(794,149,o),
(794,385,cs),
(794,373,o),
(794,360,o),
(794,348,cs),
(794,602,o),
(648,729,o),
(406,729,cs),
(109,729,l),
(109,0,l)
);
},
{
closed = 1;
nodes = (
(148,690,l),
(406,690,ls),
(633,690,o),
(748,574,o),
(748,399,cs),
(748,376,o),
(748,353,o),
(748,330,cs),
(748,137,o),
(615,39,o),
(406,39,cs),
(148,39,l)
);
}
);
};
layerId = "C1814757-B5F7-4D49-B715-04BFD84ECCF6";
shapes = (
{
closed = 1;
nodes = (
(406,0,ls),
(670,0,o),
(794,144,o),
(794,360,cs),
(794,369,ls),
(794,585,o),
(670,729,o),
(406,729,cs),
(109,729,l),
(109,0,l)
);
},
{
closed = 1;
nodes = (
(148,690,l),
(406,690,ls),
(633,690,o),
(748,575,o),
(748,402,cs),
(748,327,ls),
(748,154,o),
(633,39,o),
(406,39,cs),
(148,39,l)
);
}
);
width = 852;
},
{
anchors = (
{
name = bottom;
pos = (401,0);
},
{
name = center;
pos = (181,365);
},
{
name = top;
pos = (401,729);
}
);
layerId = "8B1B4E65-9831-4464-9A92-CA98D2219836";
shapes = (
{
closed = 1;
nodes = (
(379,0,ls),
(597,0,o),
(743,116,o),
(743,362,cs),
(743,368,ls),
(743,583,o),
(628,730,o),
(379,730,cs),
(63,730,l),
(63,0,l)
);
},
{
closed = 1;
nodes = (
(276,550,l),
(379,550,ls),
(475,550,o),
(519,500,o),
(519,424,cs),
(519,306,ls),
(519,231,o),
(476,180,o),
(379,180,cs),
(276,180,l)
);
}
);
width = 774;
},
{
anchors = (
{
name = bottom;
pos = (351,0);
},
{
name = center;
pos = (205,365);
},
{
name = top;
pos = (480,729);
}
);
layerId = "2359B287-0F82-447F-8C68-59A72835D733";
shapes = (
{
closed = 1;
nodes = (
(339,0,ls),
(603,0,o),
(752,153,o),
(752,424,cs),
(752,427,ls),
(752,616,o),
(646,729,o),
(433,729,cs),
(149,729,l),
(21,0,l)
);
},
{
closed = 1;
nodes = (
(332,549,l),
(424,549,ls),
(503,549,o),
(555,514,o),
(538,418,cs),
(517,297,ls),
(505,228,o),
(463,181,o),
(376,181,cs),
(266,181,l)
);
}
);
width = 766;
},
{
anchors = (
{
name = bottom;
pos = (460,0);
},
{
name = center;
pos = (189,365);
},
{
name = top;
pos = (460,730);
}
);
layerId = "46DCD09A-F85A-41B9-8FAA-640012B7D4F4";
shapes = (
{
closed = 1;
nodes = (
(444,0,ls),
(700,0,o),
(879,114,o),
(879,361,cs),
(879,368,ls),
(879,615,o),
(700,729,o),
(444,729,cs),
(63,729,l),
(63,0,l)
);
},
{
closed = 1;
nodes = (
(308,545,l),
(435,545,ls),
(575,545,o),
(619,484,o),
(619,397,cs),
(619,332,ls),
(619,245,o),
(575,184,o),
(435,184,cs),
(308,184,l)
);
}
);
width = 907;
},
{
anchors = (
{
name = bottom;
pos = (393,0);
},
{
name = center;
pos = (210,365);
},
{
name = top;
pos = (524,729);
}
);
layerId = "0D69E86C-407B-4861-9815-978EE2313DB2";
shapes = (
{
closed = 1;
nodes = (
(416,0,ls),
(675,0,o),
(856,156,o),
(856,393,cs),
(856,400,ls),
(856,599,o),
(725,729,o),
(473,729,cs),
(145,729,l),
(15,0,l)
);
},
{
closed = 1;
nodes = (
(351,545,l),
(451,545,ls),
(557,545,o),
(621,502,o),
(603,387,cs),
(591,312,ls),
(576,214,o),
(511,181,o),
(421,181,cs),
(287,181,l)
);
}
);
width = 870;
}
);
metricLeft = H;
metricRight = O;
unicode = 68;
},
{
color = 6;
glyphname = E;
kernLeft = B;
kernRight = E;
lastChange = "2022-11-17 14:59:21 +0000";
layers = (
{
anchors = (
{
name = bottom;
pos = (192,0);
},
{
name = ogonek;
pos = (247,10);
},
{
name = top;
pos = (207,729);
},
{
name = topleft;
pos = (42,729);
}
);
layerId = "6932EABA-00D8-4526-96D6-87ADD7AC589E";
shapes = (
{
closed = 1;
nodes = (
(331,0,l),
(331,28,l),
(119,28,l),
(119,362,l),
(309,362,l),
(309,390,l),
(119,390,l),
(119,701,l),
(326,701,l),
(326,729,l),
(88,729,l),
(88,0,l)
);
}
);
width = 379;
},
{
anchors = (
{
name = bottom;
pos = (218,0);
},
{
name = ogonek;
pos = (290,10);
},
{
name = top;
pos = (220,729);
},
{
name = topleft;
pos = (35,729);
}
);
layerId = "E787E54A-EE3E-475A-BF02-8501A6DA5144";
shapes = (
{
closed = 1;
nodes = (
(410,0,l),
(410,146,l),
(213,146,l),
(213,300,l),
(366,300,l),
(366,442,l),
(213,442,l),
(213,583,l),
(404,583,l),
(404,729,l),
(35,729,l),
(35,0,l)
);
}
);
width = 432;
},
{
anchors = (
{
name = bottom;
pos = (354,0);
},
{
name = ogonek;
pos = (521,10);
},
{
name = top;
pos = (369,729);
},
{
name = topleft;
pos = (53,729);
}
);
layerId = "B743CB11-DC16-45F2-BA04-3635CB00F7DA";
shapes = (
{
closed = 1;
nodes = (
(604,0,l),
(604,37,l),
(173,37,l),
(173,358,l),
(557,358,l),
(557,393,l),
(173,393,l),
(173,692,l),
(604,692,l),
(604,729,l),
(134,729,l),
(134,0,l)
);
}
);
width = 674;
},
{
anchors = (
{
name = bottom;
pos = (170,0);
},
{
name = ogonek;
pos = (214,10);
},
{
name = top;
pos = (301,729);
},
{
name = topleft;
pos = (116,729);
}
);
layerId = "3257632A-050A-40C2-B21A-C728868BC46F";
shapes = (
{
closed = 1;
nodes = (
(363,0,l),
(388,146,l),
(191,146,l),
(219,300,l),
(372,300,l),
(397,442,l),
(244,442,l),
(269,583,l),
(460,583,l),
(485,729,l),
(116,729,l),
(-12,0,l)
);
}
);
width = 433;
},
{
anchors = (
{
name = bottom;
pos = (147,0);
},
{
name = ogonek;
pos = (203,10);
},
{
name = top;
pos = (290,729);
},
{
name = topleft;
pos = (125,729);
}
);
layerId = "84BE75FC-12C8-47E9-B302-5F6D56903923";
shapes = (
{
closed = 1;
nodes = (
(286,0,l),
(291,28,l),
(79,28,l),
(138,362,l),
(328,362,l),
(332,390,l),
(142,390,l),
(197,701,l),
(404,701,l),
(409,729,l),
(171,729,l),
(43,0,l)
);
}
);
width = 379;
},
{
anchors = (
{
name = bottom;
pos = (307,0);
},
{
name = ogonek;
pos = (443,10);
},
{
name = top;
pos = (450,729);
},
{
name = topleft;
pos = (136,729);
}
);
layerId = "33C7CA81-8DED-4513-9072-CA0E40765DD9";
shapes = (
{
closed = 1;
nodes = (
(555,0,l),
(561,36,l),
(132,36,l),
(189,359,l),
(571,359,l),
(577,393,l),
(195,393,l),
(248,693,l),
(676,693,l),
(682,729,l),
(217,729,l),
(89,0,l)
);
}
);
width = 670;
},
{
anchors = (
{
name = bottom;
pos = (319,0);
},
{
name = ogonek;
pos = (497,10);
},
{
name = top;
pos = (471,729);
},
{
name = topleft;
pos = (134,729);
}
);
layerId = "46C13DED-2BAB-471A-8D19-A1FA49A5501E";
shapes = (
{
closed = 1;
nodes = (
(619,0,l),
(626,38,l),
(110,38,l),
(166,357,l),
(627,357,l),
(633,395,l),
(173,395,l),
(225,691,l),
(742,691,l),
(748,729,l),
(192,729,l),
(64,0,l)
);
}
);
width = 718;
},
{
anchors = (
{
name = bottom;
pos = (367,0);
},
{
name = ogonek;
pos = (569,10);
},
{
name = top;
pos = (390,729);
},
{
name = topleft;
pos = (56,729);
}
);
layerId = "C1814757-B5F7-4D49-B715-04BFD84ECCF6";
shapes = (
{
closed = 1;
nodes = (
(670,0,l),
(670,39,l),
(148,39,l),
(148,358,l),
(613,358,l),
(613,396,l),
(148,396,l),
(148,690,l),
(671,690,l),
(671,729,l),
(109,729,l),
(109,0,l)
);
}
);
width = 723;
},
{
anchors = (
{
name = bottom;
pos = (363,0);
},
{
name = ogonek;
pos = (525,10);
},
{
name = top;
pos = (373,729);
},
{
name = topleft;
pos = (56,729);
}
);
layerId = "8B1B4E65-9831-4464-9A92-CA98D2219836";
shapes = (
{
closed = 1;
nodes = (
(652,0,l),
(652,180,l),
(276,180,l),
(276,284,l),
(599,284,l),
(599,452,l),
(276,452,l),
(276,549,l),
(652,549,l),
(652,729,l),
(63,729,l),
(63,0,l)
);
}
);
width = 697;
},
{
anchors = (
{
name = bottom;
pos = (315,0);
},
{
name = ogonek;
pos = (455,10);
},
{
name = top;
pos = (452,729);
},
{
name = topleft;
pos = (141,729);
}
);
layerId = "2359B287-0F82-447F-8C68-59A72835D733";
shapes = (
{
closed = 1;
nodes = (
(598,0,l),
(630,179,l),
(266,179,l),
(285,286,l),
(594,286,l),
(624,452,l),
(314,452,l),
(332,550,l),
(694,550,l),
(725,729,l),
(149,729,l),
(21,0,l)
);
}
);
width = 691;
},
{
anchors = (
{
name = bottom;
pos = (400,0);
},
{
name = ogonek;
pos = (602,10);
},
{
name = top;
pos = (408,729);
},
{
name = topleft;
pos = (35,729);
}
);
layerId = "46DCD09A-F85A-41B9-8FAA-640012B7D4F4";
shapes = (
{
closed = 1;
nodes = (
(761,0,l),
(761,184,l),
(308,184,l),
(308,282,l),
(698,282,l),
(698,452,l),
(308,452,l),
(308,545,l),
(763,545,l),
(763,729,l),
(63,729,l),
(63,0,l)
);
}
);
width = 800;
},
{
anchors = (
{
name = bottom;
pos = (336,0);
},
{
name = ogonek;
pos = (518,10);
},
{
name = top;
pos = (474,729);
},
{
name = topleft;
pos = (117,729);
}
);
layerId = "0D69E86C-407B-4861-9815-978EE2313DB2";
shapes = (
{
closed = 1;
nodes = (
(673,0,l),
(704,181,l),
(287,181,l),
(305,282,l),
(661,282,l),
(689,453,l),
(334,453,l),
(351,548,l),
(770,548,l),
(802,729,l),
(145,729,l),
(15,0,l)
);
}
);
width = 758;
}
);
metricLeft = H;
unicode = 69;
},
{
color = 6;
glyphname = F;
kernLeft = B;
kernRight = F;
lastChange = "2022-11-17 14:59:21 +0000";
layers = (
{
anchors = (
{
name = bottom;
pos = (183,0);
},
{
name = top;
pos = (183,729);
}
);
layerId = "6932EABA-00D8-4526-96D6-87ADD7AC589E";
shapes = (
{
closed = 1;
nodes = (
(119,0,l),
(119,361,l),
(305,361,l),
(305,389,l),
(119,389,l),
(119,701,l),
(322,701,l),
(322,729,l),
(88,729,l),
(88,0,l)
);
}
);
width = 342;
},
{
anchors = (
{
name = bottom;
pos = (210,0);
},
{
name = top;
pos = (210,729);
}
);
layerId = "E787E54A-EE3E-475A-BF02-8501A6DA5144";
shapes = (
{
closed = 1;
nodes = (
(213,0,l),
(213,290,l),
(366,290,l),
(366,432,l),
(213,432,l),
(213,583,l),
(394,583,l),
(394,729,l),
(35,729,l),
(35,0,l)
);
}
);
width = 402;
},
{
anchors = (
{
name = bottom;
pos = (339,0);
},
{
name = top;
pos = (339,729);
}
);
layerId = "B743CB11-DC16-45F2-BA04-3635CB00F7DA";
shapes = (
{
closed = 1;
nodes = (
(173,0,l),
(173,342,l),
(574,342,l),
(574,377,l),
(173,377,l),
(173,692,l),
(614,692,l),
(614,729,l),
(134,729,l),
(134,0,l)
);
}
);
width = 658;
},
{
anchors = (
{
name = bottom;
pos = (162,0);
},
{
name = top;
pos = (291,729);
}
);
layerId = "3257632A-050A-40C2-B21A-C728868BC46F";
shapes = (
{
closed = 1;
nodes = (
(166,0,l),
(217,290,l),
(370,290,l),
(395,432,l),
(242,432,l),
(269,583,l),
(450,583,l),
(475,729,l),
(116,729,l),
(-12,0,l)
);
}
);
width = 403;
},
{
anchors = (
{
name = bottom;
pos = (138,0);
},
{
name = top;
pos = (266,729);
}
);
layerId = "84BE75FC-12C8-47E9-B302-5F6D56903923";
shapes = (
{
closed = 1;
nodes = (
(74,0,l),
(137,361,l),
(323,361,l),
(328,389,l),
(142,389,l),
(197,701,l),
(400,701,l),
(405,729,l),
(171,729,l),
(43,0,l)
);
}
);
width = 342;
},
{
anchors = (
{
name = bottom;
pos = (291,0);
},
{
name = top;
pos = (419,729);
}
);
layerId = "33C7CA81-8DED-4513-9072-CA0E40765DD9";
shapes = (
{
closed = 1;
nodes = (
(126,0,l),
(187,346,l),
(584,346,l),
(589,380,l),
(192,380,l),
(248,693,l),
(684,693,l),
(690,729,l),
(217,729,l),
(89,0,l)
);
}
);
width = 651;
},
{
anchors = (
{
name = bottom;
pos = (316,0);
},
{
name = top;
pos = (444,729);
}
);
layerId = "46C13DED-2BAB-471A-8D19-A1FA49A5501E";
shapes = (
{
closed = 1;
nodes = (
(103,0,l),
(163,341,l),
(644,341,l),
(650,378,l),
(169,378,l),
(225,691,l),
(754,691,l),
(760,729,l),
(192,729,l),
(64,0,l)
);
}
);
width = 714;
},
{
anchors = (
{
name = bottom;
pos = (364,0);
},
{
name = top;
pos = (364,729);
}
);
layerId = "C1814757-B5F7-4D49-B715-04BFD84ECCF6";
shapes = (
{
closed = 1;
nodes = (
(148,0,l),
(148,338,l),
(636,338,l),
(636,376,l),
(148,376,l),
(148,690,l),
(684,690,l),
(684,729,l),
(109,729,l),
(109,0,l)
);
}
);
width = 720;
},
{
anchors = (
{
name = bottom;
pos = (307,0);
},
{
name = top;
pos = (307,729);
}
);
layerId = "8B1B4E65-9831-4464-9A92-CA98D2219836";
shapes = (
{
closed = 1;
nodes = (
(276,0,l),
(276,256,l),
(570,256,l),
(570,427,l),
(276,427,l),
(276,549,l),
(610,549,l),
(610,729,l),
(63,729,l),
(63,0,l)
);
}
);
width = 632;
},
{
anchors = (
{
name = bottom;
pos = (259,0);
},
{
name = top;
pos = (388,729);
}
);
layerId = "2359B287-0F82-447F-8C68-59A72835D733";
shapes = (
{
closed = 1;
nodes = (
(236,0,l),
(280,256,l),
(557,256,l),
(588,423,l),
(309,423,l),
(332,550,l),
(649,550,l),
(680,729,l),
(149,729,l),
(21,0,l)
);
}
);
width = 622;
},
{
anchors = (
{
name = bottom;
pos = (380,0);
},
{
name = top;
pos = (380,729);
}
);
layerId = "46DCD09A-F85A-41B9-8FAA-640012B7D4F4";
shapes = (
{
closed = 1;
nodes = (
(308,0,l),
(308,239,l),
(691,239,l),
(691,412,l),
(308,412,l),
(308,545,l),
(743,545,l),
(743,729,l),
(63,729,l),
(63,0,l)
);
}
);
width = 781;
},
{
anchors = (
{
name = bottom;
pos = (318,0);
},
{
name = top;
pos = (447,729);
}
);
layerId = "0D69E86C-407B-4861-9815-978EE2313DB2";
shapes = (
{
closed = 1;
nodes = (
(254,0,l),
(297,243,l),
(649,243,l),
(680,414,l),
(328,414,l),
(351,548,l),
(751,548,l),
(784,729,l),
(145,729,l),
(15,0,l)
);
}
);
width = 741;
}
);
metricLeft = H;
unicode = 70;
},
{
color = 6;
glyphname = G;
kernLeft = C;
kernRight = G;
lastChange = "2022-11-17 14:59:21 +0000";
layers = (
{
anchors = (
{
name = bottom;
pos = (223,0);
},
{
name = top;
pos = (223,729);
}
);
background = {
shapes = (
{
closed = 1;
nodes = (
(284,-10,o),
(338,35,o),
(350,114,c),
(354,114,l),
(355,0,l),
(378,0,l),
(378,362,l),
(222,362,l),
(222,334,l),
(354,334,l),
(347,341,l),
(347,230,ls),
(347,104,o),
(317,18,o),
(216,18,cs),
(149,18,o),
(99,56,o),
(99,193,cs),
(99,307,o),
(99,422,o),
(99,536,cs),
(99,641,o),
(124,711,o),
(223,711,cs),
(312,711,o),
(345,653,o),
(347,504,c),
(378,504,l),
(375,665,o),
(334,739,o),
(222,739,cs),
(117,739,o),
(68,674,o),
(68,536,cs),
(68,422,o),
(68,307,o),
(68,193,cs),
(68,59,o),
(117,-10,o),
(214,-10,cs)
);
}
);
};
layerId = "6932EABA-00D8-4526-96D6-87ADD7AC589E";
shapes = (
{
closed = 1;
nodes = (
(290,-10,o),
(340,38,o),
(350,111,c),
(354,111,l),
(355,0,l),
(378,0,l),
(378,362,l),
(222,362,l),
(222,334,l),
(354,334,l),
(347,341,l),
(347,193,ls),
(347,96,o),
(317,18,o),
(216,18,cs),
(149,18,o),
(99,56,o),
(99,193,cs),
(99,536,ls),
(99,641,o),
(124,711,o),
(223,711,cs),
(312,711,o),
(345,653,o),
(347,504,c),
(378,504,l),
(375,665,o),
(334,739,o),
(222,739,cs),
(117,739,o),
(68,674,o),
(68,536,cs),
(68,193,ls),
(68,59,o),
(117,-10,o),
(214,-10,cs)
);
}
);
width = 446;
},
{
anchors = (
{
name = bottom;
pos = (271,0);
},
{
name = top;
pos = (271,729);
}
);
background = {
shapes = (
{
closed = 1;
nodes = (
(300,-10,o),
(362,27,o),
(377,105,c),
(383,105,l),
(396,0,l),
(507,0,l),
(507,390,l),
(266,390,l),
(266,278,l),
(359,278,l),
(337,300,l),
(337,214,ls),
(337,178,o),
(325,136,o),
(272,136,cs),
(229,136,o),
(205,156,o),
(205,214,cs),
(205,314,o),
(205,415,o),
(205,515,cs),
(205,574,o),
(229,593,o),
(269,593,cs),
(318,593,o),
(333,559,o),
(333,474,c),
(507,474,l),
(509,665,o),
(424,739,o),
(271,739,cs),
(115,739,o),
(27,667,o),
(27,480,cs),
(27,397,o),
(27,315,o),
(27,209,cs),
(27,67,o),
(91,-10,o),
(216,-10,cs)
);
}
);
};
layerId = "E787E54A-EE3E-475A-BF02-8501A6DA5144";
shapes = (
{
closed = 1;
nodes = (
(289,-10,o),
(342,25,o),
(357,95,c),
(363,95,l),
(376,0,l),
(507,0,l),
(507,390,l),
(266,390,l),
(266,258,l),
(359,258,l),
(329,300,l),
(329,214,ls),
(329,167,o),
(314,136,o),
(267,136,cs),
(230,136,o),
(205,155,o),
(205,214,cs),
(205,515,ls),
(205,574,o),
(229,593,o),
(267,593,cs),
(318,593,o),
(334,561,o),
(333,474,c),
(506,474,l),
(513,667,o),
(421,739,o),
(271,739,cs),
(115,739,o),
(27,667,o),
(27,480,cs),
(27,209,ls),
(27,66,o),
(94,-10,o),
(210,-10,cs)
);
}
);
width = 534;
},
{
anchors = (
{
name = bottom;
pos = (388,0);
},
{
name = top;
pos = (388,729);
}
);
background = {
shapes = (
{
closed = 1;
nodes = (
(514,-10,o),
(626,59,o),
(657,174,c),
(661,174,l),
(665,0,l),
(697,0,l),
(697,362,l),
(416,362,l),
(416,327,l),
(671,327,l),
(653,343,l),
(653,300,ls),
(653,103,o),
(520,26,o),
(379,26,cs),
(212,26,o),
(103,126,o),
(103,316,cs),
(103,348,o),
(103,380,o),
(103,412,cs),
(103,580,o),
(203,702,o),
(394,702,cs),
(522,702,o),
(635,638,o),
(656,503,c),
(696,503,l),
(678,646,o),
(560,738,o),
(393,738,cs),
(188,738,o),
(60,610,o),
(60,362,cs),
(60,130,o),
(170,-10,o),
(375,-10,cs)
);
}
);
};
guides = (
{
pos = (680,327);
},
{
pos = (697,362);
}
);
layerId = "B743CB11-DC16-45F2-BA04-3635CB00F7DA";
shapes = (
{
closed = 1;
nodes = (
(518,-10,o),
(627,64,o),
(657,174,c),
(661,174,l),
(665,0,l),
(697,0,l),
(697,362,l),
(416,362,l),
(416,327,l),
(680,327,l),
(653,354,l),
(653,300,ls),
(653,136,o),
(557,26,o),
(385,26,cs),
(216,26,o),
(103,130,o),
(103,316,cs),
(103,412,ls),
(103,580,o),
(203,702,o),
(395,702,cs),
(529,702,o),
(632,634,o),
(654,514,c),
(694,514,l),
(674,648,o),
(554,738,o),
(395,738,cs),
(187,738,o),
(60,610,o),
(60,366,cs),
(60,361,ls),
(60,138,o),
(164,-10,o),
(385,-10,cs)
);
}
);
width = 813;
},
{
anchors = (
{
name = bottom;
pos = (224,0);
},
{
name = top;
pos = (342,729);
}
);
layerId = "3257632A-050A-40C2-B21A-C728868BC46F";
shapes = (
{
closed = 1;
nodes = (
(272,-10,o),
(325,26,o),
(350,101,c),
(354,101,l),
(347,0,l),
(460,0,l),
(529,387,l),
(287,387,l),
(267,275,l),
(364,275,l),
(344,300,l),
(327,205,ls),
(321,171,o),
(306,131,o),
(252,131,cs),
(202,131,o),
(187,163,o),
(196,215,cs),
(249,518,ls),
(258,569,o),
(275,592,o),
(318,592,cs),
(383,592,o),
(380,543,o),
(369,471,c),
(544,471,l),
(570,643,o),
(499,739,o),
(324,739,cs),
(182,739,o),
(98,675,o),
(68,503,cs),
(23,246,ls),
(-4,84,o),
(47,-10,o),
(193,-10,cs)
);
}
);
width = 536;
},
{
anchors = (
{
name = bottom;
pos = (178,0);
},
{
name = top;
pos = (291,729);
}
);
layerId = "84BE75FC-12C8-47E9-B302-5F6D56903923";
shapes = (
{
closed = 1;
nodes = (
(246,-10,o),
(300,30,o),
(324,103,c),
(328,103,l),
(311,0,l),
(334,0,l),
(396,361,l),
(269,361,l),
(264,333,l),
(371,333,l),
(363,342,l),
(341,219,ls),
(320,99,o),
(280,18,o),
(190,18,cs),
(109,18,o),
(66,69,o),
(89,201,cs),
(149,545,ls),
(169,658,o),
(201,711,o),
(288,711,cs),
(396,710,o),
(410,637,o),
(391,504,c),
(422,504,l),
(443,648,o),
(419,738,o),
(290,738,cs),
(203,738,o),
(146,700,o),
(119,548,cs),
(59,206,ls),
(36,76,o),
(76,-10,o),
(187,-10,cs)
);
}
);
width = 447;
},
{
anchors = (
{
name = bottom;
pos = (354,0);
},
{
name = top;
pos = (439,729);
}
);
background = {
shapes = (
{
closed = 1;
nodes = (
(640,-10,o),
(762,176,o),
(762,415,cs),
(762,423,ls),
(762,623,o),
(631,739,o),
(433,739,cs),
(202,739,o),
(80,553,o),
(80,314,cs),
(80,306,ls),
(80,106,o),
(211,-10,o),
(409,-10,cs)
);
},
{
closed = 1;
nodes = (
(214,26,o),
(93,152,o),
(124,353,cs),
(140,449,ls),
(166,599,o),
(265,703,o),
(433,703,cs),
(628,703,o),
(751,577,o),
(718,376,cs),
(702,280,ls),
(677,130,o),
(577,26,o),
(409,26,cs)
);
}
);
};
guides = (
{
pos = (714,327);
},
{
pos = (731,362);
}
);
layerId = "33C7CA81-8DED-4513-9072-CA0E40765DD9";
shapes = (
{
closed = 1;
nodes = (
(509,-10,o),
(609,44,o),
(649,125,c),
(652,125,l),
(633,0,l),
(665,0,l),
(728,362,l),
(457,362,l),
(452,328,l),
(709,328,l),
(687,354,l),
(665,236,ls),
(640,102,o),
(545,26,o),
(384,26,cs),
(218,26,o),
(91,152,o),
(124,353,cs),
(140,449,ls),
(165,599,o),
(265,703,o),
(434,703,cs),
(581,703,o),
(675,628,o),
(697,513,c),
(739,513,l),
(716,653,o),
(601,739,o),
(434,739,cs),
(202,739,o),
(80,553,o),
(80,314,cs),
(80,306,ls),
(80,106,o),
(215,-10,o),
(384,-10,cs)
);
}
);
width = 806;
},
{
anchors = (
{
name = bottom;
pos = (400,0);
},
{
name = top;
pos = (482,729);
}
);
layerId = "46C13DED-2BAB-471A-8D19-A1FA49A5501E";
shapes = (
{
closed = 1;
nodes = (
(593,-10,o),
(707,43,o),
(756,131,c),
(760,131,l),
(740,0,l),
(771,0,l),
(835,362,l),
(507,362,l),
(501,326,l),
(796,326,l),
(790,335,l),
(772,240,ls),
(748,111,o),
(643,27,o),
(462,27,cs),
(253,27,o),
(96,152,o),
(125,354,cs),
(137,438,ls),
(162,611,o),
(290,702,o),
(477,702,cs),
(637,702,o),
(770,623,o),
(803,505,c),
(847,505,l),
(813,644,o),
(664,739,o),
(478,739,cs),
(230,739,o),
(80,577,o),
(80,337,cs),
(80,331,ls),
(82,118,o),
(231,-10,o),
(462,-10,cs)
);
}
);
width = 885;
},
{
anchors = (
{
name = bottom;
pos = (451,0);
},
{
name = top;
pos = (451,729);
}
);
background = {
shapes = (
{
closed = 1;
nodes = (
(608,-10,o),
(742,66,o),
(781,181,c),
(785,181,l),
(790,0,l),
(823,0,l),
(823,362,l),
(490,362,l),
(490,325,l),
(808,325,l),
(778,356,l),
(778,291,ls),
(778,132,o),
(656,28,o),
(447,28,cs),
(244,28,o),
(113,142,o),
(113,336,cs),
(113,354,o),
(113,374,o),
(113,392,cs),
(113,565,o),
(237,700,o),
(465,700,cs),
(614,700,o),
(751,639,o),
(781,503,c),
(821,503,l),
(796,645,o),
(652,738,o),
(464,738,cs),
(223,738,o),
(68,600,o),
(68,333,cs),
(68,348,o),
(68,368,o),
(68,384,cs),
(68,141,o),
(200,-10,o),
(447,-10,cs)
);
}
);
};
layerId = "C1814757-B5F7-4D49-B715-04BFD84ECCF6";
shapes = (
{
closed = 1;
nodes = (
(607,-10,o),
(738,59,o),
(781,181,c),
(785,181,l),
(790,0,l),
(823,0,l),
(823,362,l),
(490,362,l),
(490,325,l),
(805,325,l),
(778,352,l),
(778,291,ls),
(778,132,o),
(652,28,o),
(436,28,cs),
(213,28,o),
(103,164,o),
(103,336,cs),
(103,392,ls),
(103,570,o),
(226,700,o),
(456,700,cs),
(624,700,o),
(751,629,o),
(779,503,c),
(821,503,l),
(796,644,o),
(650,738,o),
(456,738,cs),
(226,738,o),
(58,607,o),
(58,366,cs),
(58,362,ls),
(58,121,o),
(212,-10,o),
(436,-10,cs)
);
}
);
width = 891;
},
{
anchors = (
{
name = bottom;
pos = (396,0);
},
{
name = top;
pos = (396,736);
}
);
background = {
shapes = (
{
closed = 1;
nodes = (
(463,-10,o),
(553,36,o),
(579,106,c),
(586,106,l),
(601,0,l),
(757,0,l),
(757,404,l),
(379,404,l),
(379,255,l),
(595,255,l),
(529,310,l),
(529,287,ls),
(529,219,o),
(481,174,o),
(396,174,cs),
(312,174,o),
(254,215,o),
(254,304,cs),
(254,424,ls),
(254,502,o),
(303,554,o),
(397,554,cs),
(467,554,o),
(518,523,o),
(532,469,c),
(751,469,l),
(740,634,o),
(603,738,o),
(401,738,cs),
(179,738,o),
(31,614,o),
(31,361,cs),
(31,357,ls),
(31,137,o),
(134,-10,o),
(352,-10,cs)
);
}
);
};
layerId = "8B1B4E65-9831-4464-9A92-CA98D2219836";
shapes = (
{
closed = 1;
nodes = (
(464,-10,o),
(550,32,o),
(579,102,c),
(586,102,l),
(601,0,l),
(757,0,l),
(757,404,l),
(379,404,l),
(379,255,l),
(595,255,l),
(539,313,l),
(539,287,ls),
(539,206,o),
(487,168,o),
(395,168,cs),
(309,168,o),
(254,210,o),
(254,301,cs),
(254,422,ls),
(254,501,o),
(302,555,o),
(400,555,cs),
(467,555,o),
(516,530,o),
(532,478,c),
(751,478,l),
(740,641,o),
(602,739,o),
(403,739,cs),
(183,739,o),
(31,613,o),
(31,358,cs),
(31,354,ls),
(31,106,o),
(150,-10,o),
(356,-10,cs)
);
}
);
width = 803;
},
{
anchors = (
{
name = bottom;
pos = (341,0);
},
{
name = top;
pos = (457,740);
}
);
background = {
shapes = (
{
closed = 1;
nodes = (
(408,-10,o),
(501,32,o),
(543,102,c),
(550,102,l),
(547,0,l),
(703,0,l),
(774,404,l),
(396,404,l),
(370,255,l),
(586,255,l),
(540,313,l),
(535,287,ls),
(521,206,o),
(462,168,o),
(370,168,cs),
(284,168,o),
(237,210,o),
(253,301,cs),
(274,422,ls),
(288,501,o),
(346,555,o),
(444,555,cs),
(511,555,o),
(555,530,o),
(562,478,c),
(781,478,l),
(799,641,o),
(678,739,o),
(479,739,cs),
(259,739,o),
(85,613,o),
(40,358,cs),
(39,354,ls),
(-5,106,o),
(94,-10,o),
(300,-10,cs)
);
}
);
};
layerId = "2359B287-0F82-447F-8C68-59A72835D733";
shapes = (
{
closed = 1;
nodes = (
(443,-9,o),
(513,27,o),
(539,73,c),
(548,73,l),
(546,0,l),
(699,0,l),
(773,405,l),
(398,405,l),
(372,257,l),
(557,257,l),
(527,293,l),
(523,273,ls),
(509,202,o),
(464,174,o),
(393,174,cs),
(298,174,o),
(244,232,o),
(264,344,cs),
(279,427,ls),
(296,521,o),
(341,556,o),
(427,556,cs),
(493,556,o),
(540,526,o),
(555,478,c),
(774,478,l),
(758,645,o),
(621,739,o),
(429,739,cs),
(201,739,o),
(47,587,o),
(47,302,cs),
(47,293,ls),
(47,112,o),
(151,-9,o),
(337,-9,cs)
);
}
);
width = 804;
},
{
anchors = (
{
name = bottom;
pos = (465,0);
},
{
name = top;
pos = (465,729);
}
);
layerId = "46DCD09A-F85A-41B9-8FAA-640012B7D4F4";
shapes = (
{
closed = 1;
nodes = (
(548,-10,o),
(660,44,o),
(690,108,c),
(697,108,l),
(715,0,l),
(895,0,l),
(895,407,l),
(468,407,l),
(468,253,l),
(689,253,l),
(631,311,l),
(631,295,ls),
(631,225,o),
(564,179,o),
(469,179,cs),
(360,179,o),
(284,222,o),
(284,323,cs),
(284,406,ls),
(284,489,o),
(344,550,o),
(469,550,cs),
(559,550,o),
(619,517,o),
(634,469,c),
(887,469,l),
(872,631,o),
(704,739,o),
(470,739,cs),
(215,739,o),
(28,608,o),
(28,365,cs),
(28,346,ls),
(28,134,o),
(166,-10,o),
(418,-10,cs)
);
}
);
width = 942;
},
{
anchors = (
{
name = bottom;
pos = (408,0);
},
{
name = top;
pos = (522,758);
}
);
layerId = "0D69E86C-407B-4861-9815-978EE2313DB2";
shapes = (
{
closed = 1;
nodes = (
(521,-10,o),
(617,28,o),
(647,84,c),
(659,84,l),
(658,0,l),
(828,0,l),
(901,407,l),
(492,407,l),
(464,254,l),
(713,254,l),
(639,330,l),
(632,285,ls),
(620,212,o),
(560,172,o),
(459,172,cs),
(326,172,o),
(273,240,o),
(291,340,cs),
(307,434,ls),
(319,502,o),
(368,553,o),
(479,553,cs),
(565,553,o),
(628,524,o),
(647,474,c),
(893,474,l),
(875,633,o),
(712,739,o),
(484,739,cs),
(223,739,o),
(47,594,o),
(47,333,cs),
(47,322,ls),
(47,123,o),
(191,-10,o),
(407,-10,cs)
);
}
);
width = 925;
}
);
metricLeft = O;
unicode = 71;
},
{
color = 6;
glyphname = H;
kernLeft = B;
lastChange = "2022-11-17 14:59:21 +0000";
layers = (
{
anchors = (
{
name = bottom;
pos = (239,0);
},
{
name = center;
pos = (239,595);
},
{
name = top;
pos = (239,729);
},
{
name = topleft;
pos = (42,729);
}
);
layerId = "6932EABA-00D8-4526-96D6-87ADD7AC589E";
shapes = (
{
closed = 1;
nodes = (
(389,0,l),
(389,729,l),
(358,729,l),
(358,0,l)
);
},
{
closed = 1;
nodes = (
(119,0,l),
(119,729,l),
(88,729,l),
(88,0,l)
);
},
{
closed = 1;
nodes = (
(365,364,l),
(365,392,l),
(112,392,l),
(112,364,l)
);
}
);
width = 477;
},
{
anchors = (
{
name = bottom;
pos = (266,0);
},
{
name = center;
pos = (266,595);
},
{
name = top;
pos = (266,729);
},
{
name = topleft;
pos = (35,729);
}
);
layerId = "E787E54A-EE3E-475A-BF02-8501A6DA5144";
shapes = (
{
closed = 1;
nodes = (
(496,0,l),
(496,729,l),
(318,729,l),
(318,0,l)
);
},
{
closed = 1;
nodes = (
(213,0,l),
(213,729,l),
(35,729,l),
(35,0,l)
);
},
{
closed = 1;
nodes = (
(334,293,l),
(334,439,l),
(197,439,l),
(197,293,l)
);
}
);
width = 530;
},
{
anchors = (
{
name = bottom;
pos = (422,0);
},
{
name = center;
pos = (422,595);
},
{
name = top;
pos = (422,729);
},
{
name = topleft;
pos = (53,729);
}
);
layerId = "B743CB11-DC16-45F2-BA04-3635CB00F7DA";
shapes = (
{
closed = 1;
nodes = (
(710,0,l),
(710,729,l),
(670,729,l),
(670,0,l)
);
},
{
closed = 1;
nodes = (
(173,0,l),
(173,729,l),
(134,729,l),
(134,0,l)
);
},
{
closed = 1;
nodes = (
(679,351,l),
(679,388,l),
(164,388,l),
(164,351,l)
);
}
);
width = 844;
},
{
anchors = (
{
name = bottom;
pos = (218,0);
},
{
name = center;
pos = (323,595);
},
{
name = top;
pos = (347,729);
},
{
name = topleft;
pos = (116,729);
}
);
layerId = "3257632A-050A-40C2-B21A-C728868BC46F";
shapes = (
{
closed = 1;
nodes = (
(449,0,l),
(577,729,l),
(399,729,l),
(271,0,l)
);
},
{
closed = 1;
nodes = (
(166,0,l),
(294,729,l),
(116,729,l),
(-12,0,l)
);
},
{
closed = 1;
nodes = (
(338,293,l),
(364,439,l),
(227,439,l),
(201,293,l)
);
}
);
width = 531;
},
{
anchors = (
{
name = bottom;
pos = (194,0);
},
{
name = center;
pos = (298,595);
},
{
name = top;
pos = (322,729);
},
{
name = topleft;
pos = (125,729);
}
);
layerId = "84BE75FC-12C8-47E9-B302-5F6D56903923";
shapes = (
{
closed = 1;
nodes = (
(344,0,l),
(472,729,l),
(441,729,l),
(313,0,l)
);
},
{
closed = 1;
nodes = (
(74,0,l),
(202,729,l),
(171,729,l),
(43,0,l)
);
},
{
closed = 1;
nodes = (
(384,364,l),
(389,392,l),
(136,392,l),
(131,364,l)
);
}
);
width = 477;
},
{
anchors = (
{
name = bottom;
pos = (375,0);
},
{
name = center;
pos = (479,595);
},
{
name = top;
pos = (503,729);
},
{
name = topleft;
pos = (136,729);
}
);
layerId = "33C7CA81-8DED-4513-9072-CA0E40765DD9";
shapes = (
{
closed = 1;
nodes = (
(659,0,l),
(788,729,l),
(750,729,l),
(621,0,l)
);
},
{
closed = 1;
nodes = (
(126,0,l),
(255,729,l),
(218,729,l),
(89,0,l)
);
},
{
closed = 1;
nodes = (
(692,353,l),
(698,389,l),
(185,389,l),
(179,353,l)
);
}
);
width = 839;
},
{
anchors = (
{
name = bottom;
pos = (402,0);
},
{
name = center;
pos = (507,591);
},
{
name = top;
pos = (530,729);
},
{
name = topleft;
pos = (135,729);
}
);
layerId = "46C13DED-2BAB-471A-8D19-A1FA49A5501E";
shapes = (
{
closed = 1;
nodes = (
(739,0,l),
(868,729,l),
(828,729,l),
(699,0,l)
);
},
{
closed = 1;
nodes = (
(104,0,l),
(234,729,l),
(193,729,l),
(64,0,l)
);
},
{
closed = 1;
nodes = (
(770,350,l),
(776,387,l),
(163,387,l),
(157,350,l)
);
}
);
width = 894;
},
{
anchors = (
{
name = bottom;
pos = (452,0);
},
{
name = center;
pos = (452,591);
},
{
name = top;
pos = (451,729);
},
{
name = topleft;
pos = (56,729);
}
);
layerId = "C1814757-B5F7-4D49-B715-04BFD84ECCF6";
shapes = (
{
closed = 1;
nodes = (
(795,0,l),
(795,729,l),
(756,729,l),
(756,0,l)
);
},
{
closed = 1;
nodes = (
(148,0,l),
(148,729,l),
(109,729,l),
(109,0,l)
);
},
{
closed = 1;
nodes = (
(763,349,l),
(763,388,l),
(138,388,l),
(138,349,l)
);
}
);
width = 904;
},
{
anchors = (
{
name = bottom;
pos = (389,0);
},
{
name = center;
pos = (389,600);
},
{
name = top;
pos = (389,729);
},
{
name = topleft;
pos = (26,729);
}
);
layerId = "8B1B4E65-9831-4464-9A92-CA98D2219836";
shapes = (
{
closed = 1;
nodes = (
(713,0,l),
(713,729,l),
(501,729,l),
(501,0,l)
);
},
{
closed = 1;
nodes = (
(276,0,l),
(276,729,l),
(63,729,l),
(63,0,l)
);
},
{
closed = 1;
nodes = (
(517,279,l),
(517,459,l),
(260,459,l),
(260,279,l)
);
}
);
width = 776;
},
{
anchors = (
{
name = bottom;
pos = (346,0);
},
{
name = center;
pos = (451,600);
},
{
name = top;
pos = (474,729);
},
{
name = topleft;
pos = (111,729);
}
);
layerId = "2359B287-0F82-447F-8C68-59A72835D733";
shapes = (
{
closed = 1;
nodes = (
(671,0,l),
(799,729,l),
(584,729,l),
(456,0,l)
);
},
{
closed = 1;
nodes = (
(236,0,l),
(364,729,l),
(149,729,l),
(21,0,l)
);
},
{
closed = 1;
nodes = (
(523,279,l),
(554,459,l),
(299,459,l),
(268,279,l)
);
}
);
width = 788;
},
{
anchors = (
{
name = bottom;
pos = (486,0);
},
{
name = center;
pos = (486,598);
},
{
name = top;
pos = (486,729);
},
{
name = topleft;
pos = (35,729);
}
);
layerId = "46DCD09A-F85A-41B9-8FAA-640012B7D4F4";
shapes = (
{
closed = 1;
nodes = (
(907,0,l),
(907,729,l),
(663,729,l),
(663,0,l)
);
},
{
closed = 1;
nodes = (
(308,0,l),
(308,729,l),
(63,729,l),
(63,0,l)
);
},
{
closed = 1;
nodes = (
(679,277,l),
(679,463,l),
(292,463,l),
(292,277,l)
);
}
);
width = 970;
},
{
anchors = (
{
name = bottom;
pos = (419,0);
},
{
name = center;
pos = (524,598);
},
{
name = top;
pos = (551,729);
},
{
name = topleft;
pos = (118,729);
}
);
layerId = "0D69E86C-407B-4861-9815-978EE2313DB2";
shapes = (
{
closed = 1;
nodes = (
(823,0,l),
(952,729,l),
(713,729,l),
(585,0,l)
);
},
{
closed = 1;
nodes = (
(254,0,l),
(383,729,l),
(145,729,l),
(15,0,l)
);
},
{
closed = 1;
nodes = (
(650,278,l),
(682,462,l),
(319,462,l),
(288,278,l)
);
}
);
width = 934;
}
);
unicode = 72;
},
{
color = 6;
glyphname = I;
kernLeft = B;
lastChange = "2022-11-17 14:59:21 +0000";
layers = (
{
anchors = (
{
name = bottom;
pos = (104,0);
},
{
name = ogonek;
pos = (100,10);
},
{
name = top;
pos = (104,729);
},
{
name = topleft;
pos = (42,729);
}
);
layerId = "6932EABA-00D8-4526-96D6-87ADD7AC589E";
shapes = (
{
closed = 1;
nodes = (
(119,0,l),
(119,729,l),
(88,729,l),
(88,0,l)
);
}
);
width = 207;
},
{
anchors = (
{
name = bottom;
pos = (124,0);
},
{
name = ogonek;
pos = (133,10);
},
{
name = top;
pos = (124,729);
},
{
name = topleft;
pos = (35,729);
}
);
layerId = "E787E54A-EE3E-475A-BF02-8501A6DA5144";
shapes = (
{
closed = 1;
nodes = (
(213,0,l),
(213,729,l),
(35,729,l),
(35,0,l)
);
}
);
width = 247;
},
{
anchors = (
{
name = bottom;
pos = (154,0);
},
{
name = ogonek;
pos = (154,10);
},
{
name = top;
pos = (154,729);
},
{
name = topleft;
pos = (53,729);
}
);
layerId = "B743CB11-DC16-45F2-BA04-3635CB00F7DA";
shapes = (
{
closed = 1;
nodes = (
(173,0,l),
(173,729,l),
(134,729,l),
(134,0,l)
);
}
);
width = 307;
},
{
anchors = (
{
name = bottom;
pos = (77,0);
},
{
name = ogonek;
pos = (88,10);
},
{
name = top;
pos = (206,729);
},
{
name = topleft;
pos = (116,729);
}
);
layerId = "3257632A-050A-40C2-B21A-C728868BC46F";
shapes = (
{
closed = 1;
nodes = (
(166,0,l),
(294,729,l),
(116,729,l),
(-12,0,l)
);
}
);
width = 248;
},
{
anchors = (
{
name = bottom;
pos = (59,0);
},
{
name = ogonek;
pos = (56,10);
},
{
name = top;
pos = (187,729);
},
{
name = topleft;
pos = (125,729);
}
);
layerId = "84BE75FC-12C8-47E9-B302-5F6D56903923";
shapes = (
{
closed = 1;
nodes = (
(74,0,l),
(202,729,l),
(171,729,l),
(43,0,l)
);
}
);
width = 207;
},
{
anchors = (
{
name = bottom;
pos = (108,0);
},
{
name = ogonek;
pos = (107,10);
},
{
name = top;
pos = (236,729);
},
{
name = topleft;
pos = (136,729);
}
);
layerId = "33C7CA81-8DED-4513-9072-CA0E40765DD9";
shapes = (
{
closed = 1;
nodes = (
(126,0,l),
(255,729,l),
(218,729,l),
(89,0,l)
);
}
);
width = 306;
},
{
anchors = (
{
name = bottom;
pos = (85,0);
},
{
name = ogonek;
pos = (82,10);
},
{
name = top;
pos = (213,729);
},
{
name = topleft;
pos = (137,729);
}
);
layerId = "46C13DED-2BAB-471A-8D19-A1FA49A5501E";
shapes = (
{
closed = 1;
nodes = (
(104,0,l),
(234,729,l),
(193,729,l),
(64,0,l)
);
}
);
width = 260;
},
{
anchors = (
{
name = bottom;
pos = (129,0);
},
{
name = ogonek;
pos = (129,10);
},
{
name = top;
pos = (129,729);
},
{
name = topleft;
pos = (56,729);
}
);
layerId = "C1814757-B5F7-4D49-B715-04BFD84ECCF6";
shapes = (
{
closed = 1;
nodes = (
(148,0,l),
(148,729,l),
(109,729,l),
(109,0,l)
);
}
);
width = 257;
},
{
anchors = (
{
name = bottom;
pos = (170,0);
},
{
name = ogonek;
pos = (181,10);
},
{
name = top;
pos = (170,729);
},
{
name = topleft;
pos = (26,729);
}
);
layerId = "8B1B4E65-9831-4464-9A92-CA98D2219836";
shapes = (
{
closed = 1;
nodes = (
(276,0,l),
(276,729,l),
(63,729,l),
(63,0,l)
);
}
);
width = 339;
},
{
anchors = (
{
name = bottom;
pos = (128,0);
},
{
name = ogonek;
pos = (141,10);
},
{
name = top;
pos = (257,729);
},
{
name = topleft;
pos = (111,729);
}
);
layerId = "2359B287-0F82-447F-8C68-59A72835D733";
shapes = (
{
closed = 1;
nodes = (
(236,0,l),
(364,729,l),
(149,729,l),
(21,0,l)
);
}
);
width = 353;
},
{
anchors = (
{
name = bottom;
pos = (184,0);
},
{
name = ogonek;
pos = (197,10);
},
{
name = top;
pos = (184,729);
},
{
name = topleft;
pos = (38,729);
}
);
layerId = "46DCD09A-F85A-41B9-8FAA-640012B7D4F4";
shapes = (
{
closed = 1;
nodes = (
(308,0,l),
(308,729,l),
(63,729,l),
(63,0,l)
);
}
);
width = 371;
},
{
anchors = (
{
name = bottom;
pos = (136,0);
},
{
name = ogonek;
pos = (154,10);
},
{
name = top;
pos = (266,729);
},
{
name = topleft;
pos = (120,729);
}
);
layerId = "0D69E86C-407B-4861-9815-978EE2313DB2";
shapes = (
{
closed = 1;
nodes = (
(254,0,l),
(383,729,l),
(145,729,l),
(15,0,l)
);
}
);
width = 365;
}
);
metricLeft = H;
metricRight = H;
unicode = 73;
},
{
color = 6;
glyphname = J;
kernLeft = J;
kernRight = J;
lastChange = "2022-11-17 14:59:21 +0000";
layers = (
{
anchors = (
{
name = bottom;
pos = (132,0);
},
{
name = top;
pos = (132,729);
}
);
layerId = "6932EABA-00D8-4526-96D6-87ADD7AC589E";
shapes = (
{
closed = 1;
nodes = (
(149,0,ls),
(193,0,o),
(212,14,o),
(212,57,cs),
(212,729,l),
(181,729,l),
(181,28,l),
(27,28,l),
(27,0,l)
);
}
);
width = 300;
},
{
anchors = (
{
name = bottom;
pos = (143,0);
},
{
name = top;
pos = (205,729);
}
);
layerId = "E787E54A-EE3E-475A-BF02-8501A6DA5144";
shapes = (
{
closed = 1;
nodes = (
(156,0,ls),
(239,0,o),
(294,45,o),
(294,139,cs),
(294,729,l),
(116,729,l),
(116,146,l),
(11,146,l),
(11,0,l)
);
}
);
width = 328;
},
{
anchors = (
{
name = bottom;
pos = (211,0);
},
{
name = top;
pos = (300,729);
}
);
layerId = "B743CB11-DC16-45F2-BA04-3635CB00F7DA";
shapes = (
{
closed = 1;
nodes = (
(262,0,ls),
(296,0,o),
(319,18,o),
(319,55,cs),
(319,729,l),
(280,729,l),
(280,36,l),
(59,36,l),
(59,0,l)
);
}
);
width = 453;
},
{
anchors = (
{
name = bottom;
pos = (105,0);
},
{
name = top;
pos = (234,729);
}
);
layerId = "3257632A-050A-40C2-B21A-C728868BC46F";
shapes = (
{
closed = 1;
nodes = (
(109,0,ls),
(192,0,o),
(255,45,o),
(271,139,cs),
(375,729,l),
(197,729,l),
(94,146,l),
(-11,146,l),
(-36,0,l)
);
}
);
width = 328;
},
{
anchors = (
{
name = bottom;
pos = (87,0);
},
{
name = top;
pos = (215,729);
}
);
layerId = "84BE75FC-12C8-47E9-B302-5F6D56903923";
shapes = (
{
closed = 1;
nodes = (
(104,0,ls),
(148,0,o),
(169,14,o),
(177,57,cs),
(295,729,l),
(264,729,l),
(141,28,l),
(-13,28,l),
(-18,0,l)
);
}
);
width = 300;
},
{
anchors = (
{
name = bottom;
pos = (170,0);
},
{
name = top;
pos = (298,729);
}
);
layerId = "33C7CA81-8DED-4513-9072-CA0E40765DD9";
shapes = (
{
closed = 1;
nodes = (
(218,0,ls),
(255,0,o),
(284,15,o),
(291,56,cs),
(410,729,l),
(373,729,l),
(250,35,l),
(20,35,l),
(14,0,l)
);
}
);
width = 461;
},
{
anchors = (
{
name = bottom;
pos = (153,0);
},
{
name = top;
pos = (281,729);
}
);
layerId = "46C13DED-2BAB-471A-8D19-A1FA49A5501E";
shapes = (
{
closed = 1;
nodes = (
(220,0,ls),
(255,0,o),
(288,16,o),
(295,55,cs),
(414,729,l),
(376,729,l),
(253,37,l),
(-21,37,l),
(-27,0,l)
);
}
);
width = 440;
},
{
anchors = (
{
name = bottom;
pos = (190,0);
},
{
name = top;
pos = (190,729);
}
);
layerId = "C1814757-B5F7-4D49-B715-04BFD84ECCF6";
shapes = (
{
closed = 1;
nodes = (
(256,0,ls),
(292,0,o),
(320,18,o),
(320,55,cs),
(320,729,l),
(279,729,l),
(279,38,l),
(18,38,l),
(18,0,l)
);
}
);
width = 429;
},
{
anchors = (
{
name = bottom;
pos = (213,0);
},
{
name = top;
pos = (213,729);
}
);
layerId = "8B1B4E65-9831-4464-9A92-CA98D2219836";
shapes = (
{
closed = 1;
nodes = (
(227,0,ls),
(325,0,o),
(391,53,o),
(391,165,cs),
(391,729,l),
(179,729,l),
(179,182,l),
(26,182,l),
(26,0,l)
);
}
);
width = 454;
},
{
anchors = (
{
name = bottom;
pos = (155,0);
},
{
name = top;
pos = (284,729);
}
);
layerId = "2359B287-0F82-447F-8C68-59A72835D733";
shapes = (
{
closed = 1;
nodes = (
(168,0,ls),
(269,0,o),
(343,50,o),
(362,155,cs),
(464,729,l),
(249,729,l),
(152,180,l),
(-1,180,l),
(-31,0,l)
);
}
);
width = 453;
},
{
anchors = (
{
name = bottom;
pos = (254,0);
},
{
name = top;
pos = (248,729);
}
);
layerId = "46DCD09A-F85A-41B9-8FAA-640012B7D4F4";
shapes = (
{
closed = 1;
nodes = (
(273,0,ls),
(386,0,o),
(464,55,o),
(464,169,cs),
(464,729,l),
(220,729,l),
(220,188,l),
(17,188,l),
(17,0,l)
);
}
);
width = 527;
},
{
anchors = (
{
name = bottom;
pos = (195,0);
},
{
name = top;
pos = (328,729);
}
);
layerId = "0D69E86C-407B-4861-9815-978EE2313DB2";
shapes = (
{
closed = 1;
nodes = (
(215,0,ls),
(332,0,o),
(412,59,o),
(431,166,cs),
(529,729,l),
(292,729,l),
(197,184,l),
(2,184,l),
(-31,0,l)
);
}
);
width = 512;
}
);
metricRight = H;
unicode = 74;
},
{
color = 6;
glyphname = K;
kernLeft = B;
kernRight = K;
lastChange = "2022-11-17 14:59:21 +0000";
layers = (
{
anchors = (
{
name = bottom;
pos = (225,0);
},
{
name = top;
pos = (225,729);
}
);
layerId = "6932EABA-00D8-4526-96D6-87ADD7AC589E";
shapes = (
{
closed = 1;
nodes = (
(119,0,l),
(119,254,l),
(206,392,l),
(380,0,l),
(415,0,l),
(218,440,l),
(218,407,l),
(413,729,l),
(378,729,l),
(119,302,l),
(119,729,l),
(88,729,l),
(88,0,l)
);
}
);
width = 439;
},
{
anchors = (
{
name = bottom;
pos = (287,0);
},
{
name = top;
pos = (287,729);
}
);
layerId = "E787E54A-EE3E-475A-BF02-8501A6DA5144";
shapes = (
{
closed = 1;
nodes = (
(213,0,l),
(213,172,l),
(254,262,l),
(354,0,l),
(548,0,l),
(362,438,l),
(362,389,l),
(537,729,l),
(344,729,l),
(213,431,l),
(213,729,l),
(35,729,l),
(35,0,l)
);
}
);
width = 561;
},
{
anchors = (
{
name = bottom;
pos = (368,0);
},
{
name = top;
pos = (368,729);
}
);
background = {
shapes = (
{
closed = 1;
nodes = (
(173,0,l),
(173,161,l),
(355,375,l),
(618,0,l),
(666,0,l),
(381,405,l),
(656,729,l),
(608,729,l),
(173,215,l),
(173,729,l),
(134,729,l),
(134,0,l)
);
}
);
};
layerId = "B743CB11-DC16-45F2-BA04-3635CB00F7DA";
shapes = (
{
closed = 1;
nodes = (
(173,0,l),
(173,215,l),
(339,390,l),
(618,0,l),
(666,0,l),
(357,432,l),
(357,408,l),
(656,729,l),
(608,729,l),
(173,265,l),
(173,729,l),
(134,729,l),
(134,0,l)
);
}
);
width = 712;
},
{
anchors = (
{
name = bottom;
pos = (239,0);
},
{
name = top;
pos = (368,729);
}
);
layerId = "3257632A-050A-40C2-B21A-C728868BC46F";
shapes = (
{
closed = 1;
nodes = (
(166,0,l),
(196,172,l),
(258,271,l),
(317,0,l),
(501,0,l),
(386,451,l),
(377,386,l),
(618,729,l),
(415,729,l),
(244,445,l),
(294,729,l),
(116,729,l),
(-12,0,l)
);
}
);
width = 562;
},
{
anchors = (
{
name = bottom;
pos = (172,0);
},
{
name = top;
pos = (300,729);
}
);
layerId = "84BE75FC-12C8-47E9-B302-5F6D56903923";
shapes = (
{
closed = 1;
nodes = (
(75,0,l),
(118,243,l),
(235,398,l),
(322,0,l),
(354,0,l),
(256,445,l),
(251,422,l),
(481,729,l),
(444,729,l),
(129,304,l),
(204,729,l),
(173,729,l),
(43,0,l)
);
}
);
width = 423;
},
{
anchors = (
{
name = bottom;
pos = (324,0);
},
{
name = top;
pos = (452,729);
}
);
background = {
shapes = (
{
closed = 1;
nodes = (
(126,0,l),
(157,175,l),
(379,381,l),
(577,0,l),
(623,0,l),
(407,410,l),
(742,729,l),
(688,729,l),
(167,231,l),
(254,729,l),
(217,729,l),
(89,0,l)
);
}
);
};
layerId = "33C7CA81-8DED-4513-9072-CA0E40765DD9";
shapes = (
{
closed = 1;
nodes = (
(126,0,l),
(167,232,l),
(367,405,l),
(577,0,l),
(623,0,l),
(389,444,l),
(385,422,l),
(742,729,l),
(688,729,l),
(177,288,l),
(254,729,l),
(217,729,l),
(89,0,l)
);
}
);
width = 714;
},
{
anchors = (
{
name = bottom;
pos = (336,0);
},
{
name = top;
pos = (464,729);
}
);
layerId = "46C13DED-2BAB-471A-8D19-A1FA49A5501E";
shapes = (
{
closed = 1;
nodes = (
(103,0,l),
(130,154,l),
(395,377,l),
(640,0,l),
(687,0,l),
(408,426,l),
(403,387,l),
(804,729,l),
(746,729,l),
(139,208,l),
(231,729,l),
(192,729,l),
(64,0,l)
);
}
);
width = 728;
},
{
anchors = (
{
name = bottom;
pos = (382,0);
},
{
name = top;
pos = (382,729);
}
);
background = {
shapes = (
{
closed = 1;
nodes = (
(148,0,l),
(148,144,l),
(371,372,l),
(680,0,l),
(735,0,l),
(400,402,l),
(723,729,l),
(667,729,l),
(148,195,l),
(148,729,l),
(109,729,l),
(109,0,l)
);
}
);
};
layerId = "C1814757-B5F7-4D49-B715-04BFD84ECCF6";
shapes = (
{
closed = 1;
nodes = (
(148,0,l),
(148,144,l),
(373,374,l),
(684,0,l),
(735,0,l),
(390,414,l),
(390,392,l),
(721,729,l),
(669,729,l),
(148,195,l),
(148,729,l),
(109,729,l),
(109,0,l)
);
}
);
width = 741;
},
{
anchors = (
{
name = bottom;
pos = (383,0);
},
{
name = top;
pos = (383,729);
}
);
layerId = "8B1B4E65-9831-4464-9A92-CA98D2219836";
shapes = (
{
closed = 1;
nodes = (
(276,0,l),
(276,180,l),
(345,257,l),
(503,0,l),
(761,0,l),
(472,456,l),
(472,393,l),
(751,729,l),
(490,729,l),
(276,440,l),
(276,729,l),
(63,729,l),
(63,0,l)
);
}
);
width = 764;
},
{
anchors = (
{
name = bottom;
pos = (339,0);
},
{
name = top;
pos = (468,729);
}
);
layerId = "2359B287-0F82-447F-8C68-59A72835D733";
shapes = (
{
closed = 1;
nodes = (
(236,0,l),
(266,177,l),
(364,274,l),
(479,0,l),
(716,0,l),
(514,443,l),
(508,399,l),
(833,729,l),
(568,729,l),
(313,441,l),
(364,729,l),
(149,729,l),
(21,0,l)
);
}
);
width = 767;
},
{
anchors = (
{
name = bottom;
pos = (456,0);
},
{
name = top;
pos = (456,729);
}
);
layerId = "46DCD09A-F85A-41B9-8FAA-640012B7D4F4";
shapes = (
{
closed = 1;
nodes = (
(308,0,l),
(308,183,l),
(406,262,l),
(605,0,l),
(904,0,l),
(554,446,l),
(554,404,l),
(893,729,l),
(589,729,l),
(308,440,l),
(308,729,l),
(63,729,l),
(63,0,l)
);
}
);
width = 897;
},
{
anchors = (
{
name = bottom;
pos = (394,0);
},
{
name = top;
pos = (524,729);
}
);
layerId = "0D69E86C-407B-4861-9815-978EE2313DB2";
shapes = (
{
closed = 1;
nodes = (
(254,0,l),
(285,182,l),
(406,272,l),
(559,0,l),
(827,0,l),
(569,447,l),
(561,400,l),
(945,729,l),
(642,729,l),
(333,448,l),
(383,729,l),
(145,729,l),
(15,0,l)
);
}
);
width = 856;
}
);
metricLeft = H;
unicode = 75;
},
{
color = 6;
glyphname = L;
kernLeft = B;
kernRight = L;
lastChange = "2022-11-17 14:59:21 +0000";
layers = (
{
anchors = (
{
name = bottom;
pos = (206,0);
},
{
name = center;
pos = (184,365);
},
{
name = top;
pos = (104,729);
},
{
name = topright;
pos = (325,729);
}
);
layerId = "6932EABA-00D8-4526-96D6-87ADD7AC589E";
shapes = (
{
closed = 1;
nodes = (
(323,0,l),
(323,28,l),
(112,28,l),
(119,21,l),
(119,729,l),
(88,729,l),
(88,0,l)
);
}
);
width = 330;
},
{
anchors = (
{
name = bottom;
pos = (198,0);
},
{
name = center;
pos = (193,365);
},
{
name = top;
pos = (124,729);
},
{
name = topright;
pos = (350,729);
}
);
layerId = "E787E54A-EE3E-475A-BF02-8501A6DA5144";
shapes = (
{
closed = 1;
nodes = (
(360,0,l),
(360,146,l),
(161,146,l),
(213,94,l),
(213,729,l),
(35,729,l),
(35,0,l)
);
}
);
width = 375;
},
{
anchors = (
{
name = bottom;
pos = (361,0);
},
{
name = center;
pos = (336,365);
},
{
name = top;
pos = (154,729);
},
{
name = topright;
pos = (619,729);
}
);
layerId = "B743CB11-DC16-45F2-BA04-3635CB00F7DA";
shapes = (
{
closed = 1;
nodes = (
(588,0,l),
(588,37,l),
(146,37,l),
(173,10,l),
(173,729,l),
(134,729,l),
(134,0,l)
);
}
);
width = 661;
},
{
anchors = (
{
name = bottom;
pos = (145,0);
},
{
name = center;
pos = (209,365);
},
{
name = top;
pos = (205,729);
},
{
name = topright;
pos = (432,729);
}
);
layerId = "3257632A-050A-40C2-B21A-C728868BC46F";
shapes = (
{
closed = 1;
nodes = (
(313,0,l),
(338,146,l),
(160,146,l),
(186,117,l),
(294,729,l),
(116,729,l),
(-12,0,l)
);
}
);
width = 376;
},
{
anchors = (
{
name = bottom;
pos = (161,0);
},
{
name = center;
pos = (203,365);
},
{
name = top;
pos = (187,729);
},
{
name = topright;
pos = (408,729);
}
);
layerId = "84BE75FC-12C8-47E9-B302-5F6D56903923";
shapes = (
{
closed = 1;
nodes = (
(278,0,l),
(283,28,l),
(70,28,l),
(77,17,l),
(202,729,l),
(171,729,l),
(43,0,l)
);
}
);
width = 330;
},
{
anchors = (
{
name = bottom;
pos = (314,0);
},
{
name = center;
pos = (353,365);
},
{
name = top;
pos = (237,729);
},
{
name = topright;
pos = (698,729);
}
);
layerId = "33C7CA81-8DED-4513-9072-CA0E40765DD9";
shapes = (
{
closed = 1;
nodes = (
(539,0,l),
(545,36,l),
(117,36,l),
(130,21,l),
(255,729,l),
(218,729,l),
(89,0,l)
);
}
);
width = 657;
},
{
anchors = (
{
name = bottom;
pos = (333,0);
},
{
name = center;
pos = (361,365);
},
{
name = top;
pos = (214,729);
},
{
name = topright;
pos = (716,729);
}
);
layerId = "46C13DED-2BAB-471A-8D19-A1FA49A5501E";
shapes = (
{
closed = 1;
nodes = (
(601,0,l),
(608,38,l),
(97,38,l),
(108,25,l),
(233,729,l),
(193,729,l),
(64,0,l)
);
}
);
width = 655;
},
{
anchors = (
{
name = bottom;
pos = (380,0);
},
{
name = center;
pos = (344,365);
},
{
name = top;
pos = (129,729);
},
{
name = topright;
pos = (633,729);
}
);
layerId = "C1814757-B5F7-4D49-B715-04BFD84ECCF6";
shapes = (
{
closed = 1;
nodes = (
(651,0,l),
(651,39,l),
(121,39,l),
(148,12,l),
(148,729,l),
(109,729,l),
(109,0,l)
);
}
);
width = 659;
},
{
anchors = (
{
name = bottom;
pos = (322,0);
},
{
name = center;
pos = (297,365);
},
{
name = top;
pos = (170,729);
},
{
name = topright;
pos = (567,729);
}
);
layerId = "8B1B4E65-9831-4464-9A92-CA98D2219836";
shapes = (
{
closed = 1;
nodes = (
(590,0,l),
(590,187,l),
(240,187,l),
(276,151,l),
(276,729,l),
(63,729,l),
(63,0,l)
);
}
);
width = 616;
},
{
anchors = (
{
name = bottom;
pos = (271,0);
},
{
name = center;
pos = (310,365);
},
{
name = top;
pos = (257,729);
},
{
name = topright;
pos = (639,729);
}
);
layerId = "2359B287-0F82-447F-8C68-59A72835D733";
shapes = (
{
closed = 1;
nodes = (
(532,0,l),
(562,180,l),
(231,180,l),
(261,149,l),
(364,729,l),
(149,729,l),
(21,0,l)
);
}
);
width = 588;
},
{
anchors = (
{
name = bottom;
pos = (385,0);
},
{
name = center;
pos = (368,365);
},
{
name = top;
pos = (184,729);
},
{
name = topright;
pos = (699,729);
}
);
layerId = "46DCD09A-F85A-41B9-8FAA-640012B7D4F4";
shapes = (
{
closed = 1;
nodes = (
(693,0,l),
(693,192,l),
(273,192,l),
(308,157,l),
(308,729,l),
(63,729,l),
(63,0,l)
);
}
);
width = 714;
},
{
anchors = (
{
name = bottom;
pos = (322,0);
},
{
name = center;
pos = (369,365);
},
{
name = top;
pos = (266,729);
},
{
name = topright;
pos = (752,729);
}
);
layerId = "0D69E86C-407B-4861-9815-978EE2313DB2";
shapes = (
{
closed = 1;
nodes = (
(628,0,l),
(660,190,l),
(250,190,l),
(282,156,l),
(383,729,l),
(145,729,l),
(15,0,l)
);
}
);
width = 697;
}
);
metricLeft = H;
unicode = 76;
},
{
color = 3;
glyphname = Lslash;
kernLeft = B;
kernRight = L;
lastChange = "2022-11-17 14:59:21 +0000";
layers = (
{
layerId = "6932EABA-00D8-4526-96D6-87ADD7AC589E";
shapes = (
{
closed = 1;
nodes = (
(207,400,l),
(207,430,l),
(27,330,l),
(27,300,l)
);
},
{
ref = L;
}
);
width = 330;
},
{
layerId = "E787E54A-EE3E-475A-BF02-8501A6DA5144";
shapes = (
{
closed = 1;
nodes = (
(259,336,l),
(259,476,l),
(3,394,l),
(3,254,l)
);
},
{
ref = L;
}
);
width = 375;
},
{
layerId = "B743CB11-DC16-45F2-BA04-3635CB00F7DA";
shapes = (
{
closed = 1;
nodes = (
(318,430,l),
(318,467,l),
(37,333,l),
(37,296,l)
);
},
{
ref = L;
}
);
width = 661;
},
{
layerId = "84BE75FC-12C8-47E9-B302-5F6D56903923";
shapes = (
{
closed = 1;
nodes = (
(232,400,l),
(237,430,l),
(40,330,l),
(35,300,l)
);
},
{
ref = L;
}
);
width = 330;
},
{
layerId = "3257632A-050A-40C2-B21A-C728868BC46F";
shapes = (
{
closed = 1;
nodes = (
(271,336,l),
(296,476,l),
(25,394,l),
(0,254,l)
);
},
{
ref = L;
}
);
width = 376;
},
{
layerId = "33C7CA81-8DED-4513-9072-CA0E40765DD9";
shapes = (
{
closed = 1;
nodes = (
(349,430,l),
(355,467,l),
(50,333,l),
(44,296,l)
);
},
{
ref = L;
}
);
width = 657;
},
{
layerId = "46C13DED-2BAB-471A-8D19-A1FA49A5501E";
shapes = (
{
closed = 1;
nodes = (
(336,430,l),
(342,467,l),
(37,333,l),
(31,296,l)
);
},
{
ref = L;
}
);
width = 655;
},
{
layerId = "C1814757-B5F7-4D49-B715-04BFD84ECCF6";
shapes = (
{
closed = 1;
nodes = (
(312,432,l),
(312,469,l),
(24,333,l),
(24,296,l)
);
},
{
ref = L;
}
);
width = 659;
},
{
layerId = "8B1B4E65-9831-4464-9A92-CA98D2219836";
shapes = (
{
closed = 1;
nodes = (
(421,353,l),
(421,499,l),
(5,408,l),
(5,262,l)
);
},
{
ref = L;
}
);
width = 616;
},
{
layerId = "2359B287-0F82-447F-8C68-59A72835D733";
shapes = (
{
closed = 1;
nodes = (
(436,353,l),
(462,499,l),
(29,408,l),
(3,262,l)
);
},
{
ref = L;
}
);
width = 588;
},
{
layerId = "46DCD09A-F85A-41B9-8FAA-640012B7D4F4";
shapes = (
{
closed = 1;
nodes = (
(427,356,l),
(427,500,l),
(-4,409,l),
(-4,263,l)
);
},
{
alignment = -1;
ref = L;
}
);
width = 714;
},
{
layerId = "0D69E86C-407B-4861-9815-978EE2313DB2";
shapes = (
{
closed = 1;
nodes = (
(432,353,l),
(457,500,l),
(21,408,l),
(-6,263,l)
);
},
{
alignment = -1;
ref = L;
}
);
width = 697;
}
);
unicode = 321;
},
{
color = 6;
glyphname = M;
kernLeft = B;
lastChange = "2022-11-17 14:59:21 +0000";
layers = (
{
anchors = (
{
name = bottom;
pos = (278,0);
},
{
name = top;
pos = (278,729);
}
);
layerId = "6932EABA-00D8-4526-96D6-87ADD7AC589E";
shapes = (
{
closed = 1;
nodes = (
(118,0,l),
(118,665,l),
(117,696,l),
(121,696,l),
(126,666,l),
(254,0,l),
(302,0,l),
(430,666,l),
(435,696,l),
(438,696,l),
(437,665,l),
(437,0,l),
(467,0,l),
(467,729,l),
(414,729,l),
(280,32,l),
(276,32,l),
(142,729,l),
(88,729,l),
(88,0,l)
);
}
);
width = 555;
},
{
anchors = (
{
name = bottom;
pos = (349,0);
},
{
name = top;
pos = (349,729);
}
);
layerId = "E787E54A-EE3E-475A-BF02-8501A6DA5144";
shapes = (
{
closed = 1;
nodes = (
(192,0,l),
(192,459,l),
(190,541,l),
(195,541,l),
(206,461,l),
(281,0,l),
(417,0,l),
(491,460,l),
(503,541,l),
(508,541,l),
(505,459,l),
(506,0,l),
(663,0,l),
(663,729,l),
(402,729,l),
(344,319,l),
(361,319,l),
(301,729,l),
(35,729,l),
(35,0,l)
);
}
);
width = 697;
},
{
anchors = (
{
name = bottom;
pos = (477,0);
},
{
name = top;
pos = (477,729);
}
);
guides = (
{
pos = (172,653);
}
);
layerId = "B743CB11-DC16-45F2-BA04-3635CB00F7DA";
shapes = (
{
closed = 1;
nodes = (
(173,0,l),
(172,653,l),
(172,683,l),
(178,683,l),
(190,653,l),
(452,0,l),
(502,0,l),
(764,654,l),
(776,683,l),
(781,683,l),
(781,653,l),
(781,0,l),
(820,0,l),
(820,729,l),
(755,729,l),
(479,38,l),
(475,38,l),
(199,729,l),
(134,729,l),
(134,0,l)
);
}
);
width = 954;
},
{
anchors = (
{
name = bottom;
pos = (302,0);
},
{
name = top;
pos = (431,729);
}
);
layerId = "3257632A-050A-40C2-B21A-C728868BC46F";
shapes = (
{
closed = 1;
nodes = (
(155,0,l),
(230,429,l),
(243,511,l),
(248,511,l),
(245,431,l),
(234,0,l),
(370,0,l),
(510,430,l),
(536,511,l),
(541,511,l),
(524,429,l),
(449,0,l),
(616,0,l),
(744,729,l),
(483,729,l),
(363,319,l),
(360,319,l),
(382,729,l),
(116,729,l),
(-12,0,l)
);
}
);
width = 698;
},
{
anchors = (
{
name = bottom;
pos = (234,0);
},
{
name = top;
pos = (362,729);
}
);
layerId = "84BE75FC-12C8-47E9-B302-5F6D56903923";
shapes = (
{
closed = 1;
nodes = (
(74,0,l),
(191,665,l),
(195,696,l),
(199,696,l),
(199,666,l),
(210,0,l),
(258,0,l),
(503,666,l),
(513,696,l),
(516,696,l),
(510,665,l),
(393,0,l),
(424,0,l),
(552,729,l),
(497,729,l),
(241,32,l),
(237,32,l),
(227,729,l),
(171,729,l),
(43,0,l)
);
}
);
width = 557;
},
{
anchors = (
{
name = bottom;
pos = (432,0);
},
{
name = top;
pos = (560,729);
}
);
layerId = "33C7CA81-8DED-4513-9072-CA0E40765DD9";
shapes = (
{
closed = 1;
nodes = (
(126,0,l),
(239,639,l),
(246,685,l),
(251,685,l),
(261,645,l),
(412,0,l),
(454,0,l),
(830,649,l),
(853,688,l),
(857,688,l),
(848,639,l),
(736,0,l),
(773,0,l),
(902,729,l),
(835,729,l),
(441,49,l),
(437,49,l),
(279,729,l),
(218,729,l),
(89,0,l)
);
}
);
width = 953;
},
{
anchors = (
{
name = bottom;
pos = (464,0);
},
{
name = top;
pos = (592,729);
}
);
layerId = "46C13DED-2BAB-471A-8D19-A1FA49A5501E";
shapes = (
{
closed = 1;
nodes = (
(104,0,l),
(217,644,l),
(224,682,l),
(229,682,l),
(240,648,l),
(446,0,l),
(487,0,l),
(918,652,l),
(940,686,l),
(944,686,l),
(937,648,l),
(823,0,l),
(863,0,l),
(992,729,l),
(922,729,l),
(475,53,l),
(471,53,l),
(257,729,l),
(193,729,l),
(64,0,l)
);
}
);
width = 1018;
},
{
anchors = (
{
name = bottom;
pos = (515,0);
},
{
name = top;
pos = (515,729);
}
);
layerId = "C1814757-B5F7-4D49-B715-04BFD84ECCF6";
shapes = (
{
closed = 1;
nodes = (
(148,0,l),
(148,672,l),
(148,693,l),
(154,693,l),
(166,672,l),
(496,0,l),
(535,0,l),
(866,672,l),
(878,695,l),
(883,695,l),
(883,671,l),
(883,0,l),
(922,0,l),
(922,729,l),
(852,729,l),
(517,50,l),
(513,50,l),
(179,729,l),
(109,729,l),
(109,0,l)
);
}
);
width = 1031;
},
{
anchors = (
{
name = bottom;
pos = (487,0);
},
{
name = top;
pos = (487,729);
}
);
background = {
shapes = (
{
closed = 1;
nodes = (
(281,0,l),
(281,435,l),
(281,498,l),
(289,498,l),
(302,436,l),
(390,0,l),
(580,0,l),
(668,436,l),
(681,498,l),
(689,498,l),
(689,436,l),
(689,0,l),
(894,0,l),
(894,729,l),
(570,729,l),
(486,287,l),
(479,287,l),
(392,729,l),
(78,729,l),
(78,0,l)
);
}
);
};
layerId = "8B1B4E65-9831-4464-9A92-CA98D2219836";
shapes = (
{
closed = 1;
nodes = (
(266,0,l),
(266,435,l),
(266,498,l),
(274,498,l),
(287,436,l),
(390,0,l),
(580,0,l),
(683,436,l),
(696,498,l),
(704,498,l),
(704,436,l),
(704,0,l),
(909,0,l),
(909,729,l),
(585,729,l),
(486,287,l),
(479,287,l),
(377,729,l),
(63,729,l),
(63,0,l)
);
}
);
width = 972;
},
{
anchors = (
{
name = bottom;
pos = (444,0);
},
{
name = top;
pos = (573,729);
}
);
background = {
shapes = (
{
closed = 1;
nodes = (
(239,0,l),
(316,436,l),
(326,498,l),
(334,498,l),
(337,437,l),
(347,0,l),
(538,0,l),
(703,437,l),
(726,498,l),
(734,498,l),
(724,437,l),
(647,0,l),
(852,0,l),
(980,729,l),
(656,729,l),
(494,287,l),
(488,287,l),
(478,729,l),
(164,729,l),
(36,0,l)
);
}
);
};
layerId = "2359B287-0F82-447F-8C68-59A72835D733";
shapes = (
{
closed = 1;
nodes = (
(224,0,l),
(301,436,l),
(310,498,l),
(319,498,l),
(323,437,l),
(347,0,l),
(538,0,l),
(718,437,l),
(741,498,l),
(749,498,l),
(739,437,l),
(662,0,l),
(867,0,l),
(995,729,l),
(671,729,l),
(494,287,l),
(488,287,l),
(463,729,l),
(149,729,l),
(21,0,l)
);
}
);
width = 984;
},
{
anchors = (
{
name = bottom;
pos = (560,0);
},
{
name = top;
pos = (560,729);
}
);
layerId = "46DCD09A-F85A-41B9-8FAA-640012B7D4F4";
shapes = (
{
closed = 1;
nodes = (
(292,0,l),
(292,503,l),
(293,526,l),
(304,526,l),
(310,503,l),
(447,0,l),
(671,0,l),
(804,502,l),
(811,526,l),
(821,526,l),
(822,502,l),
(822,0,l),
(1053,0,l),
(1053,729,l),
(684,729,l),
(560,281,l),
(554,281,l),
(442,729,l),
(63,729,l),
(63,0,l)
);
}
);
width = 1116;
},
{
anchors = (
{
name = bottom;
pos = (491,0);
},
{
name = top;
pos = (620,729);
}
);
layerId = "0D69E86C-407B-4861-9815-978EE2313DB2";
shapes = (
{
closed = 1;
nodes = (
(242,0,l),
(326,470,l),
(335,521,l),
(344,521,l),
(349,471,l),
(385,0,l),
(601,0,l),
(806,475,l),
(827,521,l),
(837,521,l),
(828,473,l),
(744,0,l),
(970,0,l),
(1101,729,l),
(731,729,l),
(544,285,l),
(537,285,l),
(508,729,l),
(145,729,l),
(15,0,l)
);
}
);
width = 1083;
}
);
metricLeft = H;
metricRight = H;
unicode = 77;
},
{
color = 6;
glyphname = N;
kernLeft = B;
lastChange = "2022-11-17 14:59:21 +0000";
layers = (
{
anchors = (
{
name = bottom;
pos = (240,0);
},
{
name = top;
pos = (240,729);
}
);
layerId = "6932EABA-00D8-4526-96D6-87ADD7AC589E";
shapes = (
{
closed = 1;
nodes = (
(118,0,l),
(118,690,l),
(121,690,l),
(129,664,l),
(341,0,l),
(392,0,l),
(392,729,l),
(362,729,l),
(362,42,l),
(358,42,l),
(352,62,l),
(139,729,l),
(88,729,l),
(88,0,l)
);
}
);
width = 480;
},
{
anchors = (
{
name = bottom;
pos = (270,0);
},
{
name = top;
pos = (270,729);
}
);
layerId = "E787E54A-EE3E-475A-BF02-8501A6DA5144";
shapes = (
{
closed = 1;
nodes = (
(201,0,l),
(201,365,l),
(207,365,l),
(215,323,l),
(300,0,l),
(506,0,l),
(506,729,l),
(340,729,l),
(340,354,l),
(333,354,l),
(322,411,l),
(240,729,l),
(35,729,l),
(35,0,l)
);
}
);
width = 540;
},
{
anchors = (
{
name = bottom;
pos = (417,0);
},
{
name = top;
pos = (417,729);
}
);
layerId = "B743CB11-DC16-45F2-BA04-3635CB00F7DA";
shapes = (
{
closed = 1;
nodes = (
(173,0,l),
(173,678,l),
(178,678,l),
(194,651,l),
(648,0,l),
(700,0,l),
(700,729,l),
(661,729,l),
(661,50,l),
(656,50,l),
(638,80,l),
(184,729,l),
(134,729,l),
(134,0,l)
);
}
);
width = 834;
},
{
anchors = (
{
name = bottom;
pos = (223,0);
},
{
name = top;
pos = (352,729);
}
);
layerId = "3257632A-050A-40C2-B21A-C728868BC46F";
shapes = (
{
closed = 1;
nodes = (
(154,0,l),
(217,359,l),
(223,359,l),
(227,323,l),
(253,0,l),
(459,0,l),
(587,729,l),
(421,729,l),
(356,359,l),
(349,359,l),
(345,411,l),
(321,729,l),
(116,729,l),
(-12,0,l)
);
}
);
width = 541;
},
{
anchors = (
{
name = bottom;
pos = (196,0);
},
{
name = top;
pos = (324,729);
}
);
layerId = "84BE75FC-12C8-47E9-B302-5F6D56903923";
shapes = (
{
closed = 1;
nodes = (
(74,0,l),
(194,686,l),
(197,686,l),
(201,658,l),
(299,0,l),
(349,0,l),
(477,729,l),
(446,729,l),
(326,46,l),
(323,46,l),
(320,68,l),
(222,729,l),
(171,729,l),
(43,0,l)
);
}
);
width = 482;
},
{
anchors = (
{
name = bottom;
pos = (371,0);
},
{
name = top;
pos = (499,729);
}
);
layerId = "33C7CA81-8DED-4513-9072-CA0E40765DD9";
shapes = (
{
closed = 1;
nodes = (
(126,0,l),
(247,684,l),
(251,684,l),
(266,654,l),
(601,0,l),
(651,0,l),
(779,729,l),
(743,729,l),
(622,44,l),
(618,44,l),
(603,74,l),
(268,729,l),
(218,729,l),
(89,0,l)
);
}
);
width = 830;
},
{
anchors = (
{
name = bottom;
pos = (396,0);
},
{
name = top;
pos = (524,729);
}
);
layerId = "46C13DED-2BAB-471A-8D19-A1FA49A5501E";
shapes = (
{
closed = 1;
nodes = (
(104,0,l),
(224,682,l),
(229,682,l),
(258,634,l),
(677,0,l),
(727,0,l),
(856,729,l),
(817,729,l),
(697,46,l),
(692,46,l),
(661,94,l),
(242,729,l),
(193,729,l),
(64,0,l)
);
}
);
width = 882;
},
{
anchors = (
{
name = bottom;
pos = (446,0);
},
{
name = top;
pos = (446,729);
}
);
layerId = "C1814757-B5F7-4D49-B715-04BFD84ECCF6";
shapes = (
{
closed = 1;
nodes = (
(148,0,l),
(148,687,l),
(151,687,l),
(179,649,l),
(724,0,l),
(781,0,l),
(781,729,l),
(742,729,l),
(742,41,l),
(740,41,l),
(713,77,l),
(164,729,l),
(109,729,l),
(109,0,l)
);
}
);
width = 890;
},
{
anchors = (
{
name = bottom;
pos = (400,0);
},
{
name = top;
pos = (400,729);
}
);
background = {
shapes = (
{
closed = 1;
nodes = (
(276,0,l),
(276,279,l),
(501,279,l),
(501,0,l),
(713,0,l),
(713,729,l),
(501,729,l),
(501,459,l),
(276,459,l),
(276,729,l),
(63,729,l),
(63,0,l)
);
}
);
};
layerId = "8B1B4E65-9831-4464-9A92-CA98D2219836";
shapes = (
{
closed = 1;
nodes = (
(266,0,l),
(266,411,l),
(271,411,l),
(282,388,l),
(463,0,l),
(716,0,l),
(716,729,l),
(513,729,l),
(513,319,l),
(508,319,l),
(495,350,l),
(335,729,l),
(63,729,l),
(63,0,l)
);
}
);
width = 779;
},
{
anchors = (
{
name = bottom;
pos = (343,0);
},
{
name = top;
pos = (472,729);
}
);
layerId = "2359B287-0F82-447F-8C68-59A72835D733";
shapes = (
{
closed = 1;
nodes = (
(218,0,l),
(295,446,l),
(304,446,l),
(313,399,l),
(394,0,l),
(666,0,l),
(794,729,l),
(598,729,l),
(520,288,l),
(512,288,l),
(504,320,l),
(419,729,l),
(149,729,l),
(21,0,l)
);
}
);
width = 783;
},
{
anchors = (
{
name = bottom;
pos = (456,0);
},
{
name = top;
pos = (456,729);
}
);
layerId = "46DCD09A-F85A-41B9-8FAA-640012B7D4F4";
shapes = (
{
closed = 1;
nodes = (
(297,0,l),
(297,410,l),
(306,410,l),
(327,376,l),
(551,0,l),
(846,0,l),
(846,729,l),
(611,729,l),
(611,341,l),
(602,341,l),
(588,361,l),
(383,729,l),
(63,729,l),
(63,0,l)
);
}
);
width = 909;
},
{
anchors = (
{
name = bottom;
pos = (394,0);
},
{
name = top;
pos = (523,729);
}
);
layerId = "0D69E86C-407B-4861-9815-978EE2313DB2";
shapes = (
{
closed = 1;
nodes = (
(228,0,l),
(316,495,l),
(322,495,l),
(331,464,l),
(450,0,l),
(769,0,l),
(899,729,l),
(687,729,l),
(601,233,l),
(594,233,l),
(587,253,l),
(456,729,l),
(145,729,l),
(15,0,l)
);
}
);
width = 881;
}
);
metricLeft = H;
metricRight = H;
unicode = 78;
},
{
color = 6;
glyphname = Eng;
kernLeft = B;
lastChange = "2022-11-17 14:59:21 +0000";
layers = (
{
anchors = (
{
name = bottom;
pos = (240,0);
},
{
name = top;
pos = (240,729);
}
);
layerId = "6932EABA-00D8-4526-96D6-87ADD7AC589E";
shapes = (
{
closed = 1;
nodes = (
(354,-167,ls),
(382,-167,o),
(392,-153,o),
(392,-133,cs),
(392,729,l),
(362,729,l),
(362,42,l),
(358,42,l),
(352,62,l),
(139,729,l),
(88,729,l),
(88,0,l),
(118,0,l),
(118,690,l),
(121,690,l),
(129,664,l),
(341,0,l),
(361,0,l),
(361,-140,l),
(282,-140,l),
(282,-167,l)
);
}
);
width = 480;
},
{
anchors = (
{
name = bottom;
pos = (271,0);
},
{
name = top;
pos = (271,729);
}
);
layerId = "E787E54A-EE3E-475A-BF02-8501A6DA5144";
shapes = (
{
closed = 1;
nodes = (
(357,-167,ls),
(446,-167,o),
(506,-119,o),
(506,-18,cs),
(506,729,l),
(340,729,l),
(340,354,l),
(333,354,l),
(322,411,l),
(240,729,l),
(35,729,l),
(35,0,l),
(201,0,l),
(201,365,l),
(207,365,l),
(215,323,l),
(300,0,l),
(332,0,l),
(332,-38,l),
(264,-38,l),
(264,-167,l)
);
}
);
width = 540;
},
{
anchors = (
{
name = bottom;
pos = (417,0);
},
{
name = top;
pos = (417,729);
}
);
layerId = "B743CB11-DC16-45F2-BA04-3635CB00F7DA";
shapes = (
{
closed = 1;
nodes = (
(644,-167,ls),
(677,-167,o),
(700,-151,o),
(700,-112,cs),
(700,729,l),
(661,729,l),
(661,50,l),
(656,50,l),
(638,80,l),
(184,729,l),
(134,729,l),
(134,0,l),
(173,0,l),
(173,678,l),
(178,678,l),
(194,651,l),
(648,0,l),
(662,0,l),
(662,-135,l),
(534,-135,l),
(534,-167,l)
);
}
);
width = 834;
},
{
anchors = (
{
name = bottom;
pos = (196,0);
},
{
name = top;
pos = (324,729);
}
);
layerId = "84BE75FC-12C8-47E9-B302-5F6D56903923";
shapes = (
{
closed = 1;
nodes = (
(281,-169,ls),
(309,-169,o),
(321,-155,o),
(325,-135,cs),
(477,729,l),
(446,729,l),
(326,46,l),
(323,46,l),
(320,68,l),
(222,729,l),
(171,729,l),
(43,0,l),
(74,0,l),
(194,686,l),
(197,686,l),
(201,658,l),
(298,0,l),
(318,0,l),
(293,-142,l),
(214,-142,l),
(209,-169,l)
);
}
);
width = 482;
},
{
anchors = (
{
name = bottom;
pos = (223,0);
},
{
name = top;
pos = (352,729);
}
);
layerId = "3257632A-050A-40C2-B21A-C728868BC46F";
shapes = (
{
closed = 1;
nodes = (
(281,-167,ls),
(368,-167,o),
(438,-130,o),
(456,-18,cs),
(587,729,l),
(421,729,l),
(356,359,l),
(349,359,l),
(347,411,l),
(321,729,l),
(116,729,l),
(-12,0,l),
(154,0,l),
(217,359,l),
(223,359,l),
(225,323,l),
(253,0,l),
(286,0,l),
(281,-28,l),
(213,-28,l),
(188,-167,l)
);
}
);
width = 541;
},
{
anchors = (
{
name = bottom;
pos = (371,0);
},
{
name = top;
pos = (499,729);
}
);
layerId = "33C7CA81-8DED-4513-9072-CA0E40765DD9";
shapes = (
{
closed = 1;
nodes = (
(569,-169,ls),
(602,-169,o),
(625,-154,o),
(631,-118,cs),
(780,729,l),
(743,729,l),
(622,44,l),
(618,44,l),
(595,88,l),
(268,729,l),
(218,729,l),
(89,0,l),
(126,0,l),
(247,684,l),
(251,684,l),
(272,640,l),
(601,0,l),
(615,0,l),
(591,-138,l),
(462,-138,l),
(456,-169,l)
);
}
);
width = 831;
},
{
anchors = (
{
name = bottom;
pos = (386,0);
},
{
name = top;
pos = (514,729);
}
);
layerId = "46C13DED-2BAB-471A-8D19-A1FA49A5501E";
shapes = (
{
closed = 1;
nodes = (
(619,-167,ls),
(653,-167,o),
(680,-152,o),
(687,-111,cs),
(836,729,l),
(797,729,l),
(677,46,l),
(672,46,l),
(642,94,l),
(243,729,l),
(193,729,l),
(64,0,l),
(104,0,l),
(224,682,l),
(229,682,l),
(257,634,l),
(656,0,l),
(669,0,l),
(645,-135,l),
(500,-135,l),
(494,-167,l)
);
}
);
width = 862;
},
{
anchors = (
{
name = bottom;
pos = (446,0);
},
{
name = top;
pos = (446,729);
}
);
layerId = "C1814757-B5F7-4D49-B715-04BFD84ECCF6";
shapes = (
{
closed = 1;
nodes = (
(722,-167,ls),
(757,-167,o),
(782,-151,o),
(782,-108,cs),
(782,729,l),
(742,729,l),
(742,44,l),
(740,44,l),
(713,79,l),
(164,729,l),
(109,729,l),
(109,0,l),
(148,0,l),
(148,684,l),
(151,684,l),
(179,647,l),
(724,0,l),
(743,0,l),
(743,-135,l),
(592,-135,l),
(592,-167,l)
);
}
);
width = 891;
},
{
anchors = (
{
name = bottom;
pos = (400,0);
},
{
name = top;
pos = (400,729);
}
);
layerId = "8B1B4E65-9831-4464-9A92-CA98D2219836";
shapes = (
{
closed = 1;
nodes = (
(571,-167,ls),
(670,-167,o),
(736,-114,o),
(736,-2,cs),
(736,729,l),
(533,729,l),
(533,267,l),
(526,267,l),
(508,322,l),
(346,729,l),
(63,729,l),
(63,0,l),
(266,0,l),
(266,466,l),
(273,466,l),
(287,417,l),
(451,0,l),
(536,0,l),
(536,-44,l),
(444,-44,l),
(444,-167,l)
);
}
);
width = 799;
},
{
anchors = (
{
name = bottom;
pos = (343,0);
},
{
name = top;
pos = (472,729);
}
);
layerId = "2359B287-0F82-447F-8C68-59A72835D733";
shapes = (
{
closed = 1;
nodes = (
(490,-169,ls),
(576,-169,o),
(644,-128,o),
(660,-32,cs),
(793,729,l),
(598,729,l),
(520,288,l),
(512,288,l),
(508,314,l),
(419,729,l),
(149,729,l),
(21,0,l),
(218,0,l),
(295,446,l),
(304,446,l),
(310,408,l),
(394,0,l),
(462,0,l),
(459,-22,l),
(377,-22,l),
(351,-169,l)
);
}
);
width = 783;
},
{
anchors = (
{
name = bottom;
pos = (445,0);
},
{
name = top;
pos = (445,729);
}
);
layerId = "46DCD09A-F85A-41B9-8FAA-640012B7D4F4";
shapes = (
{
closed = 1;
nodes = (
(668,-167,ls),
(762,-167,o),
(824,-111,o),
(824,-12,cs),
(824,729,l),
(602,729,l),
(602,268,l),
(595,268,l),
(585,291,l),
(384,729,l),
(63,729,l),
(63,0,l),
(284,0,l),
(284,470,l),
(292,470,l),
(307,434,l),
(501,0,l),
(598,0,l),
(598,-35,l),
(506,-35,l),
(506,-167,l)
);
}
);
width = 887;
},
{
anchors = (
{
name = bottom;
pos = (384,0);
},
{
name = top;
pos = (513,729);
}
);
layerId = "0D69E86C-407B-4861-9815-978EE2313DB2";
shapes = (
{
closed = 1;
nodes = (
(573,-167,ls),
(660,-167,o),
(729,-125,o),
(743,-34,cs),
(879,729,l),
(662,729,l),
(576,251,l),
(568,251,l),
(563,279,l),
(455,729,l),
(145,729,l),
(15,0,l),
(230,0,l),
(322,481,l),
(330,481,l),
(334,446,l),
(436,0,l),
(527,0,l),
(520,-39,l),
(433,-39,l),
(410,-167,l)
);
}
);
width = 861;
}
);
metricLeft = N;
metricRight = N;
unicode = 330;
},
{
color = 6;
glyphname = O;
kernLeft = C;
kernRight = D;
lastChange = "2022-11-17 14:59:21 +0000";
layers = (
{
anchors = (
{
name = bottom;
pos = (223,0);
},
{
name = center;
pos = (223,365);
},
{
name = ogonek;
pos = (377,10);
},
{
name = top;
pos = (223,729);
},
{
name = topleft;
pos = (50,729);
},
{
name = topright;
pos = (395,729);
}
);
background = {
shapes = (
{
closed = 1;
nodes = (
(316,-9,o),
(378,37,o),
(378,193,cs),
(378,307,o),
(378,422,o),
(378,536,cs),
(378,692,o),
(316,738,o),
(223,739,cs),
(130,738,o),
(68,692,o),
(68,536,cs),
(68,422,o),
(68,307,o),
(68,193,cs),
(68,37,o),
(130,-9,o),
(223,-10,cs)
);
},
{
closed = 1;
nodes = (
(149,18,o),
(99,53,o),
(99,193,cs),
(99,307,o),
(99,422,o),
(99,536,cs),
(99,641,o),
(124,711,o),
(223,711,cs),
(322,711,o),
(347,641,o),
(347,536,cs),
(347,422,o),
(347,307,o),
(347,193,cs),
(347,53,o),
(297,18,o),
(223,18,cs)
);
}
);
};
layerId = "6932EABA-00D8-4526-96D6-87ADD7AC589E";
shapes = (
{
closed = 1;
nodes = (
(316,-9,o),
(378,37,o),
(378,193,cs),
(378,536,ls),
(378,692,o),
(316,738,o),
(223,739,cs),
(130,738,o),
(68,692,o),
(68,536,cs),
(68,193,ls),
(68,37,o),
(130,-9,o),
(223,-10,cs)
);
},
{
closed = 1;
nodes = (
(149,18,o),
(99,53,o),
(99,193,cs),
(99,536,ls),
(99,641,o),
(124,711,o),
(223,711,cs),
(322,711,o),
(347,641,o),
(347,536,cs),
(347,193,ls),
(347,53,o),
(297,18,o),
(223,18,cs)
);
}
);
width = 446;
},
{
anchors = (
{
name = bottom;
pos = (270,0);
},
{
name = center;
pos = (270,365);
},
{
name = ogonek;
pos = (476,10);
},
{
name = top;
pos = (270,729);
},
{
name = topleft;
pos = (32,729);
},
{
name = topright;
pos = (508,729);
}
);
layerId = "E787E54A-EE3E-475A-BF02-8501A6DA5144";
shapes = (
{
closed = 1;
nodes = (
(425,-10,o),
(513,62,o),
(513,249,cs),
(513,480,ls),
(513,667,o),
(425,739,o),
(270,739,cs),
(115,739,o),
(27,667,o),
(27,480,cs),
(27,249,ls),
(27,62,o),
(115,-10,o),
(270,-10,cs)
);
},
{
closed = 1;
nodes = (
(229,136,o),
(205,155,o),
(205,214,cs),
(205,515,ls),
(205,574,o),
(229,593,o),
(270,593,cs),
(311,593,o),
(335,574,o),
(335,515,cs),
(335,214,ls),
(335,155,o),
(311,136,o),
(270,136,cs)
);
}
);
width = 540;
},
{
anchors = (
{
name = bottom;
pos = (395,0);
},
{
name = center;
pos = (395,365);
},
{
name = ogonek;
pos = (724,10);
},
{
name = top;
pos = (395,729);
},
{
name = topleft;
pos = (4,729);
},
{
name = topright;
pos = (786,729);
}
);
background = {
shapes = (
{
closed = 1;
nodes = (
(598,-10,o),
(734,109,o),
(734,364,cs),
(734,610,o),
(606,738,o),
(398,738,cs),
(190,738,o),
(63,610,o),
(63,364,cs),
(63,109,o),
(199,-10,o),
(398,-10,cs)
);
},
{
closed = 1;
nodes = (
(207,26,o),
(106,148,o),
(106,317,cs),
(106,348,o),
(106,380,o),
(106,412,cs),
(106,580,o),
(206,702,o),
(398,702,cs),
(590,702,o),
(690,580,o),
(690,412,cs),
(690,380,o),
(690,348,o),
(690,317,cs),
(690,149,o),
(591,26,o),
(398,26,cs)
);
}
);
};
layerId = "B743CB11-DC16-45F2-BA04-3635CB00F7DA";
shapes = (
{
closed = 1;
nodes = (
(594,-10,o),
(730,109,o),
(730,361,cs),
(730,366,ls),
(730,610,o),
(603,738,o),
(395,738,cs),
(187,738,o),
(60,610,o),
(60,366,cs),
(60,361,ls),
(60,109,o),
(196,-10,o),
(395,-10,cs)
);
},
{
closed = 1;
nodes = (
(203,26,o),
(103,148,o),
(103,316,cs),
(103,412,ls),
(103,580,o),
(203,702,o),
(395,702,cs),
(587,702,o),
(687,580,o),
(687,412,cs),
(687,316,ls),
(687,148,o),
(587,26,o),
(395,26,cs)
);
}
);
width = 791;
},
{
anchors = (
{
name = bottom;
pos = (223,0);
},
{
name = center;
pos = (287,365);
},
{
name = ogonek;
pos = (432,10);
},
{
name = top;
pos = (341,729);
},
{
name = topleft;
pos = (113,729);
},
{
name = topright;
pos = (591,729);
}
);
layerId = "3257632A-050A-40C2-B21A-C728868BC46F";
shapes = (
{
closed = 1;
nodes = (
(391,-11,o),
(478,58,o),
(507,226,cs),
(547,457,ls),
(580,645,o),
(505,740,o),
(315,740,cs),
(183,740,o),
(96,672,o),
(67,501,cs),
(27,270,ls),
(-5,88,o),
(66,-11,o),
(258,-11,cs)
);
},
{
closed = 1;
nodes = (
(202,136,o),
(187,165,o),
(197,222,cs),
(249,520,ls),
(259,577,o),
(285,592,o),
(317,592,cs),
(372,592,o),
(387,565,o),
(378,509,cs),
(325,209,ls),
(316,157,o),
(295,136,o),
(258,136,cs)
);
}
);
width = 542;
},
{
anchors = (
{
name = bottom;
pos = (178,0);
},
{
name = center;
pos = (242,365);
},
{
name = ogonek;
pos = (333,10);
},
{
name = top;
pos = (295,729);
},
{
name = topleft;
pos = (133,729);
},
{
name = topright;
pos = (478,729);
}
);
layerId = "84BE75FC-12C8-47E9-B302-5F6D56903923";
shapes = (
{
closed = 1;
nodes = (
(281,-9,o),
(338,29,o),
(365,181,cs),
(425,523,ls),
(448,653,o),
(408,739,o),
(292,739,cs),
(203,739,o),
(146,701,o),
(119,549,cs),
(59,207,ls),
(36,77,o),
(76,-9,o),
(193,-9,cs)
);
},
{
closed = 1;
nodes = (
(109,18,o),
(66,70,o),
(89,202,cs),
(149,546,ls),
(169,659,o),
(201,712,o),
(292,712,cs),
(375,712,o),
(418,660,o),
(395,528,cs),
(335,184,ls),
(315,71,o),
(283,18,o),
(193,18,cs)
);
}
);
width = 446;
},
{
anchors = (
{
name = bottom;
pos = (357,0);
},
{
name = center;
pos = (421,365);
},
{
name = ogonek;
pos = (691,10);
},
{
name = top;
pos = (467,729);
},
{
name = topleft;
pos = (89,729);
},
{
name = topright;
pos = (881,729);
}
);
background = {
shapes = (
{
closed = 1;
nodes = (
(586,-10,o),
(713,95,o),
(752,314,cs),
(758,348,o),
(762,392,o),
(762,423,cs),
(762,623,o),
(631,739,o),
(433,739,cs),
(256,739,o),
(129,634,o),
(90,415,cs),
(84,381,o),
(80,337,o),
(80,306,cs),
(80,106,o),
(211,-10,o),
(409,-10,cs)
);
},
{
closed = 1;
nodes = (
(214,26,o),
(93,152,o),
(124,353,cs),
(129,386,o),
(136,427,o),
(140,449,cs),
(166,599,o),
(265,703,o),
(432,703,cs),
(628,703,o),
(749,577,o),
(718,376,cs),
(713,343,o),
(706,302,o),
(702,280,cs),
(676,130,o),
(577,26,o),
(410,26,cs)
);
}
);
};
layerId = "33C7CA81-8DED-4513-9072-CA0E40765DD9";
shapes = (
{
closed = 1;
nodes = (
(640,-10,o),
(762,176,o),
(762,415,cs),
(762,423,ls),
(762,623,o),
(631,739,o),
(433,739,cs),
(202,739,o),
(80,553,o),
(80,314,cs),
(80,306,ls),
(80,106,o),
(211,-10,o),
(409,-10,cs)
);
},
{
closed = 1;
nodes = (
(214,26,o),
(93,152,o),
(124,353,cs),
(140,449,ls),
(166,599,o),
(265,703,o),
(433,703,cs),
(628,703,o),
(751,577,o),
(718,376,cs),
(702,280,ls),
(677,130,o),
(577,26,o),
(409,26,cs)
);
}
);
width = 805;
},
{
anchors = (
{
name = bottom;
pos = (408,0);
},
{
name = center;
pos = (470,365);
},
{
name = ogonek;
pos = (763,10);
},
{
name = top;
pos = (489,729);
},
{
name = topleft;
pos = (113,729);
},
{
name = topright;
pos = (958,729);
}
);
background = {
shapes = (
{
closed = 1;
nodes = (
(717,-10,o),
(867,152,o),
(867,392,cs),
(867,398,ls),
(865,618,o),
(709,739,o),
(475,739,cs),
(230,739,o),
(80,577,o),
(80,337,cs),
(80,331,ls),
(82,111,o),
(238,-10,o),
(468,-10,cs)
);
},
{
closed = 1;
nodes = (
(249,27,o),
(91,152,o),
(120,354,cs),
(132,438,ls),
(157,611,o),
(285,702,o),
(475,702,cs),
(690,702,o),
(844,578,o),
(817,375,cs),
(806,291,ls),
(781,118,o),
(653,27,o),
(468,27,cs)
);
}
);
};
layerId = "46C13DED-2BAB-471A-8D19-A1FA49A5501E";
shapes = (
{
closed = 1;
nodes = (
(717,-10,o),
(867,152,o),
(867,392,cs),
(867,398,ls),
(865,618,o),
(709,739,o),
(474,739,cs),
(230,739,o),
(80,577,o),
(80,337,cs),
(80,331,ls),
(80,111,o),
(238,-10,o),
(474,-10,cs)
);
},
{
closed = 1;
nodes = (
(249,27,o),
(91,152,o),
(120,354,cs),
(132,438,ls),
(157,611,o),
(285,702,o),
(474,702,cs),
(698,702,o),
(856,577,o),
(827,375,cs),
(815,291,ls),
(790,118,o),
(662,27,o),
(474,27,cs)
);
}
);
width = 910;
},
{
anchors = (
{
name = bottom;
pos = (454,0);
},
{
name = center;
pos = (454,365);
},
{
name = ogonek;
pos = (806,10);
},
{
name = top;
pos = (454,729);
},
{
name = topleft;
pos = (32,729);
},
{
name = topright;
pos = (876,729);
}
);
layerId = "C1814757-B5F7-4D49-B715-04BFD84ECCF6";
shapes = (
{
closed = 1;
nodes = (
(696,-10,o),
(854,121,o),
(854,362,cs),
(854,366,ls),
(854,607,o),
(696,738,o),
(456,738,cs),
(216,738,o),
(58,607,o),
(58,366,cs),
(58,362,ls),
(58,121,o),
(216,-10,o),
(456,-10,cs)
);
},
{
closed = 1;
nodes = (
(216,28,o),
(103,164,o),
(103,336,cs),
(103,392,ls),
(103,570,o),
(216,700,o),
(456,700,cs),
(696,700,o),
(809,570,o),
(809,392,cs),
(809,336,ls),
(809,164,o),
(696,28,o),
(456,28,cs)
);
}
);
width = 912;
},
{
anchors = (
{
name = bottom;
pos = (395,0);
},
{
name = center;
pos = (395,365);
},
{
name = ogonek;
pos = (721,10);
},
{
name = top;
pos = (395,729);
},
{
name = topleft;
pos = (7,729);
},
{
name = topright;
pos = (783,729);
}
);
layerId = "8B1B4E65-9831-4464-9A92-CA98D2219836";
shapes = (
{
closed = 1;
nodes = (
(645,-10,o),
(760,141,o),
(760,363,cs),
(760,365,ls),
(760,607,o),
(615,738,o),
(395,738,cs),
(175,738,o),
(31,607,o),
(31,365,cs),
(31,363,ls),
(31,141,o),
(145,-10,o),
(395,-10,cs)
);
},
{
closed = 1;
nodes = (
(311,174,o),
(254,214,o),
(254,304,cs),
(254,424,ls),
(254,502,o),
(298,554,o),
(395,554,cs),
(492,554,o),
(536,502,o),
(536,424,cs),
(536,304,ls),
(536,214,o),
(479,174,o),
(395,174,cs)
);
}
);
width = 791;
},
{
anchors = (
{
name = bottom;
pos = (347,0);
},
{
name = center;
pos = (411,365);
},
{
name = ogonek;
pos = (674,10);
},
{
name = top;
pos = (458,729);
},
{
name = topleft;
pos = (87,729);
},
{
name = topright;
pos = (863,729);
}
);
background = {
shapes = (
{
closed = 1;
nodes = (
(630,-10,o),
(772,149,o),
(772,400,cs),
(772,409,ls),
(772,607,o),
(646,739,o),
(429,739,cs),
(192,739,o),
(50,580,o),
(50,329,cs),
(50,320,ls),
(50,122,o),
(175,-10,o),
(392,-10,cs)
);
},
{
closed = 1;
nodes = (
(305,173,o),
(244,221,o),
(263,326,cs),
(285,452,ls),
(298,525,o),
(347,556,o),
(429,556,cs),
(516,556,o),
(577,508,o),
(559,403,cs),
(536,277,ls),
(523,204,o),
(475,173,o),
(392,173,cs)
);
}
);
};
layerId = "2359B287-0F82-447F-8C68-59A72835D733";
shapes = (
{
closed = 1;
nodes = (
(630,-10,o),
(773,149,o),
(773,410,cs),
(773,419,ls),
(773,611,o),
(637,739,o),
(434,739,cs),
(192,739,o),
(49,580,o),
(49,319,cs),
(49,310,ls),
(49,118,o),
(185,-10,o),
(388,-10,cs)
);
},
{
closed = 1;
nodes = (
(296,173,o),
(245,232,o),
(265,346,cs),
(280,432,ls),
(295,516,o),
(340,556,o),
(423,556,cs),
(528,556,o),
(576,491,o),
(557,383,cs),
(542,297,ls),
(526,208,o),
(478,173,o),
(399,173,cs)
);
}
);
width = 790;
},
{
anchors = (
{
name = bottom;
pos = (472,0);
},
{
name = center;
pos = (472,365);
},
{
name = ogonek;
pos = (849,10);
},
{
name = top;
pos = (472,728);
},
{
name = topleft;
pos = (22,728);
},
{
name = topright;
pos = (924,728);
}
);
layerId = "46DCD09A-F85A-41B9-8FAA-640012B7D4F4";
shapes = (
{
closed = 1;
nodes = (
(729,-10,o),
(917,121,o),
(917,355,cs),
(917,375,ls),
(917,608,o),
(729,739,o),
(472,739,cs),
(216,739,o),
(28,608,o),
(28,375,cs),
(28,355,ls),
(28,121,o),
(216,-10,o),
(472,-10,cs)
);
},
{
closed = 1;
nodes = (
(345,179,o),
(284,240,o),
(284,323,cs),
(284,406,ls),
(284,489,o),
(345,550,o),
(472,550,cs),
(599,550,o),
(660,489,o),
(660,406,cs),
(660,323,ls),
(660,240,o),
(599,179,o),
(472,179,cs)
);
}
);
width = 945;
},
{
anchors = (
{
name = bottom;
pos = (451,0);
},
{
name = center;
pos = (486,365);
},
{
name = ogonek;
pos = (789,10);
},
{
name = top;
pos = (523,728);
},
{
name = topleft;
pos = (152,728);
},
{
name = topright;
pos = (1024,728);
}
);
layerId = "0D69E86C-407B-4861-9815-978EE2313DB2";
shapes = (
{
closed = 1;
nodes = (
(730,-10,o),
(885,143,o),
(885,375,cs),
(885,385,ls),
(886,596,o),
(726,739,o),
(485,739,cs),
(205,739,o),
(50,586,o),
(50,354,cs),
(50,344,ls),
(50,133,o),
(209,-10,o),
(450,-10,cs)
);
},
{
closed = 1;
nodes = (
(339,177,o),
(276,242,o),
(294,340,cs),
(310,434,ls),
(322,502,o),
(368,553,o),
(481,553,cs),
(596,553,o),
(659,487,o),
(641,390,cs),
(625,296,ls),
(613,228,o),
(568,177,o),
(456,177,cs)
);
}
);
width = 902;
}
);
unicode = 79;
},
{
color = 6;
glyphname = OE;
kernLeft = C;
kernRight = E;
lastChange = "2022-11-17 14:59:21 +0000";
layers = (
{
layerId = "6932EABA-00D8-4526-96D6-87ADD7AC589E";
shapes = (
{
closed = 1;
nodes = (
(589,0,l),
(589,28,l),
(377,28,l),
(377,362,l),
(567,362,l),
(567,390,l),
(377,390,l),
(377,701,l),
(584,701,l),
(584,729,l),
(236,729,ls),
(133,729,o),
(68,672,o),
(68,497,cs),
(68,409,o),
(68,320,o),
(68,232,cs),
(68,57,o),
(133,0,o),
(236,0,cs)
);
},
{
closed = 1;
nodes = (
(125,28,o),
(99,110,o),
(99,233,cs),
(99,321,o),
(99,408,o),
(99,496,cs),
(99,619,o),
(125,701,o),
(236,701,cs),
(346,701,l),
(346,28,l),
(236,28,ls)
);
}
);
width = 637;
},
{
layerId = "E787E54A-EE3E-475A-BF02-8501A6DA5144";
shapes = (
{
closed = 1;
nodes = (
(693,0,l),
(693,146,l),
(496,146,l),
(496,300,l),
(649,300,l),
(649,442,l),
(496,442,l),
(496,583,l),
(687,583,l),
(687,729,l),
(258,729,ls),
(91,729,o),
(27,634,o),
(27,465,cs),
(27,398,o),
(27,331,o),
(27,264,cs),
(27,95,o),
(91,0,o),
(258,0,cs)
);
},
{
closed = 1;
nodes = (
(229,146,o),
(205,171,o),
(205,245,cs),
(205,325,o),
(205,404,o),
(205,484,cs),
(205,558,o),
(229,583,o),
(278,583,cs),
(318,583,l),
(318,146,l),
(278,146,ls)
);
}
);
width = 715;
},
{
layerId = "B743CB11-DC16-45F2-BA04-3635CB00F7DA";
shapes = (
{
closed = 1;
nodes = (
(1074,0,l),
(1074,37,l),
(643,37,l),
(643,358,l),
(1027,358,l),
(1027,393,l),
(643,393,l),
(643,692,l),
(1074,692,l),
(1074,729,l),
(388,729,ls),
(191,729,o),
(60,621,o),
(60,369,cs),
(60,366,o),
(60,363,o),
(60,360,cs),
(61,108,o),
(192,0,o),
(388,0,cs)
);
},
{
closed = 1;
nodes = (
(198,37,o),
(104,149,o),
(104,317,cs),
(104,349,o),
(104,380,o),
(104,412,cs),
(104,596,o),
(214,692,o),
(389,692,cs),
(604,692,l),
(604,37,l),
(389,37,ls)
);
}
);
width = 1144;
},
{
layerId = "84BE75FC-12C8-47E9-B302-5F6D56903923";
shapes = (
{
closed = 1;
nodes = (
(543,0,l),
(548,28,l),
(336,28,l),
(395,362,l),
(585,362,l),
(589,390,l),
(399,390,l),
(454,701,l),
(661,701,l),
(666,729,l),
(317,729,ls),
(203,729,o),
(145,687,o),
(114,519,cs),
(99,426,o),
(81,327,o),
(65,240,cs),
(32,61,o),
(90,0,o),
(193,0,cs)
);
},
{
closed = 1;
nodes = (
(84,28,o),
(75,121,o),
(97,240,cs),
(111,329,o),
(127,419,o),
(143,503,cs),
(167,646,o),
(204,701,o),
(315,701,cs),
(423,701,l),
(305,28,l),
(193,28,ls)
);
}
);
width = 636;
},
{
layerId = "3257632A-050A-40C2-B21A-C728868BC46F";
shapes = (
{
closed = 1;
nodes = (
(647,0,l),
(672,146,l),
(476,146,l),
(503,300,l),
(656,300,l),
(681,442,l),
(528,442,l),
(553,583,l),
(744,583,l),
(769,729,l),
(338,729,ls),
(178,729,o),
(95,658,o),
(64,483,cs),
(53,420,o),
(42,353,o),
(30,285,cs),
(0,115,o),
(46,0,o),
(212,0,cs)
);
},
{
closed = 1;
nodes = (
(208,146,o),
(189,175,o),
(202,250,cs),
(216,330,o),
(230,409,o),
(244,489,cs),
(257,561,o),
(285,583,o),
(334,583,cs),
(375,583,l),
(297,146,l),
(257,146,ls)
);
}
);
width = 717;
},
{
layerId = "33C7CA81-8DED-4513-9072-CA0E40765DD9";
shapes = (
{
closed = 1;
nodes = (
(982,0,l),
(988,36,l),
(559,36,l),
(617,359,l),
(998,359,l),
(1004,393,l),
(623,393,l),
(677,693,l),
(1103,693,l),
(1109,729,l),
(433,729,ls),
(251,729,o),
(131,640,o),
(94,451,cs),
(92,434,o),
(87,409,o),
(82,382,cs),
(42,146,o),
(152,0,o),
(354,0,cs)
);
},
{
closed = 1;
nodes = (
(180,35,o),
(87,161,o),
(120,347,cs),
(127,389,o),
(134,432,o),
(141,474,cs),
(165,605,o),
(263,693,o),
(427,693,cs),
(639,693,l),
(521,35,l),
(361,35,ls)
);
}
);
width = 1097;
},
{
layerId = "46C13DED-2BAB-471A-8D19-A1FA49A5501E";
shapes = (
{
closed = 1;
nodes = (
(1089,0,l),
(1096,38,l),
(600,38,l),
(657,357,l),
(1099,357,l),
(1105,395,l),
(664,395,l),
(716,691,l),
(1212,691,l),
(1218,729,l),
(478,729,ls),
(282,729,o),
(151,646,o),
(101,485,cs),
(89,446,o),
(80,388,o),
(79,339,cs),
(71,104,o),
(212,0,o),
(420,0,cs)
);
},
{
closed = 1;
nodes = (
(221,37,o),
(96,143,o),
(121,353,cs),
(124,381,o),
(129,414,o),
(134,443,cs),
(162,616,o),
(290,691,o),
(473,691,cs),
(676,691,l),
(558,37,l),
(416,37,ls)
);
}
);
width = 1188;
},
{
background = {
shapes = (
{
closed = 1;
nodes = (
(1171,0,l),
(1171,39,l),
(649,39,l),
(649,358,l),
(1114,358,l),
(1114,396,l),
(649,396,l),
(649,690,l),
(1172,690,l),
(1172,729,l),
(446,729,ls),
(212,729,o),
(57,609,o),
(57,355,cs),
(57,356,o),
(57,359,o),
(57,360,cs),
(58,142,o),
(184,0,o),
(446,0,cs)
);
},
{
closed = 1;
nodes = (
(240,39,o),
(104,145,o),
(104,330,cs),
(104,353,o),
(104,376,o),
(104,399,cs),
(104,576,o),
(230,690,o),
(446,690,cs),
(610,690,l),
(610,39,l),
(446,39,ls)
);
}
);
};
layerId = "C1814757-B5F7-4D49-B715-04BFD84ECCF6";
shapes = (
{
closed = 1;
nodes = (
(1171,0,l),
(1171,39,l),
(649,39,l),
(649,358,l),
(1114,358,l),
(1114,396,l),
(649,396,l),
(649,690,l),
(1172,690,l),
(1172,729,l),
(446,729,ls),
(182,729,o),
(58,585,o),
(58,369,cs),
(58,366,o),
(58,363,o),
(58,360,cs),
(58,144,o),
(182,0,o),
(446,0,cs)
);
},
{
closed = 1;
nodes = (
(219,39,o),
(104,154,o),
(104,327,cs),
(104,352,o),
(104,377,o),
(104,402,cs),
(104,575,o),
(219,690,o),
(446,690,cs),
(610,690,l),
(610,39,l),
(446,39,ls)
);
}
);
width = 1224;
},
{
layerId = "8B1B4E65-9831-4464-9A92-CA98D2219836";
shapes = (
{
closed = 1;
nodes = (
(1047,0,l),
(1047,180,l),
(700,180,l),
(700,284,l),
(993,284,l),
(993,452,l),
(700,452,l),
(700,549,l),
(1047,549,l),
(1047,729,l),
(394,729,ls),
(176,729,o),
(31,613,o),
(31,367,cs),
(31,365,o),
(31,363,o),
(31,361,cs),
(30,146,o),
(146,0,o),
(394,0,cs)
);
},
{
closed = 1;
nodes = (
(299,179,o),
(254,229,o),
(254,305,cs),
(254,345,o),
(254,383,o),
(254,423,cs),
(254,498,o),
(298,549,o),
(394,549,cs),
(488,549,l),
(488,179,l),
(394,179,ls)
);
}
);
width = 1092;
},
{
layerId = "2359B287-0F82-447F-8C68-59A72835D733";
shapes = (
{
closed = 1;
nodes = (
(976,0,l),
(1007,179,l),
(673,179,l),
(692,286,l),
(972,286,l),
(1001,452,l),
(722,452,l),
(740,550,l),
(1072,550,l),
(1103,729,l),
(472,729,ls),
(253,729,o),
(110,639,o),
(64,453,cs),
(52,408,o),
(46,332,o),
(46,296,cs),
(49,111,o),
(157,0,o),
(376,0,cs)
);
},
{
closed = 1;
nodes = (
(296,180,o),
(247,214,o),
(261,311,cs),
(268,355,o),
(278,410,o),
(282,432,cs),
(294,501,o),
(336,548,o),
(424,548,cs),
(525,548,l),
(459,180,l),
(375,180,ls)
);
}
);
width = 1069;
},
{
layerId = "46DCD09A-F85A-41B9-8FAA-640012B7D4F4";
shapes = (
{
closed = 1;
nodes = (
(1243,0,l),
(1243,184,l),
(822,184,l),
(822,282,l),
(1181,282,l),
(1181,452,l),
(822,452,l),
(822,545,l),
(1245,545,l),
(1245,729,l),
(450,729,ls),
(202,729,o),
(28,615,o),
(28,368,cs),
(28,366,o),
(28,363,o),
(28,361,cs),
(28,114,o),
(202,0,o),
(450,0,cs)
);
},
{
closed = 1;
nodes = (
(325,184,o),
(287,245,o),
(287,332,cs),
(287,354,o),
(287,375,o),
(287,397,cs),
(287,484,o),
(325,545,o),
(459,545,cs),
(577,545,l),
(577,184,l),
(459,184,ls)
);
}
);
width = 1282;
},
{
layerId = "0D69E86C-407B-4861-9815-978EE2313DB2";
shapes = (
{
closed = 1;
nodes = (
(1113,0,l),
(1143,181,l),
(744,181,l),
(763,282,l),
(1100,282,l),
(1131,453,l),
(792,453,l),
(809,548,l),
(1209,548,l),
(1241,729,l),
(476,729,ls),
(252,729,o),
(102,615,o),
(58,439,cs),
(49,405,o),
(44,358,o),
(45,323,cs),
(48,126,o),
(172,0,o),
(415,0,cs)
);
},
{
closed = 1;
nodes = (
(336,184,o),
(282,228,o),
(297,342,cs),
(300,369,o),
(307,394,o),
(310,417,cs),
(327,513,o),
(384,548,o),
(469,548,cs),
(572,548,l),
(507,184,l),
(436,184,ls)
);
}
);
width = 1197;
}
);
metricLeft = C;
metricRight = E;
unicode = 338;
},
{
color = 6;
glyphname = P;
kernLeft = B;
kernRight = P;
lastChange = "2022-11-17 14:59:21 +0000";
layers = (
{
anchors = (
{
name = bottom;
pos = (200,0);
},
{
name = top;
pos = (200,729);
}
);
layerId = "6932EABA-00D8-4526-96D6-87ADD7AC589E";
shapes = (
{
closed = 1;
nodes = (
(119,0,l),
(119,701,l),
(194,701,ls),
(288,701,o),
(324,644,o),
(324,558,cs),
(324,506,ls),
(324,420,o),
(288,363,o),
(194,363,cs),
(112,363,l),
(112,335,l),
(194,335,ls),
(296,335,o),
(355,390,o),
(355,532,cs),
(355,674,o),
(296,729,o),
(194,729,cs),
(88,729,l),
(88,0,l)
);
}
);
width = 395;
},
{
anchors = (
{
name = bottom;
pos = (256,0);
},
{
name = top;
pos = (256,729);
}
);
background = {
shapes = (
{
closed = 1;
nodes = (
(213,0,l),
(213,596,l),
(249,596,ls),
(287,596,o),
(309,584,o),
(309,535,cs),
(309,467,ls),
(309,427,o),
(297,401,o),
(249,401,cs),
(197,401,l),
(197,272,l),
(267,272,ls),
(397,272,o),
(484,328,o),
(484,505,cs),
(484,653,o),
(408,729,o),
(247,729,cs),
(35,729,l),
(35,0,l)
);
}
);
};
layerId = "E787E54A-EE3E-475A-BF02-8501A6DA5144";
shapes = (
{
closed = 1;
nodes = (
(213,0,l),
(213,586,l),
(249,586,ls),
(287,586,o),
(309,574,o),
(309,525,cs),
(309,467,ls),
(309,427,o),
(297,401,o),
(249,401,cs),
(197,401,l),
(197,272,l),
(267,272,ls),
(397,272,o),
(484,328,o),
(484,505,cs),
(484,653,o),
(408,729,o),
(247,729,cs),
(35,729,l),
(35,0,l)
);
}
);
width = 503;
},
{
anchors = (
{
name = bottom;
pos = (384,0);
},
{
name = top;
pos = (384,729);
}
);
layerId = "B743CB11-DC16-45F2-BA04-3635CB00F7DA";
shapes = (
{
closed = 1;
nodes = (
(173,0,l),
(173,693,l),
(419,693,ls),
(543,693,o),
(616,636,o),
(616,535,cs),
(616,472,ls),
(616,367,o),
(538,314,o),
(419,314,cs),
(164,314,l),
(164,277,l),
(425,277,ls),
(581,277,o),
(659,366,o),
(659,503,cs),
(659,650,o),
(576,729,o),
(426,729,cs),
(134,729,l),
(134,0,l)
);
}
);
width = 722;
},
{
anchors = (
{
name = bottom;
pos = (209,0);
},
{
name = top;
pos = (338,729);
}
);
background = {
shapes = (
{
closed = 1;
nodes = (
(166,0,l),
(271,596,l),
(306,596,ls),
(345,596,o),
(362,578,o),
(354,529,cs),
(343,464,ls),
(336,424,o),
(321,401,o),
(272,401,cs),
(220,401,l),
(198,272,l),
(267,272,ls),
(395,272,o),
(496,309,o),
(522,483,cs),
(544,631,o),
(488,729,o),
(327,729,cs),
(116,729,l),
(-12,0,l)
);
}
);
};
layerId = "3257632A-050A-40C2-B21A-C728868BC46F";
shapes = (
{
closed = 1;
nodes = (
(166,0,l),
(269,586,l),
(305,586,ls),
(344,586,o),
(362,568,o),
(353,519,cs),
(343,464,ls),
(336,424,o),
(321,401,o),
(272,401,cs),
(221,401,l),
(198,272,l),
(267,272,ls),
(395,272,o),
(496,309,o),
(522,483,cs),
(544,631,o),
(488,729,o),
(327,729,cs),
(116,729,l),
(-12,0,l)
);
}
);
width = 504;
},
{
anchors = (
{
name = bottom;
pos = (156,0);
},
{
name = top;
pos = (284,729);
}
);
layerId = "84BE75FC-12C8-47E9-B302-5F6D56903923";
shapes = (
{
closed = 1;
nodes = (
(75,0,l),
(198,701,l),
(272,701,ls),
(366,701,o),
(391,633,o),
(376,547,cs),
(367,495,ls),
(352,410,o),
(307,362,o),
(214,362,cs),
(132,362,l),
(128,335,l),
(209,335,ls),
(315,335,o),
(379,384,o),
(402,517,cs),
(427,661,o),
(378,729,o),
(278,729,cs),
(172,729,l),
(43,0,l)
);
}
);
width = 396;
},
{
anchors = (
{
name = bottom;
pos = (343,0);
},
{
name = top;
pos = (471,729);
}
);
layerId = "33C7CA81-8DED-4513-9072-CA0E40765DD9";
shapes = (
{
closed = 1;
nodes = (
(126,0,l),
(248,694,l),
(514,694,ls),
(628,694,o),
(682,629,o),
(671,534,cs),
(662,471,ls),
(646,381,o),
(573,322,o),
(456,322,cs),
(167,322,l),
(161,287,l),
(449,287,ls),
(607,287,o),
(706,376,o),
(710,523,cs),
(715,650,o),
(650,729,o),
(518,729,cs),
(218,729,l),
(89,0,l)
);
}
);
width = 730;
},
{
anchors = (
{
name = bottom;
pos = (368,0);
},
{
name = top;
pos = (496,729);
}
);
layerId = "46C13DED-2BAB-471A-8D19-A1FA49A5501E";
shapes = (
{
closed = 1;
nodes = (
(103,0,l),
(225,692,l),
(562,692,ls),
(684,692,o),
(760,627,o),
(745,520,cs),
(737,463,ls),
(722,359,o),
(631,310,o),
(506,310,cs),
(139,310,l),
(133,272,l),
(499,272,ls),
(680,272,o),
(788,361,o),
(788,521,cs),
(788,663,o),
(697,729,o),
(566,729,cs),
(193,729,l),
(64,0,l)
);
}
);
width = 810;
},
{
anchors = (
{
name = bottom;
pos = (405,0);
},
{
name = top;
pos = (405,729);
}
);
background = {
shapes = (
{
closed = 1;
nodes = (
(148,0,l),
(148,690,l),
(463,690,ls),
(628,690,o),
(686,633,o),
(686,530,cs),
(686,465,ls),
(686,361,o),
(629,305,o),
(463,305,cs),
(139,305,l),
(139,267,l),
(457,267,ls),
(669,267,o),
(730,363,o),
(730,499,cs),
(730,633,o),
(670,729,o),
(457,729,cs),
(109,729,l),
(109,0,l)
);
}
);
};
layerId = "C1814757-B5F7-4D49-B715-04BFD84ECCF6";
shapes = (
{
closed = 1;
nodes = (
(148,0,l),
(148,690,l),
(483,690,ls),
(631,690,o),
(686,623,o),
(686,520,cs),
(686,478,ls),
(686,375,o),
(631,308,o),
(483,308,cs),
(131,308,l),
(131,269,l),
(483,269,ls),
(631,269,o),
(730,333,o),
(730,499,cs),
(730,637,o),
(661,729,o),
(483,729,cs),
(109,729,l),
(109,0,l)
);
}
);
width = 793;
},
{
anchors = (
{
name = bottom;
pos = (364,0);
},
{
name = top;
pos = (364,729);
}
);
background = {
shapes = (
{
closed = 1;
nodes = (
(276,0,l),
(276,549,l),
(374,549,ls),
(424,549,o),
(457,535,o),
(457,485,cs),
(457,452,ls),
(457,415,o),
(435,388,o),
(374,388,cs),
(259,388,l),
(259,210,l),
(398,210,ls),
(567,210,o),
(682,304,o),
(682,469,cs),
(682,625,o),
(592,729,o),
(397,729,cs),
(63,729,l),
(63,0,l)
);
}
);
};
guides = (
{
pos = (409,214);
}
);
layerId = "8B1B4E65-9831-4464-9A92-CA98D2219836";
shapes = (
{
closed = 1;
nodes = (
(276,0,l),
(276,547,l),
(392,547,ls),
(443,547,o),
(477,522,o),
(477,473,cs),
(477,455,ls),
(477,411,o),
(450,381,o),
(392,381,cs),
(260,381,l),
(260,214,l),
(409,214,ls),
(608,214,o),
(701,317,o),
(701,472,cs),
(701,626,o),
(611,729,o),
(420,729,cs),
(63,729,l),
(63,0,l)
);
}
);
width = 730;
},
{
anchors = (
{
name = bottom;
pos = (334,0);
},
{
name = top;
pos = (463,729);
}
);
guides = (
{
pos = (435,214);
}
);
layerId = "2359B287-0F82-447F-8C68-59A72835D733";
shapes = (
{
closed = 1;
nodes = (
(235,0,l),
(331,547,l),
(440,547,ls),
(483,547,o),
(518,523,o),
(510,472,cs),
(506,446,ls),
(498,395,o),
(448,381,o),
(411,381,cs),
(286,381,l),
(257,214,l),
(434,214,ls),
(615,214,o),
(735,316,o),
(734,498,cs),
(734,646,o),
(638,729,o),
(468,729,cs),
(150,729,l),
(21,0,l)
);
}
);
width = 729;
},
{
anchors = (
{
name = bottom;
pos = (427,0);
},
{
name = top;
pos = (427,729);
}
);
layerId = "46DCD09A-F85A-41B9-8FAA-640012B7D4F4";
shapes = (
{
closed = 1;
nodes = (
(308,0,l),
(308,540,l),
(442,540,ls),
(518,540,o),
(555,520,o),
(555,471,cs),
(555,450,ls),
(555,405,o),
(525,382,o),
(442,382,cs),
(291,382,l),
(291,198,l),
(483,198,ls),
(700,198,o),
(815,303,o),
(815,462,cs),
(815,620,o),
(724,729,o),
(487,729,cs),
(63,729,l),
(63,0,l)
);
}
);
width = 842;
},
{
anchors = (
{
name = bottom;
pos = (369,0);
},
{
name = top;
pos = (498,729);
}
);
layerId = "0D69E86C-407B-4861-9815-978EE2313DB2";
shapes = (
{
closed = 1;
nodes = (
(253,0,l),
(350,541,l),
(499,541,ls),
(549,541,o),
(577,511,o),
(568,467,cs),
(563,442,ls),
(557,407,o),
(524,382,o),
(457,382,cs),
(304,382,l),
(272,198,l),
(496,198,ls),
(701,198,o),
(834,319,o),
(827,490,cs),
(822,635,o),
(723,729,o),
(536,729,cs),
(145,729,l),
(15,0,l)
);
}
);
width = 823;
}
);
metricLeft = H;
unicode = 80;
},
{
color = 6;
glyphname = Thorn;
kernLeft = B;
kernRight = Thorn;
lastChange = "2022-11-17 14:59:21 +0000";
layers = (
{
layerId = "6932EABA-00D8-4526-96D6-87ADD7AC589E";
shapes = (
{
closed = 1;
nodes = (
(119,0,l),
(119,168,l),
(194,168,ls),
(296,168,o),
(355,223,o),
(355,365,cs),
(355,507,o),
(296,562,o),
(194,562,cs),
(119,562,l),
(119,729,l),
(88,729,l),
(88,0,l)
);
},
{
closed = 1;
nodes = (
(119,534,l),
(194,534,ls),
(288,534,o),
(324,477,o),
(324,391,cs),
(324,374,o),
(324,356,o),
(324,339,cs),
(324,253,o),
(288,196,o),
(194,196,cs),
(119,196,l)
);
}
);
width = 395;
},
{
layerId = "E787E54A-EE3E-475A-BF02-8501A6DA5144";
shapes = (
{
closed = 1;
nodes = (
(213,0,l),
(213,136,l),
(267,136,ls),
(397,136,o),
(484,192,o),
(484,369,cs),
(484,517,o),
(408,593,o),
(247,593,cs),
(213,593,l),
(213,729,l),
(35,729,l),
(35,0,l)
);
},
{
closed = 1;
nodes = (
(213,460,l),
(249,460,ls),
(287,460,o),
(309,448,o),
(309,399,cs),
(309,376,o),
(309,354,o),
(309,331,cs),
(309,291,o),
(297,265,o),
(249,265,cs),
(213,265,l)
);
}
);
width = 503;
},
{
layerId = "B743CB11-DC16-45F2-BA04-3635CB00F7DA";
shapes = (
{
closed = 1;
nodes = (
(173,0,l),
(173,139,l),
(425,139,ls),
(581,139,o),
(659,228,o),
(659,365,cs),
(659,512,o),
(576,591,o),
(426,591,cs),
(173,591,l),
(173,729,l),
(134,729,l),
(134,0,l)
);
},
{
closed = 1;
nodes = (
(173,555,l),
(419,555,ls),
(543,555,o),
(616,498,o),
(616,397,cs),
(616,376,o),
(616,355,o),
(616,334,cs),
(616,229,o),
(538,176,o),
(419,176,cs),
(173,176,l)
);
}
);
width = 722;
},
{
layerId = "84BE75FC-12C8-47E9-B302-5F6D56903923";
shapes = (
{
closed = 1;
nodes = (
(74,0,l),
(103,168,l),
(209,168,ls),
(315,168,o),
(379,217,o),
(402,350,cs),
(427,494,o),
(378,562,o),
(278,562,cs),
(173,562,l),
(202,729,l),
(171,729,l),
(43,0,l)
);
},
{
closed = 1;
nodes = (
(168,534,l),
(272,534,ls),
(366,534,o),
(391,466,o),
(376,380,cs),
(373,363,o),
(369,342,o),
(367,328,cs),
(352,243,o),
(307,195,o),
(214,195,cs),
(108,195,l)
);
}
);
width = 426;
},
{
layerId = "3257632A-050A-40C2-B21A-C728868BC46F";
shapes = (
{
closed = 1;
nodes = (
(166,0,l),
(190,136,l),
(267,136,ls),
(395,136,o),
(496,173,o),
(522,347,cs),
(544,495,o),
(488,593,o),
(327,593,cs),
(270,593,l),
(294,729,l),
(116,729,l),
(-12,0,l)
);
},
{
closed = 1;
nodes = (
(247,460,l),
(306,460,ls),
(345,460,o),
(362,442,o),
(354,393,cs),
(350,371,o),
(347,350,o),
(343,328,cs),
(336,288,o),
(321,265,o),
(272,265,cs),
(213,265,l)
);
}
);
width = 528;
},
{
layerId = "33C7CA81-8DED-4513-9072-CA0E40765DD9";
shapes = (
{
closed = 1;
nodes = (
(126,0,l),
(151,144,l),
(449,144,ls),
(607,144,o),
(706,233,o),
(710,380,cs),
(715,507,o),
(650,586,o),
(518,586,cs),
(230,586,l),
(255,729,l),
(218,729,l),
(89,0,l)
);
},
{
closed = 1;
nodes = (
(224,551,l),
(514,551,ls),
(628,551,o),
(682,486,o),
(671,391,cs),
(669,370,o),
(665,348,o),
(662,328,cs),
(646,238,o),
(573,179,o),
(456,179,cs),
(158,179,l)
);
}
);
width = 755;
},
{
layerId = "46C13DED-2BAB-471A-8D19-A1FA49A5501E";
shapes = (
{
closed = 1;
nodes = (
(104,0,l),
(128,136,l),
(485,136,ls),
(659,136,o),
(769,239,o),
(768,389,cs),
(766,510,o),
(697,593,o),
(554,593,cs),
(209,593,l),
(234,729,l),
(193,729,l),
(64,0,l)
);
},
{
closed = 1;
nodes = (
(203,557,l),
(550,557,ls),
(671,557,o),
(733,492,o),
(725,394,cs),
(723,372,o),
(719,350,o),
(716,327,cs),
(700,236,o),
(617,174,o),
(493,174,cs),
(135,174,l)
);
}
);
width = 813;
},
{
layerId = "C1814757-B5F7-4D49-B715-04BFD84ECCF6";
shapes = (
{
closed = 1;
nodes = (
(148,0,l),
(148,135,l),
(457,135,ls),
(669,135,o),
(730,231,o),
(730,365,cs),
(730,501,o),
(670,595,o),
(457,595,cs),
(148,595,l),
(148,729,l),
(109,729,l),
(109,0,l)
);
},
{
closed = 1;
nodes = (
(148,558,l),
(463,558,ls),
(628,558,o),
(686,501,o),
(686,396,cs),
(686,375,o),
(686,353,o),
(686,331,cs),
(686,229,o),
(629,172,o),
(463,172,cs),
(148,172,l)
);
}
);
width = 793;
},
{
layerId = "8B1B4E65-9831-4464-9A92-CA98D2219836";
shapes = (
{
closed = 1;
nodes = (
(276,0,l),
(276,105,l),
(398,105,ls),
(567,105,o),
(682,198,o),
(682,364,cs),
(682,519,o),
(592,624,o),
(397,624,cs),
(276,624,l),
(276,729,l),
(63,729,l),
(63,0,l)
);
},
{
closed = 1;
nodes = (
(276,444,l),
(374,444,ls),
(424,444,o),
(457,429,o),
(457,380,cs),
(457,369,o),
(457,358,o),
(457,347,cs),
(457,309,o),
(435,283,o),
(374,283,cs),
(276,283,l)
);
}
);
width = 711;
},
{
layerId = "2359B287-0F82-447F-8C68-59A72835D733";
shapes = (
{
closed = 1;
nodes = (
(236,0,l),
(254,109,l),
(423,109,ls),
(610,109,o),
(724,212,o),
(723,388,cs),
(723,529,o),
(643,620,o),
(457,620,cs),
(345,620,l),
(364,729,l),
(149,729,l),
(21,0,l)
);
},
{
closed = 1;
nodes = (
(313,440,l),
(431,440,ls),
(468,440,o),
(501,426,o),
(502,383,cs),
(502,368,o),
(500,350,o),
(494,330,cs),
(483,295,o),
(461,278,o),
(400,278,cs),
(285,278,l)
);
}
);
width = 738;
},
{
layerId = "46DCD09A-F85A-41B9-8FAA-640012B7D4F4";
shapes = (
{
closed = 1;
nodes = (
(308,0,l),
(308,99,l),
(473,99,ls),
(678,99,o),
(793,201,o),
(793,364,cs),
(793,521,o),
(704,630,o),
(478,630,cs),
(308,630,l),
(308,729,l),
(63,729,l),
(63,0,l)
);
},
{
closed = 1;
nodes = (
(308,441,l),
(430,441,ls),
(500,441,o),
(533,421,o),
(533,370,cs),
(533,364,o),
(533,357,o),
(533,352,cs),
(533,307,o),
(506,282,o),
(430,282,cs),
(308,282,l)
);
}
);
width = 820;
},
{
layerId = "0D69E86C-407B-4861-9815-978EE2313DB2";
shapes = (
{
closed = 1;
nodes = (
(254,0,l),
(271,102,l),
(484,102,ls),
(696,102,o),
(811,224,o),
(807,389,cs),
(802,531,o),
(705,628,o),
(502,628,cs),
(366,628,l),
(383,729,l),
(145,729,l),
(15,0,l)
);
},
{
closed = 1;
nodes = (
(332,442,l),
(474,442,ls),
(514,442,o),
(547,426,o),
(549,378,cs),
(549,372,o),
(547,357,o),
(544,347,cs),
(537,305,o),
(514,281,o),
(444,281,cs),
(304,281,l)
);
}
);
width = 820;
}
);
metricLeft = B;
metricRight = P;
unicode = 222;
},
{
color = 6;
glyphname = Q;
kernLeft = C;
kernRight = D;
lastChange = "2022-11-17 14:59:21 +0000";
layers = (
{
layerId = "6932EABA-00D8-4526-96D6-87ADD7AC589E";
shapes = (
{
closed = 1;
nodes = (
(324,-9,o),
(388,47,o),
(388,222,cs),
(388,507,ls),
(388,682,o),
(324,738,o),
(228,739,cs),
(132,738,o),
(68,682,o),
(68,507,cs),
(68,222,ls),
(68,47,o),
(132,-9,o),
(228,-10,cs)
);
},
{
closed = 1;
nodes = (
(336,-167,l),
(336,-139,l),
(243,-139,l),
(243,4,l),
(214,4,l),
(214,-126,ls),
(214,-151,o),
(225,-167,o),
(253,-167,cs)
);
},
{
closed = 1;
nodes = (
(124,18,o),
(99,100,o),
(99,223,cs),
(99,506,ls),
(99,629,o),
(124,711,o),
(228,711,cs),
(332,711,o),
(357,629,o),
(357,506,cs),
(357,223,ls),
(357,100,o),
(332,18,o),
(228,18,cs)
);
}
);
width = 456;
},
{
layerId = "E787E54A-EE3E-475A-BF02-8501A6DA5144";
shapes = (
{
closed = 1;
nodes = (
(419,-10,o),
(505,63,o),
(505,252,cs),
(505,477,ls),
(505,666,o),
(419,739,o),
(266,739,cs),
(113,739,o),
(27,666,o),
(27,477,cs),
(27,252,ls),
(27,63,o),
(113,-10,o),
(266,-10,cs)
);
},
{
closed = 1;
nodes = (
(449,-167,l),
(449,-53,l),
(346,-53,l),
(346,30,l),
(200,30,l),
(200,-74,ls),
(200,-130,o),
(242,-167,o),
(305,-167,cs)
);
},
{
closed = 1;
nodes = (
(229,136,o),
(205,156,o),
(205,227,cs),
(205,502,ls),
(205,573,o),
(229,593,o),
(266,593,cs),
(303,593,o),
(327,573,o),
(327,502,cs),
(327,227,ls),
(327,156,o),
(303,136,o),
(266,136,cs)
);
}
);
width = 532;
},
{
layerId = "B743CB11-DC16-45F2-BA04-3635CB00F7DA";
shapes = (
{
closed = 1;
nodes = (
(594,-10,o),
(730,109,o),
(730,361,cs),
(730,366,ls),
(730,610,o),
(603,738,o),
(395,738,cs),
(187,738,o),
(60,610,o),
(60,366,cs),
(60,361,ls),
(60,109,o),
(196,-10,o),
(395,-10,cs)
);
},
{
closed = 1;
nodes = (
(639,-167,l),
(639,-133,l),
(416,-133,l),
(416,4,l),
(377,4,l),
(377,-113,ls),
(377,-147,o),
(390,-167,o),
(433,-167,cs)
);
},
{
closed = 1;
nodes = (
(203,26,o),
(103,148,o),
(103,316,cs),
(103,412,ls),
(103,580,o),
(203,702,o),
(395,702,cs),
(587,702,o),
(687,580,o),
(687,412,cs),
(687,316,ls),
(687,148,o),
(587,26,o),
(395,26,cs)
);
}
);
width = 791;
},
{
layerId = "3257632A-050A-40C2-B21A-C728868BC46F";
shapes = (
{
closed = 1;
nodes = (
(391,-11,o),
(478,58,o),
(507,226,cs),
(547,457,ls),
(580,645,o),
(505,740,o),
(315,740,cs),
(183,740,o),
(96,672,o),
(67,501,cs),
(27,270,ls),
(-5,88,o),
(66,-11,o),
(258,-11,cs)
);
},
{
closed = 1;
nodes = (
(372,-167,l),
(392,-53,l),
(285,-53,l),
(303,30,l),
(157,30,l),
(139,-74,ls),
(129,-130,o),
(165,-167,o),
(228,-167,cs)
);
},
{
closed = 1;
nodes = (
(202,136,o),
(187,165,o),
(197,222,cs),
(249,520,ls),
(259,577,o),
(285,592,o),
(317,592,cs),
(372,592,o),
(387,565,o),
(378,509,cs),
(325,209,ls),
(316,157,o),
(295,136,o),
(258,136,cs)
);
}
);
width = 542;
},
{
layerId = "84BE75FC-12C8-47E9-B302-5F6D56903923";
shapes = (
{
closed = 1;
nodes = (
(281,-9,o),
(336,29,o),
(364,181,cs),
(425,523,ls),
(448,653,o),
(408,739,o),
(291,739,cs),
(203,739,o),
(146,701,o),
(119,549,cs),
(59,207,ls),
(36,77,o),
(76,-9,o),
(193,-9,cs)
);
},
{
closed = 1;
nodes = (
(258,-167,l),
(263,-139,l),
(171,-139,l),
(200,4,l),
(170,4,l),
(143,-126,ls),
(138,-151,o),
(147,-167,o),
(175,-167,cs)
);
},
{
closed = 1;
nodes = (
(109,18,o),
(65,70,o),
(88,202,cs),
(149,546,ls),
(169,659,o),
(201,712,o),
(292,712,cs),
(375,712,o),
(418,660,o),
(395,528,cs),
(334,184,ls),
(313,71,o),
(283,18,o),
(192,18,cs)
);
}
);
width = 446;
},
{
layerId = "33C7CA81-8DED-4513-9072-CA0E40765DD9";
shapes = (
{
closed = 1;
nodes = (
(640,-10,o),
(762,176,o),
(762,415,cs),
(762,423,ls),
(762,623,o),
(631,739,o),
(433,739,cs),
(202,739,o),
(80,553,o),
(80,314,cs),
(80,306,ls),
(80,106,o),
(211,-10,o),
(409,-10,cs)
);
},
{
closed = 1;
nodes = (
(570,-167,l),
(576,-134,l),
(373,-134,l),
(403,4,l),
(366,3,l),
(340,-115,ls),
(333,-148,o),
(344,-167,o),
(387,-167,cs)
);
},
{
closed = 1;
nodes = (
(214,26,o),
(93,152,o),
(124,353,cs),
(140,449,ls),
(166,599,o),
(265,703,o),
(433,703,cs),
(628,703,o),
(751,577,o),
(718,376,cs),
(702,280,ls),
(677,130,o),
(577,26,o),
(409,26,cs)
);
}
);
width = 805;
},
{
layerId = "46C13DED-2BAB-471A-8D19-A1FA49A5501E";
shapes = (
{
closed = 1;
nodes = (
(717,-10,o),
(867,152,o),
(867,392,cs),
(867,398,ls),
(865,618,o),
(709,739,o),
(477,739,cs),
(230,739,o),
(80,577,o),
(80,337,cs),
(80,331,ls),
(82,111,o),
(238,-10,o),
(470,-10,cs)
);
},
{
closed = 1;
nodes = (
(663,-167,l),
(669,-132,l),
(424,-132,l),
(448,4,l),
(409,3,l),
(387,-112,ls),
(381,-146,o),
(400,-167,o),
(444,-167,cs)
);
},
{
closed = 1;
nodes = (
(253,27,o),
(96,152,o),
(125,354,cs),
(137,438,ls),
(162,611,o),
(290,702,o),
(477,702,cs),
(694,702,o),
(851,577,o),
(822,375,cs),
(810,291,ls),
(785,118,o),
(657,27,o),
(470,27,cs)
);
}
);
width = 910;
},
{
layerId = "C1814757-B5F7-4D49-B715-04BFD84ECCF6";
shapes = (
{
closed = 1;
nodes = (
(696,-10,o),
(854,121,o),
(854,362,cs),
(854,366,ls),
(854,607,o),
(696,738,o),
(456,738,cs),
(216,738,o),
(58,607,o),
(58,366,cs),
(58,362,ls),
(58,121,o),
(216,-10,o),
(456,-10,cs)
);
},
{
closed = 1;
nodes = (
(760,-167,l),
(760,-131,l),
(485,-131,l),
(485,4,l),
(444,3,l),
(444,-111,ls),
(444,-147,o),
(460,-167,o),
(510,-167,cs)
);
},
{
closed = 1;
nodes = (
(216,28,o),
(103,164,o),
(103,336,cs),
(103,392,ls),
(103,570,o),
(216,700,o),
(456,700,cs),
(696,700,o),
(809,570,o),
(809,392,cs),
(809,336,ls),
(809,164,o),
(696,28,o),
(456,28,cs)
);
}
);
width = 912;
},
{
layerId = "8B1B4E65-9831-4464-9A92-CA98D2219836";
shapes = (
{
closed = 1;
nodes = (
(629,21,o),
(760,146,o),
(760,368,cs),
(760,370,ls),
(760,610,o),
(615,738,o),
(395,738,cs),
(175,738,o),
(31,610,o),
(31,370,cs),
(31,368,ls),
(31,146,o),
(161,21,o),
(395,21,cs)
);
},
{
closed = 1;
nodes = (
(674,-168,l),
(674,-14,l),
(486,-14,l),
(486,35,l),
(312,35,l),
(311,-75,ls),
(310,-130,o),
(350,-168,o),
(417,-168,cs)
);
},
{
closed = 1;
nodes = (
(312,194,o),
(255,234,o),
(255,324,cs),
(255,424,ls),
(255,502,o),
(299,554,o),
(396,554,cs),
(493,554,o),
(537,502,o),
(537,424,cs),
(537,324,ls),
(537,234,o),
(480,194,o),
(396,194,cs)
);
}
);
width = 791;
},
{
layerId = "2359B287-0F82-447F-8C68-59A72835D733";
shapes = (
{
closed = 1;
nodes = (
(631,10,o),
(774,165,o),
(774,420,cs),
(774,429,ls),
(774,615,o),
(638,739,o),
(435,739,cs),
(193,739,o),
(50,584,o),
(50,329,cs),
(50,320,ls),
(50,134,o),
(186,10,o),
(389,10,cs)
);
},
{
closed = 1;
nodes = (
(604,-178,l),
(627,-44,l),
(449,-44,l),
(461,25,l),
(288,25,l),
(273,-59,ls),
(260,-130,o),
(301,-178,o),
(386,-178,cs)
);
},
{
closed = 1;
nodes = (
(297,183,o),
(246,242,o),
(266,356,cs),
(281,442,ls),
(296,526,o),
(341,566,o),
(424,566,cs),
(529,566,o),
(577,501,o),
(558,393,cs),
(543,307,ls),
(527,218,o),
(479,183,o),
(400,183,cs)
);
}
);
width = 788;
},
{
layerId = "46DCD09A-F85A-41B9-8FAA-640012B7D4F4";
shapes = (
{
closed = 1;
nodes = (
(739,1,o),
(917,131,o),
(917,361,cs),
(917,380,ls),
(917,594,o),
(757,739,o),
(472,739,cs),
(205,739,o),
(28,609,o),
(28,380,cs),
(28,361,ls),
(28,146,o),
(188,1,o),
(472,1,cs)
);
},
{
closed = 1;
nodes = (
(768,-182,l),
(768,-39,l),
(565,-39,l),
(565,25,l),
(372,25,l),
(372,-72,ls),
(372,-136,o),
(413,-182,o),
(508,-182,cs)
);
},
{
closed = 1;
nodes = (
(345,179,o),
(284,240,o),
(284,323,cs),
(284,406,ls),
(284,489,o),
(345,550,o),
(472,550,cs),
(599,550,o),
(660,489,o),
(660,406,cs),
(660,323,ls),
(660,240,o),
(599,179,o),
(472,179,cs)
);
}
);
width = 945;
},
{
layerId = "0D69E86C-407B-4861-9815-978EE2313DB2";
shapes = (
{
closed = 1;
nodes = (
(746,1,o),
(901,151,o),
(901,376,cs),
(901,383,ls),
(899,591,o),
(744,739,o),
(477,739,cs),
(220,739,o),
(49,590,o),
(49,353,cs),
(49,346,ls),
(51,140,o),
(202,1,o),
(472,1,cs)
);
},
{
closed = 1;
nodes = (
(692,-179,l),
(716,-41,l),
(520,-41,l),
(531,27,l),
(341,27,l),
(323,-63,ls),
(310,-132,o),
(358,-179,o),
(440,-179,cs)
);
},
{
closed = 1;
nodes = (
(360,176,o),
(277,221,o),
(293,329,cs),
(307,427,ls),
(319,513,o),
(383,553,o),
(477,553,cs),
(589,553,o),
(672,508,o),
(656,400,cs),
(642,302,ls),
(630,216,o),
(566,176,o),
(472,176,cs)
);
}
);
width = 918;
}
);
metricLeft = O;
metricRight = O;
unicode = 81;
},
{
color = 6;
glyphname = R;
kernLeft = B;
kernRight = R;
lastChange = "2022-11-17 14:59:21 +0000";
layers = (
{
anchors = (
{
name = bottom;
pos = (205,0);
},
{
name = top;
pos = (195,729);
}
);
layerId = "6932EABA-00D8-4526-96D6-87ADD7AC589E";
shapes = (
{
closed = 1;
nodes = (
(119,0,l),
(119,713,l),
(106,701,l),
(194,701,ls),
(288,701,o),
(324,644,o),
(324,558,cs),
(324,506,ls),
(324,420,o),
(288,363,o),
(194,363,cs),
(112,363,l),
(112,335,l),
(193,335,l),
(325,0,l),
(359,0,l),
(220,352,l),
(220,336,l),
(305,345,o),
(355,402,o),
(355,532,cs),
(355,674,o),
(296,729,o),
(194,729,cs),
(88,729,l),
(88,0,l)
);
}
);
width = 407;
},
{
anchors = (
{
name = bottom;
pos = (265,0);
},
{
name = top;
pos = (245,729);
}
);
layerId = "E787E54A-EE3E-475A-BF02-8501A6DA5144";
shapes = (
{
closed = 1;
nodes = (
(213,0,l),
(213,610,l),
(192,586,l),
(261,586,ls),
(297,586,o),
(321,565,o),
(321,520,cs),
(321,472,ls),
(321,429,o),
(302,401,o),
(261,401,cs),
(197,401,l),
(197,262,l),
(235,262,l),
(312,0,l),
(501,0,l),
(388,327,l),
(375,290,l),
(458,315,o),
(499,386,o),
(499,495,cs),
(499,653,o),
(423,729,o),
(262,729,cs),
(35,729,l),
(35,0,l)
);
}
);
width = 514;
},
{
anchors = (
{
name = bottom;
pos = (397,0);
},
{
name = top;
pos = (367,729);
}
);
layerId = "B743CB11-DC16-45F2-BA04-3635CB00F7DA";
shapes = (
{
closed = 1;
nodes = (
(173,0,l),
(173,720,l),
(146,693,l),
(419,693,ls),
(543,693,o),
(616,640,o),
(616,545,cs),
(616,482,ls),
(616,384,o),
(538,334,o),
(419,334,cs),
(164,334,l),
(164,297,l),
(405,297,l),
(618,0,l),
(666,0,l),
(445,309,l),
(438,297,l),
(586,301,o),
(659,385,o),
(659,513,cs),
(659,653,o),
(576,729,o),
(426,729,cs),
(134,729,l),
(134,0,l)
);
}
);
width = 744;
},
{
anchors = (
{
name = bottom;
pos = (218,0);
},
{
name = top;
pos = (294,729);
}
);
background = {
shapes = (
{
closed = 1;
nodes = (
(460,340,o),
(513,401,o),
(531,505,cs),
(557,653,o),
(494,729,o),
(333,729,cs),
(116,729,l),
(-12,0,l),
(166,0,l),
(214,272,l),
(254,272,l),
(393,315,l)
);
},
{
closed = 1;
nodes = (
(271,596,l),
(312,596,ls),
(350,596,o),
(370,584,o),
(361,535,cs),
(349,467,ls),
(342,427,o),
(325,401,o),
(277,401,cs),
(236,401,l)
);
}
);
};
layerId = "3257632A-050A-40C2-B21A-C728868BC46F";
shapes = (
{
closed = 1;
nodes = (
(166,0,l),
(275,620,l),
(241,586,l),
(305,586,ls),
(341,586,o),
(362,568,o),
(351,509,cs),
(343,464,ls),
(336,424,o),
(321,401,o),
(272,401,cs),
(221,401,l),
(196,262,l),
(230,262,l),
(275,0,l),
(456,0,l),
(386,334,l),
(361,296,l),
(462,308,o),
(527,401,o),
(527,541,cs),
(527,654,o),
(464,729,o),
(329,729,cs),
(116,729,l),
(-12,0,l)
);
}
);
width = 511;
},
{
anchors = (
{
name = bottom;
pos = (181,0);
},
{
name = top;
pos = (289,729);
}
);
background = {
shapes = (
{
closed = 1;
nodes = (
(322,345,o),
(381,402,o),
(405,532,cs),
(430,674,o),
(380,729,o),
(278,729,cs),
(172,729,l),
(44,0,l),
(75,0,l),
(134,335,l),
(216,335,l),
(233,336,l)
);
},
{
closed = 1;
nodes = (
(198,701,l),
(273,701,ls),
(367,701,o),
(393,644,o),
(378,558,cs),
(369,506,ls),
(354,420,o),
(308,363,o),
(214,363,cs),
(139,363,l)
);
},
{
closed = 1;
nodes = (
(281,0,l),
(315,0,l),
(239,345,l),
(206,343,l)
);
}
);
};
layerId = "84BE75FC-12C8-47E9-B302-5F6D56903923";
shapes = (
{
closed = 1;
nodes = (
(75,0,l),
(201,716,l),
(184,701,l),
(272,701,ls),
(366,701,o),
(391,633,o),
(376,547,cs),
(367,495,ls),
(352,410,o),
(307,362,o),
(214,362,cs),
(132,362,l),
(127,335,l),
(209,335,l),
(283,0,l),
(315,0,l),
(238,347,l),
(232,336,l),
(325,342,o),
(381,394,o),
(402,517,cs),
(427,661,o),
(378,729,o),
(278,729,cs),
(172,729,l),
(43,0,l)
);
}
);
width = 408;
},
{
anchors = (
{
name = bottom;
pos = (351,0);
},
{
name = top;
pos = (439,729);
}
);
background = {
shapes = (
{
closed = 1;
nodes = (
(594,302,o),
(683,386,o),
(705,513,cs),
(730,653,o),
(660,729,o),
(510,729,cs),
(218,729,l),
(90,0,l),
(129,0,l),
(181,297,l),
(425,297,l),
(446,297,ls)
);
},
{
closed = 1;
nodes = (
(251,693,l),
(497,693,ls),
(621,693,o),
(685,640,o),
(668,545,cs),
(657,482,ls),
(639,384,o),
(553,334,o),
(434,334,cs),
(188,334,l)
);
},
{
closed = 1;
nodes = (
(574,0,l),
(622,0,l),
(454,308,l),
(407,307,l)
);
},
{
closed = 1;
nodes = (
(574,0,l),
(622,0,l),
(454,308,l),
(407,307,l)
);
}
);
};
layerId = "33C7CA81-8DED-4513-9072-CA0E40765DD9";
shapes = (
{
closed = 1;
nodes = (
(126,0,l),
(255,720,l),
(223,694,l),
(516,694,ls),
(630,694,o),
(686,633,o),
(673,544,cs),
(664,481,ls),
(651,391,o),
(575,332,o),
(458,332,cs),
(176,332,l),
(170,297,l),
(418,297,l),
(580,0,l),
(622,0,l),
(454,307,l),
(448,297,l),
(608,295,o),
(708,385,o),
(712,533,cs),
(717,654,o),
(652,729,o),
(520,729,cs),
(220,729,l),
(89,0,l)
);
}
);
width = 734;
},
{
anchors = (
{
name = bottom;
pos = (369,0);
},
{
name = top;
pos = (447,729);
}
);
background = {
shapes = (
{
closed = 1;
nodes = (
(86,0,l),
(136,287,l),
(434,287,l),
(623,0,l),
(673,0,l),
(484,287,l),
(625,288,o),
(731,359,o),
(757,509,cs),
(781,641,o),
(720,729,o),
(559,729,cs),
(175,729,l),
(47,0,l)
);
},
{
closed = 1;
nodes = (
(207,690,l),
(552,690,ls),
(668,690,o),
(736,638,o),
(717,530,cs),
(709,485,ls),
(693,395,o),
(627,325,o),
(488,325,cs),
(143,325,l)
);
}
);
};
layerId = "46C13DED-2BAB-471A-8D19-A1FA49A5501E";
shapes = (
{
closed = 1;
nodes = (
(103,0,l),
(231,718,l),
(199,692,l),
(564,692,ls),
(686,692,o),
(761,630,o),
(747,527,cs),
(739,470,ls),
(725,370,o),
(633,324,o),
(508,324,cs),
(151,324,l),
(144,286,l),
(437,286,l),
(624,0,l),
(673,0,l),
(475,299,l),
(468,286,l),
(681,281,o),
(790,366,o),
(790,528,cs),
(790,666,o),
(699,729,o),
(568,729,cs),
(194,729,l),
(64,0,l)
);
}
);
width = 788;
},
{
anchors = (
{
name = bottom;
pos = (414,0);
},
{
name = top;
pos = (383,729);
}
);
background = {
shapes = (
{
closed = 1;
nodes = (
(148,0,l),
(148,690,l),
(493,690,ls),
(609,690,o),
(686,648,o),
(686,540,cs),
(686,475,ls),
(686,385,o),
(632,325,o),
(493,325,cs),
(139,325,l),
(139,287,l),
(493,287,ls),
(634,287,o),
(730,349,o),
(730,509,cs),
(730,641,o),
(663,729,o),
(493,729,cs),
(109,729,l),
(109,0,l)
);
},
{
closed = 1;
nodes = (
(685,0,l),
(735,0,l),
(478,308,l),
(428,308,l)
);
}
);
};
layerId = "C1814757-B5F7-4D49-B715-04BFD84ECCF6";
shapes = (
{
closed = 1;
nodes = (
(148,0,l),
(148,717,l),
(121,690,l),
(493,690,ls),
(609,690,o),
(686,638,o),
(686,530,cs),
(686,485,ls),
(686,395,o),
(632,325,o),
(493,325,cs),
(139,325,l),
(139,287,l),
(446,287,l),
(685,0,l),
(735,0,l),
(485,300,l),
(485,287,l),
(631,284,o),
(730,355,o),
(730,509,cs),
(730,641,o),
(654,729,o),
(493,729,cs),
(109,729,l),
(109,0,l)
);
}
);
width = 790;
},
{
anchors = (
{
name = bottom;
pos = (378,0);
},
{
name = top;
pos = (359,729);
}
);
background = {
shapes = (
{
closed = 1;
nodes = (
(276,0,l),
(276,279,l),
(501,279,l),
(501,0,l),
(713,0,l),
(713,729,l),
(501,729,l),
(501,459,l),
(276,459,l),
(276,729,l),
(63,729,l),
(63,0,l)
);
}
);
};
layerId = "8B1B4E65-9831-4464-9A92-CA98D2219836";
shapes = (
{
closed = 1;
nodes = (
(276,0,l),
(276,576,l),
(249,547,l),
(392,547,ls),
(443,547,o),
(477,525,o),
(477,483,cs),
(477,465,ls),
(477,427,o),
(450,401,o),
(392,401,cs),
(260,401,l),
(260,244,l),
(332,244,l),
(463,0,l),
(711,0,l),
(535,305,l),
(523,273,l),
(631,295,o),
(701,376,o),
(701,489,cs),
(701,632,o),
(614,729,o),
(430,729,cs),
(63,729,l),
(63,0,l)
);
}
);
width = 740;
},
{
anchors = (
{
name = bottom;
pos = (352,0);
},
{
name = top;
pos = (452,729);
}
);
background = {
shapes = (
{
closed = 1;
nodes = (
(233,0,l),
(276,244,l),
(332,244,l),
(420,0,l),
(668,0,l),
(555,280,l),
(653,309,o),
(726,386,o),
(744,489,cs),
(769,632,o),
(699,729,o),
(515,729,cs),
(148,729,l),
(20,0,l)
);
},
{
closed = 1;
nodes = (
(329,547,l),
(445,547,ls),
(496,547,o),
(526,525,o),
(519,483,cs),
(516,465,ls),
(509,427,o),
(477,401,o),
(419,401,cs),
(303,401,l)
);
}
);
};
layerId = "2359B287-0F82-447F-8C68-59A72835D733";
shapes = (
{
closed = 1;
nodes = (
(236,0,l),
(339,585,l),
(299,547,l),
(442,547,ls),
(485,547,o),
(519,526,o),
(512,482,cs),
(508,456,ls),
(501,413,o),
(450,401,o),
(413,401,cs),
(291,401,l),
(263,244,l),
(349,244,l),
(436,0,l),
(668,0,l),
(548,295,l),
(532,266,l),
(656,289,o),
(737,376,o),
(736,508,cs),
(736,641,o),
(654,729,o),
(480,729,cs),
(150,729,l),
(21,0,l)
);
}
);
width = 732;
},
{
anchors = (
{
name = bottom;
pos = (438,0);
},
{
name = top;
pos = (418,729);
}
);
layerId = "46DCD09A-F85A-41B9-8FAA-640012B7D4F4";
shapes = (
{
closed = 1;
nodes = (
(308,0,l),
(308,568,l),
(284,543,l),
(485,543,ls),
(542,543,o),
(577,528,o),
(577,481,cs),
(577,463,ls),
(577,425,o),
(554,401,o),
(485,401,cs),
(292,401,l),
(292,231,l),
(388,231,l),
(550,0,l),
(850,0,l),
(628,295,l),
(616,267,l),
(752,275,o),
(845,358,o),
(845,489,cs),
(845,643,o),
(753,729,o),
(558,729,cs),
(63,729,l),
(63,0,l)
);
}
);
width = 881;
},
{
anchors = (
{
name = bottom;
pos = (381,0);
},
{
name = top;
pos = (482,729);
}
);
layerId = "0D69E86C-407B-4861-9815-978EE2313DB2";
shapes = (
{
closed = 1;
nodes = (
(254,0,l),
(358,581,l),
(316,545,l),
(517,545,ls),
(574,545,o),
(594,516,o),
(586,473,cs),
(584,458,ls),
(578,425,o),
(548,402,o),
(473,402,cs),
(309,402,l),
(279,234,l),
(391,234,l),
(515,0,l),
(786,0,l),
(615,298,l),
(601,267,l),
(753,278,o),
(858,368,o),
(858,513,cs),
(858,638,o),
(776,729,o),
(598,729,cs),
(145,729,l),
(15,0,l)
);
}
);
width = 851;
}
);
metricLeft = H;
unicode = 82;
},
{
color = 6;
glyphname = S;
kernLeft = S;
kernRight = S;
lastChange = "2022-11-17 14:59:21 +0000";
layers = (
{
anchors = (
{
name = bottom;
pos = (211,0);
},
{
name = top;
pos = (210,729);
}
);
layerId = "6932EABA-00D8-4526-96D6-87ADD7AC589E";
shapes = (
{
closed = 1;
nodes = (
(301,-9,o),
(363,44,o),
(363,162,cs),
(363,293,o),
(292,338,o),
(224,381,cs),
(161,421,o),
(100,460,o),
(100,565,cs),
(100,633,o),
(122,711,o),
(210,711,cs),
(302,711,o),
(334,655,o),
(335,504,c),
(366,504,l),
(364,659,o),
(327,739,o),
(210,739,cs),
(126,739,o),
(70,684,o),
(70,567,cs),
(70,443,o),
(137,400,o),
(204,358,cs),
(268,317,o),
(332,276,o),
(332,163,cs),
(332,96,o),
(308,17,o),
(218,17,cs),
(122,17,o),
(91,74,o),
(90,224,c),
(60,224,l),
(62,64,o),
(100,-9,o),
(218,-9,cs)
);
}
);
width = 426;
},
{
anchors = (
{
name = bottom;
pos = (256,0);
},
{
name = top;
pos = (252,729);
}
);
layerId = "E787E54A-EE3E-475A-BF02-8501A6DA5144";
shapes = (
{
closed = 1;
nodes = (
(375,-10,o),
(481,50,o),
(481,204,cs),
(481,351,o),
(379,407,o),
(297,451,cs),
(242,481,o),
(196,506,o),
(196,551,cs),
(196,578,o),
(213,598,o),
(246,598,cs),
(285,598,o),
(303,570,o),
(302,512,c),
(473,512,l),
(475,675,o),
(384,739,o),
(248,739,cs),
(114,739,o),
(22,666,o),
(22,536,cs),
(22,402,o),
(112,349,o),
(188,305,cs),
(246,271,o),
(296,242,o),
(296,185,cs),
(296,151,o),
(278,135,o),
(247,135,cs),
(204,135,o),
(190,167,o),
(192,227,c),
(23,227,l),
(18,85,o),
(81,-10,o),
(244,-10,cs)
);
}
);
width = 500;
},
{
anchors = (
{
name = bottom;
pos = (341,0);
},
{
name = top;
pos = (337,729);
}
);
background = {
shapes = (
{
closed = 1;
nodes = (
(498,-10,o),
(600,66,o),
(600,195,cs),
(600,323,o),
(502,362,o),
(423,381,cs),
(298,410,ls),
(198,435,o),
(143,472,o),
(143,553,cs),
(143,643,o),
(219,702,o),
(338,702,cs),
(476,702,o),
(538,635,o),
(543,526,c),
(586,526,l),
(583,654,o),
(500,739,o),
(340,739,cs),
(195,739,o),
(100,663,o),
(100,549,cs),
(100,443,o),
(175,398,o),
(286,372,cs),
(411,342,ls),
(482,325,o),
(556,291,o),
(556,193,cs),
(556,90,o),
(473,27,o),
(341,27,cs),
(205,27,o),
(120,86,o),
(114,226,c),
(72,226,l),
(74,90,o),
(158,-10,o),
(341,-10,cs)
);
}
);
};
layerId = "B743CB11-DC16-45F2-BA04-3635CB00F7DA";
shapes = (
{
closed = 1;
nodes = (
(496,-10,o),
(600,56,o),
(600,195,cs),
(600,339,o),
(473,374,o),
(353,399,cs),
(245,422,o),
(143,443,o),
(143,553,cs),
(143,643,o),
(219,702,o),
(338,702,cs),
(476,702,o),
(538,635,o),
(543,526,c),
(586,526,l),
(583,654,o),
(500,739,o),
(340,739,cs),
(195,739,o),
(100,663,o),
(100,552,cs),
(100,416,o),
(218,388,o),
(334,363,cs),
(446,338,o),
(556,315,o),
(556,193,cs),
(556,93,o),
(487,27,o),
(341,27,cs),
(205,27,o),
(120,86,o),
(114,226,c),
(72,226,l),
(74,90,o),
(158,-10,o),
(341,-10,cs)
);
}
);
width = 672;
},
{
anchors = (
{
name = bottom;
pos = (230,0);
},
{
name = top;
pos = (321,729);
}
);
layerId = "3257632A-050A-40C2-B21A-C728868BC46F";
shapes = (
{
closed = 1;
nodes = (
(355,-10,o),
(446,58,o),
(464,161,cs),
(491,311,o),
(411,391,o),
(332,445,cs),
(272,486,o),
(248,507,o),
(248,544,cs),
(248,574,o),
(268,598,o),
(298,598,cs),
(346,598,o),
(356,562,o),
(347,511,c),
(517,511,l),
(530,648,o),
(444,739,o),
(298,739,cs),
(181,739,o),
(92,671,o),
(74,568,cs),
(53,441,o),
(115,372,o),
(194,312,cs),
(249,270,o),
(282,247,o),
(282,197,cs),
(282,159,o),
(262,135,o),
(231,135,cs),
(184,135,o),
(175,173,o),
(186,227,c),
(17,227,l),
(1,85,o),
(89,-10,o),
(237,-10,cs)
);
}
);
width = 503;
},
{
anchors = (
{
name = bottom;
pos = (165,0);
},
{
name = top;
pos = (282,729);
}
);
background = {
shapes = (
{
closed = 1;
nodes = (
(242,-15,o),
(312,32,o),
(333,150,cs),
(356,278,o),
(293,331,o),
(234,380,cs),
(179,425,o),
(125,469,o),
(143,572,cs),
(156,644,o),
(191,718,o),
(278,710,cs),
(369,702,o),
(390,641,o),
(365,493,c),
(396,490,l),
(421,645,o),
(398,728,o),
(282,738,cs),
(199,745,o),
(134,694,o),
(114,580,cs),
(92,455,o),
(150,407,o),
(209,359,cs),
(265,314,o),
(323,265,o),
(303,155,cs),
(291,86,o),
(253,10,o),
(164,18,cs),
(70,26,o),
(49,86,o),
(74,235,c),
(44,238,l),
(18,79,o),
(43,2,o),
(159,-8,cs)
);
}
);
};
layerId = "84BE75FC-12C8-47E9-B302-5F6D56903923";
shapes = (
{
closed = 1;
nodes = (
(255,-10,o),
(316,40,o),
(333,140,cs),
(353,254,o),
(305,322,o),
(234,380,cs),
(173,430,o),
(129,482,o),
(144,582,cs),
(157,660,o),
(195,712,o),
(272,710,cs),
(349,708,o),
(390,652,o),
(367,503,c),
(398,503,l),
(420,644,o),
(382,735,o),
(271,738,cs),
(187,740,o),
(131,687,o),
(114,590,cs),
(94,478,o),
(143,413,o),
(209,359,cs),
(272,307,o),
(319,251,o),
(302,145,cs),
(289,68,o),
(250,18,o),
(170,20,cs),
(92,22,o),
(49,77,o),
(72,224,c),
(42,224,l),
(20,85,o),
(52,-5,o),
(171,-8,cs)
);
}
);
width = 405;
},
{
anchors = (
{
name = bottom;
pos = (313,0);
},
{
name = top;
pos = (420,729);
}
);
layerId = "33C7CA81-8DED-4513-9072-CA0E40765DD9";
shapes = (
{
closed = 1;
nodes = (
(495,-10,o),
(584,66,o),
(584,189,cs),
(584,329,o),
(453,368,o),
(375,398,cs),
(282,434,o),
(193,465,o),
(193,553,cs),
(193,643,o),
(256,703,o),
(369,703,cs),
(502,703,o),
(590,640,o),
(588,528,c),
(629,528,l),
(630,655,o),
(527,739,o),
(371,739,cs),
(238,739,o),
(152,665,o),
(152,553,cs),
(152,442,o),
(269,395,o),
(351,365,cs),
(449,329,o),
(543,293,o),
(543,196,cs),
(543,93,o),
(483,28,o),
(355,28,cs),
(215,28,o),
(103,87,o),
(107,226,c),
(66,226,l),
(68,62,o),
(191,-10,o),
(359,-10,cs)
);
}
);
width = 672;
},
{
anchors = (
{
name = bottom;
pos = (340,0);
},
{
name = top;
pos = (443,729);
}
);
background = {
shapes = (
{
closed = 1;
nodes = (
(536,-10,o),
(658,64,o),
(656,195,cs),
(653,358,o),
(491,381,o),
(391,399,cs),
(236,428,o),
(158,458,o),
(156,553,cs),
(154,643,o),
(242,702,o),
(396,702,cs),
(541,702,o),
(645,639,o),
(653,540,c),
(693,540,l),
(688,662,o),
(568,739,o),
(392,739,cs),
(222,739,o),
(112,671,o),
(114,550,cs),
(116,438,o),
(198,393,o),
(369,363,cs),
(500,340,o),
(610,319,o),
(612,194,cs),
(614,94,o),
(533,26,o),
(355,26,cs),
(198,26,o),
(84,97,o),
(80,216,c),
(39,216,l),
(43,71,o),
(173,-10,o),
(355,-10,cs)
);
}
);
};
layerId = "46C13DED-2BAB-471A-8D19-A1FA49A5501E";
shapes = (
{
closed = 1;
nodes = (
(560,-10,o),
(656,72,o),
(656,194,cs),
(656,366,o),
(492,381,o),
(391,399,cs),
(234,428,o),
(156,459,o),
(156,550,cs),
(156,642,o),
(233,702,o),
(396,702,cs),
(541,702,o),
(645,639,o),
(653,540,c),
(693,540,l),
(688,662,o),
(568,739,o),
(392,739,cs),
(224,739,o),
(114,670,o),
(114,547,cs),
(114,439,o),
(196,393,o),
(369,363,cs),
(501,340,o),
(612,329,o),
(612,191,cs),
(612,72,o),
(509,26,o),
(355,26,cs),
(194,26,o),
(84,102,o),
(80,216,c),
(39,216,l),
(43,80,o),
(169,-10,o),
(355,-10,cs)
);
}
);
width = 724;
},
{
anchors = (
{
name = bottom;
pos = (365,0);
},
{
name = top;
pos = (366,729);
}
);
layerId = "C1814757-B5F7-4D49-B715-04BFD84ECCF6";
shapes = (
{
closed = 1;
nodes = (
(572,-10,o),
(686,67,o),
(686,198,cs),
(686,381,o),
(520,386,o),
(382,401,cs),
(206,421,o),
(119,442,o),
(119,546,cs),
(119,645,o),
(200,702,o),
(367,702,cs),
(512,702,o),
(619,636,o),
(624,530,c),
(667,530,l),
(660,654,o),
(548,739,o),
(365,739,cs),
(198,739,o),
(76,671,o),
(76,545,cs),
(76,427,o),
(164,384,o),
(368,362,cs),
(530,346,o),
(642,334,o),
(642,197,cs),
(642,86,o),
(552,27,o),
(369,27,cs),
(203,27,o),
(96,88,o),
(87,226,c),
(46,226,l),
(48,94,o),
(152,-10,o),
(369,-10,cs)
);
}
);
width = 739;
},
{
anchors = (
{
name = bottom;
pos = (348,0);
},
{
name = top;
pos = (344,729);
}
);
background = {
shapes = (
{
closed = 1;
nodes = (
(532,-10,o),
(661,66,o),
(661,227,cs),
(661,386,o),
(560,439,o),
(409,463,cs),
(307,479,o),
(262,484,o),
(262,530,cs),
(262,562,o),
(290,579,o),
(339,579,cs),
(394,579,o),
(430,558,o),
(431,518,c),
(645,518,l),
(643,659,o),
(524,738,o),
(347,738,cs),
(149,738,o),
(35,643,o),
(35,503,cs),
(35,381,o),
(115,312,o),
(275,282,cs),
(375,264,o),
(435,261,o),
(435,209,cs),
(435,170,o),
(403,153,o),
(345,153,cs),
(280,153,o),
(241,177,o),
(240,228,c),
(25,228,l),
(23,85,o),
(136,-10,o),
(339,-10,cs)
);
}
);
};
layerId = "8B1B4E65-9831-4464-9A92-CA98D2219836";
shapes = (
{
closed = 1;
nodes = (
(532,-10,o),
(661,66,o),
(661,227,cs),
(661,386,o),
(560,439,o),
(409,463,cs),
(307,479,o),
(262,484,o),
(262,530,cs),
(262,562,o),
(290,579,o),
(339,579,cs),
(394,579,o),
(430,558,o),
(431,518,c),
(645,518,l),
(643,659,o),
(533,738,o),
(339,738,cs),
(157,738,o),
(35,663,o),
(35,503,cs),
(35,381,o),
(115,312,o),
(275,282,cs),
(375,264,o),
(435,261,o),
(435,209,cs),
(435,170,o),
(403,153,o),
(345,153,cs),
(280,153,o),
(241,177,o),
(240,228,c),
(25,228,l),
(23,85,o),
(136,-10,o),
(339,-10,cs)
);
}
);
width = 691;
},
{
anchors = (
{
name = bottom;
pos = (310,0);
},
{
name = top;
pos = (430,729);
}
);
layerId = "2359B287-0F82-447F-8C68-59A72835D733";
shapes = (
{
closed = 1;
nodes = (
(510,-10,o),
(642,68,o),
(642,232,cs),
(642,376,o),
(551,424,o),
(432,457,cs),
(341,482,o),
(308,493,o),
(308,527,cs),
(308,560,o),
(335,579,o),
(381,579,cs),
(432,579,o),
(470,558,o),
(472,515,c),
(683,515,l),
(681,649,o),
(557,739,o),
(374,739,cs),
(198,739,o),
(80,654,o),
(80,502,cs),
(80,366,o),
(181,314,o),
(280,287,cs),
(377,261,o),
(414,255,o),
(414,209,cs),
(414,172,o),
(386,153,o),
(334,153,cs),
(274,153,o),
(230,176,o),
(230,228,c),
(17,228,l),
(13,79,o),
(132,-10,o),
(339,-10,cs)
);
}
);
width = 683;
},
{
anchors = (
{
name = bottom;
pos = (405,0);
},
{
name = top;
pos = (404,729);
}
);
layerId = "46DCD09A-F85A-41B9-8FAA-640012B7D4F4";
shapes = (
{
closed = 1;
nodes = (
(668,-10,o),
(784,92,o),
(784,231,cs),
(784,410,o),
(648,451,o),
(462,467,cs),
(329,479,o),
(297,488,o),
(297,526,cs),
(297,557,o),
(329,577,o),
(400,577,cs),
(469,577,o),
(517,560,o),
(517,519,c),
(765,519,l),
(761,651,o),
(629,738,o),
(400,738,cs),
(181,738,o),
(36,661,o),
(36,495,cs),
(36,338,o),
(160,287,o),
(372,271,cs),
(497,261,o),
(524,247,o),
(524,213,cs),
(524,176,o),
(488,153,o),
(408,153,cs),
(324,153,o),
(271,177,o),
(267,228,c),
(22,228,l),
(20,84,o),
(141,-10,o),
(398,-10,cs)
);
}
);
width = 805;
},
{
anchors = (
{
name = bottom;
pos = (365,0);
},
{
name = top;
pos = (441,729);
}
);
layerId = "0D69E86C-407B-4861-9815-978EE2313DB2";
shapes = (
{
closed = 1;
nodes = (
(628,-10,o),
(753,87,o),
(753,234,cs),
(753,408,o),
(615,445,o),
(469,464,cs),
(363,478,o),
(337,495,o),
(337,526,cs),
(337,559,o),
(367,578,o),
(419,578,cs),
(480,578,o),
(541,562,o),
(542,517,c),
(779,517,l),
(765,650,o),
(637,739,o),
(421,739,cs),
(214,739,o),
(75,658,o),
(75,497,cs),
(75,330,o),
(236,292,o),
(360,275,cs),
(484,259,o),
(494,240,o),
(494,212,cs),
(494,175,o),
(462,154,o),
(403,154,cs),
(326,154,o),
(260,169,o),
(256,229,c),
(14,229,l),
(13,85,o),
(158,-10,o),
(389,-10,cs)
);
}
);
width = 785;
}
);
unicode = 83;
},
{
color = 6;
glyphname = Germandbls;
kernLeft = B;
kernRight = Germandbls;
lastChange = "2022-11-17 14:59:21 +0000";
layers = (
{
layerId = "6932EABA-00D8-4526-96D6-87ADD7AC589E";
shapes = (
{
closed = 1;
nodes = (
(119,0,l),
(119,701,l),
(349,701,l),
(213,426,l),
(213,400,l),
(231,400,ls),
(319,400,o),
(378,351,o),
(378,246,cs),
(378,180,ls),
(378,101,o),
(332,26,o),
(221,26,cs),
(187,26,l),
(187,0,l),
(223,0,ls),
(335,0,o),
(410,60,o),
(410,213,cs),
(410,357,o),
(346,425,o),
(233,425,cs),
(225,425,l),
(247,411,l),
(247,429,l),
(380,697,l),
(380,729,l),
(88,729,l),
(88,0,l)
);
}
);
width = 450;
},
{
layerId = "E787E54A-EE3E-475A-BF02-8501A6DA5144";
shapes = (
{
closed = 1;
nodes = (
(213,0,l),
(213,581,l),
(348,581,l),
(269,436,l),
(269,331,l),
(289,331,ls),
(339,331,o),
(373,313,o),
(373,263,cs),
(373,218,ls),
(373,173,o),
(349,144,o),
(289,144,cs),
(263,144,l),
(263,0,l),
(324,0,ls),
(458,0,o),
(548,60,o),
(548,214,cs),
(548,332,o),
(490,411,o),
(386,411,cs),
(368,411,l),
(423,376,l),
(423,417,l),
(515,582,l),
(515,729,l),
(35,729,l),
(35,0,l)
);
}
);
width = 567;
},
{
layerId = "B743CB11-DC16-45F2-BA04-3635CB00F7DA";
shapes = (
{
closed = 1;
nodes = (
(173,0,l),
(173,693,l),
(537,693,l),
(318,417,l),
(318,387,l),
(377,387,ls),
(521,387,o),
(578,319,o),
(578,230,cs),
(578,191,ls),
(578,110,o),
(519,34,o),
(385,34,cs),
(243,34,l),
(243,0,l),
(388,0,ls),
(534,0,o),
(619,81,o),
(619,210,cs),
(619,339,o),
(543,420,o),
(381,420,cs),
(356,420,l),
(371,403,l),
(371,427,l),
(570,678,l),
(570,729,l),
(134,729,l),
(134,0,l)
);
}
);
width = 683;
},
{
layerId = "84BE75FC-12C8-47E9-B302-5F6D56903923";
shapes = (
{
closed = 1;
nodes = (
(74,0,l),
(198,701,l),
(428,701,l),
(243,426,l),
(239,400,l),
(263,400,ls),
(343,400,o),
(394,355,o),
(376,246,cs),
(365,180,ls),
(349,88,o),
(292,26,o),
(191,26,cs),
(147,26,l),
(142,0,l),
(188,0,ls),
(321,0,o),
(409,97,o),
(409,269,cs),
(409,394,o),
(335,425,o),
(263,425,cs),
(255,425,l),
(274,411,l),
(278,429,l),
(458,697,l),
(464,729,l),
(172,729,l),
(43,0,l)
);
}
);
width = 454;
},
{
layerId = "3257632A-050A-40C2-B21A-C728868BC46F";
shapes = (
{
closed = 1;
nodes = (
(165,0,l),
(267,581,l),
(389,581,l),
(298,436,l),
(279,331,l),
(311,331,ls),
(354,331,o),
(380,307,o),
(369,250,cs),
(363,218,ls),
(355,173,o),
(335,144,o),
(275,144,cs),
(240,144,l),
(215,0,l),
(290,0,ls),
(452,0,o),
(543,100,o),
(543,250,cs),
(543,353,o),
(492,411,o),
(401,411,cs),
(383,411,l),
(441,376,l),
(449,417,l),
(574,605,l),
(596,729,l),
(116,729,l),
(-13,0,l)
);
}
);
width = 571;
},
{
layerId = "33C7CA81-8DED-4513-9072-CA0E40765DD9";
shapes = (
{
closed = 1;
nodes = (
(128,0,l),
(250,693,l),
(612,693,l),
(347,417,l),
(341,387,l),
(420,387,ls),
(534,387,o),
(594,320,o),
(572,207,cs),
(565,171,ls),
(549,87,o),
(480,34,o),
(368,34,cs),
(204,34,l),
(198,0,l),
(363,0,ls),
(515,0,o),
(616,78,o),
(616,239,cs),
(616,348,o),
(544,420,o),
(423,420,cs),
(385,420,l),
(399,403,l),
(403,427,l),
(645,678,l),
(654,729,l),
(218,729,l),
(89,0,l)
);
}
);
width = 689;
},
{
layerId = "46C13DED-2BAB-471A-8D19-A1FA49A5501E";
shapes = (
{
closed = 1;
nodes = (
(103,0,l),
(225,692,l),
(698,692,l),
(404,415,l),
(398,382,l),
(524,382,ls),
(646,382,o),
(691,321,o),
(675,230,cs),
(668,191,ls),
(650,92,o),
(579,37,o),
(449,37,cs),
(197,37,l),
(190,0,l),
(451,0,ls),
(612,0,o),
(720,89,o),
(720,247,cs),
(720,374,o),
(634,417,o),
(526,417,cs),
(442,417,l),
(458,387,l),
(465,424,l),
(735,678,l),
(744,729,l),
(193,729,l),
(64,0,l)
);
}
);
width = 790;
},
{
layerId = "C1814757-B5F7-4D49-B715-04BFD84ECCF6";
shapes = (
{
closed = 1;
nodes = (
(148,0,l),
(148,692,l),
(625,692,l),
(376,415,l),
(376,382,l),
(482,382,ls),
(600,382,o),
(679,339,o),
(679,230,cs),
(679,191,ls),
(679,99,o),
(618,37,o),
(479,37,cs),
(235,37,l),
(235,0,l),
(496,0,ls),
(633,0,o),
(724,76,o),
(724,210,cs),
(724,334,o),
(650,417,o),
(496,417,cs),
(413,417,l),
(431,387,l),
(431,424,l),
(660,678,l),
(660,729,l),
(109,729,l),
(109,0,l)
);
}
);
width = 787;
},
{
layerId = "8B1B4E65-9831-4464-9A92-CA98D2219836";
shapes = (
{
closed = 1;
nodes = (
(276,0,l),
(276,561,l),
(468,561,l),
(372,411,l),
(372,321,l),
(402,321,ls),
(457,321,o),
(496,304,o),
(496,254,cs),
(496,230,ls),
(496,189,o),
(469,163,o),
(402,163,cs),
(335,163,l),
(335,0,l),
(450,0,ls),
(621,0,o),
(716,78,o),
(716,217,cs),
(716,325,o),
(644,404,o),
(542,404,cs),
(525,404,l),
(574,353,l),
(574,410,l),
(667,546,l),
(667,729,l),
(63,729,l),
(63,0,l)
);
}
);
width = 734;
},
{
layerId = "2359B287-0F82-447F-8C68-59A72835D733";
shapes = (
{
closed = 1;
nodes = (
(233,0,l),
(332,561,l),
(525,561,l),
(402,411,l),
(386,321,l),
(434,321,ls),
(485,321,o),
(508,300,o),
(499,252,cs),
(494,228,ls),
(484,178,o),
(449,163,o),
(394,163,cs),
(322,163,l),
(293,0,l),
(430,0,ls),
(601,0,o),
(716,84,o),
(716,232,cs),
(716,332,o),
(653,404,o),
(559,404,cs),
(543,404,l),
(594,353,l),
(604,410,l),
(722,546,l),
(754,729,l),
(150,729,l),
(21,0,l)
);
}
);
width = 756;
},
{
layerId = "46DCD09A-F85A-41B9-8FAA-640012B7D4F4";
shapes = (
{
closed = 1;
nodes = (
(308,0,l),
(308,554,l),
(542,554,l),
(426,401,l),
(426,297,l),
(499,297,ls),
(561,297,o),
(581,274,o),
(581,243,cs),
(581,222,ls),
(581,182,o),
(547,168,o),
(501,168,cs),
(384,168,l),
(384,0,l),
(560,0,ls),
(727,0,o),
(839,66,o),
(839,209,cs),
(839,323,o),
(768,399,o),
(644,399,cs),
(620,399,l),
(674,360,l),
(674,406,l),
(781,539,l),
(781,729,l),
(63,729,l),
(63,0,l)
);
}
);
width = 866;
},
{
layerId = "0D69E86C-407B-4861-9815-978EE2313DB2";
shapes = (
{
closed = 1;
nodes = (
(265,0,l),
(362,553,l),
(597,553,l),
(447,399,l),
(428,294,l),
(500,294,ls),
(554,294,o),
(572,272,o),
(565,242,cs),
(562,222,ls),
(554,182,o),
(516,169,o),
(482,169,cs),
(370,169,l),
(340,0,l),
(525,0,ls),
(706,0,o),
(829,79,o),
(829,222,cs),
(829,325,o),
(760,397,o),
(660,397,cs),
(640,397,l),
(696,360,l),
(704,404,l),
(819,512,l),
(858,729,l),
(144,729,l),
(15,0,l)
);
}
);
width = 869;
}
);
metricLeft = H;
metricRight = B;
unicode = 7838;
},
{
color = 6;
glyphname = T;
kernLeft = T;
kernRight = T;
lastChange = "2022-11-17 14:59:21 +0000";
layers = (
{
anchors = (
{
name = bottom;
pos = (195,0);
},
{
name = center;
pos = (195,365);
},
{
name = top;
pos = (195,729);
}
);
layerId = "6932EABA-00D8-4526-96D6-87ADD7AC589E";
shapes = (
{
closed = 1;
nodes = (
(179,0,l),
(210,0,l),
(210,709,l),
(179,709,l)
);
},
{
closed = 1;
nodes = (
(350,729,l),
(39,729,l),
(39,701,l),
(350,701,l)
);
}
);
width = 389;
},
{
anchors = (
{
name = bottom;
pos = (234,0);
},
{
name = center;
pos = (234,365);
},
{
name = top;
pos = (234,729);
}
);
layerId = "E787E54A-EE3E-475A-BF02-8501A6DA5144";
shapes = (
{
closed = 1;
nodes = (
(145,0,l),
(323,0,l),
(323,599,l),
(145,599,l)
);
},
{
closed = 1;
nodes = (
(447,729,l),
(21,729,l),
(21,583,l),
(447,583,l)
);
}
);
width = 468;
},
{
anchors = (
{
name = bottom;
pos = (281,0);
},
{
name = center;
pos = (281,365);
},
{
name = top;
pos = (281,729);
}
);
layerId = "B743CB11-DC16-45F2-BA04-3635CB00F7DA";
shapes = (
{
closed = 1;
nodes = (
(261,0,l),
(301,0,l),
(301,703,l),
(261,703,l)
);
},
{
closed = 1;
nodes = (
(549,729,l),
(13,729,l),
(13,693,l),
(549,693,l)
);
}
);
width = 562;
},
{
anchors = (
{
name = bottom;
pos = (187,0);
},
{
name = center;
pos = (251,365);
},
{
name = top;
pos = (316,729);
}
);
layerId = "3257632A-050A-40C2-B21A-C728868BC46F";
shapes = (
{
closed = 1;
nodes = (
(98,0,l),
(276,0,l),
(382,599,l),
(204,599,l)
);
},
{
closed = 1;
nodes = (
(528,729,l),
(102,729,l),
(77,583,l),
(503,583,l)
);
}
);
width = 469;
},
{
anchors = (
{
name = bottom;
pos = (150,0);
},
{
name = center;
pos = (214,365);
},
{
name = top;
pos = (278,729);
}
);
layerId = "84BE75FC-12C8-47E9-B302-5F6D56903923";
shapes = (
{
closed = 1;
nodes = (
(134,0,l),
(165,0,l),
(289,709,l),
(258,709,l)
);
},
{
closed = 1;
nodes = (
(433,729,l),
(122,729,l),
(117,701,l),
(428,701,l)
);
}
);
width = 389;
},
{
anchors = (
{
name = bottom;
pos = (237,0);
},
{
name = center;
pos = (301,365);
},
{
name = top;
pos = (365,729);
}
);
layerId = "33C7CA81-8DED-4513-9072-CA0E40765DD9";
shapes = (
{
closed = 1;
nodes = (
(218,0,l),
(255,0,l),
(379,703,l),
(342,703,l)
);
},
{
closed = 1;
nodes = (
(633,729,l),
(96,729,l),
(90,694,l),
(627,694,l)
);
}
);
width = 563;
},
{
anchors = (
{
name = bottom;
pos = (277,0);
},
{
name = center;
pos = (341,365);
},
{
name = top;
pos = (405,729);
}
);
layerId = "46C13DED-2BAB-471A-8D19-A1FA49A5501E";
shapes = (
{
closed = 1;
nodes = (
(257,0,l),
(296,0,l),
(420,702,l),
(381,702,l)
);
},
{
closed = 1;
nodes = (
(718,729,l),
(91,729,l),
(85,692,l),
(712,692,l)
);
}
);
width = 643;
},
{
anchors = (
{
name = bottom;
pos = (325,0);
},
{
name = center;
pos = (325,365);
},
{
name = top;
pos = (325,729);
}
);
layerId = "C1814757-B5F7-4D49-B715-04BFD84ECCF6";
shapes = (
{
closed = 1;
nodes = (
(303,0,l),
(344,0,l),
(344,701,l),
(303,701,l)
);
},
{
closed = 1;
nodes = (
(641,729,l),
(8,729,l),
(8,691,l),
(641,691,l)
);
}
);
width = 649;
},
{
anchors = (
{
name = bottom;
pos = (320,0);
},
{
name = center;
pos = (320,365);
},
{
name = top;
pos = (320,729);
}
);
background = {
shapes = (
{
closed = 1;
nodes = (
(426,0,l),
(426,547,l),
(641,547,l),
(641,729,l),
(-2,729,l),
(-2,547,l),
(214,547,l),
(214,0,l)
);
}
);
};
layerId = "8B1B4E65-9831-4464-9A92-CA98D2219836";
shapes = (
{
closed = 1;
nodes = (
(214,0,l),
(426,0,l),
(426,563,l),
(214,563,l)
);
},
{
closed = 1;
nodes = (
(631,729,l),
(8,729,l),
(8,547,l),
(631,547,l)
);
}
);
width = 639;
},
{
anchors = (
{
name = bottom;
pos = (275,0);
},
{
name = center;
pos = (339,365);
},
{
name = top;
pos = (404,729);
}
);
layerId = "2359B287-0F82-447F-8C68-59A72835D733";
shapes = (
{
closed = 1;
nodes = (
(167,0,l),
(380,0,l),
(481,566,l),
(267,566,l)
);
},
{
closed = 1;
nodes = (
(719,729,l),
(88,729,l),
(58,550,l),
(688,550,l)
);
}
);
width = 647;
},
{
anchors = (
{
name = bottom;
pos = (379,0);
},
{
name = center;
pos = (379,365);
},
{
name = top;
pos = (379,729);
}
);
layerId = "46DCD09A-F85A-41B9-8FAA-640012B7D4F4";
shapes = (
{
closed = 1;
nodes = (
(254,0,l),
(496,0,l),
(496,557,l),
(254,557,l)
);
},
{
closed = 1;
nodes = (
(740,729,l),
(18,729,l),
(18,541,l),
(740,541,l)
);
}
);
width = 758;
},
{
anchors = (
{
name = bottom;
pos = (316,0);
},
{
name = center;
pos = (380,365);
},
{
name = top;
pos = (445,729);
}
);
layerId = "0D69E86C-407B-4861-9815-978EE2313DB2";
shapes = (
{
closed = 1;
nodes = (
(198,0,l),
(433,0,l),
(534,561,l),
(297,561,l)
);
},
{
closed = 1;
nodes = (
(793,729,l),
(100,729,l),
(65,545,l),
(760,545,l)
);
}
);
width = 730;
}
);
unicode = 84;
},
{
color = 6;
glyphname = U;
kernLeft = U;
kernRight = J;
lastChange = "2022-11-17 14:59:21 +0000";
layers = (
{
anchors = (
{
name = bottom;
pos = (241,0);
},
{
name = ogonek;
pos = (271,10);
},
{
name = top;
pos = (241,729);
},
{
name = topright;
pos = (436,729);
}
);
layerId = "6932EABA-00D8-4526-96D6-87ADD7AC589E";
shapes = (
{
closed = 1;
nodes = (
(337,-9,o),
(401,47,o),
(401,222,cs),
(401,729,l),
(370,729,l),
(370,223,ls),
(370,100,o),
(345,18,o),
(241,18,cs),
(137,18,o),
(112,100,o),
(112,223,cs),
(112,729,l),
(81,729,l),
(81,222,ls),
(81,47,o),
(145,-9,o),
(241,-10,cs)
);
}
);
width = 482;
},
{
anchors = (
{
name = bottom;
pos = (267,0);
},
{
name = ogonek;
pos = (301,10);
},
{
name = top;
pos = (267,729);
},
{
name = topright;
pos = (502,729);
}
);
layerId = "E787E54A-EE3E-475A-BF02-8501A6DA5144";
shapes = (
{
closed = 1;
nodes = (
(446,-10,o),
(502,87,o),
(502,232,cs),
(502,729,l),
(324,729,l),
(324,217,ls),
(324,172,o),
(313,136,o),
(267,136,cs),
(233,136,o),
(210,154,o),
(210,217,cs),
(210,729,l),
(32,729,l),
(32,232,ls),
(32,48,o),
(126,-10,o),
(267,-10,cs)
);
}
);
width = 534;
},
{
anchors = (
{
name = bottom;
pos = (412,0);
},
{
name = ogonek;
pos = (441,10);
},
{
name = top;
pos = (412,729);
},
{
name = topright;
pos = (778,729);
}
);
layerId = "B743CB11-DC16-45F2-BA04-3635CB00F7DA";
shapes = (
{
closed = 1;
nodes = (
(586,-10,o),
(696,99,o),
(696,269,cs),
(696,729,l),
(657,729,l),
(657,272,ls),
(657,120,o),
(561,27,o),
(411,27,cs),
(263,27,o),
(165,122,o),
(165,272,cs),
(165,729,l),
(126,729,l),
(126,269,ls),
(126,101,o),
(235,-10,o),
(411,-10,cs)
);
}
);
width = 822;
},
{
anchors = (
{
name = bottom;
pos = (220,0);
},
{
name = ogonek;
pos = (247,10);
},
{
name = top;
pos = (349,729);
},
{
name = topright;
pos = (585,729);
}
);
layerId = "3257632A-050A-40C2-B21A-C728868BC46F";
shapes = (
{
closed = 1;
nodes = (
(406,-10,o),
(470,79,o),
(494,213,cs),
(585,729,l),
(406,729,l),
(315,214,ls),
(307,171,o),
(293,138,o),
(253,138,cs),
(203,138,o),
(194,172,o),
(203,224,cs),
(291,729,l),
(113,729,l),
(30,254,ls),
(-1,77,o),
(76,-10,o),
(257,-10,cs)
);
}
);
width = 536;
},
{
anchors = (
{
name = bottom;
pos = (198,0);
},
{
name = ogonek;
pos = (222,10);
},
{
name = top;
pos = (326,729);
},
{
name = topright;
pos = (522,729);
}
);
background = {
shapes = (
{
closed = 1;
nodes = (
(291,-10,o),
(352,44,o),
(379,199,cs),
(473,729,l),
(441,729,l),
(349,204,ls),
(330,93,o),
(294,17,o),
(208,17,cs),
(87,17,o),
(71,109,o),
(94,240,cs),
(181,729,l),
(150,729,l),
(63,244,ls),
(36,94,o),
(70,-10,o),
(210,-10,cs)
);
}
);
};
layerId = "84BE75FC-12C8-47E9-B302-5F6D56903923";
shapes = (
{
closed = 1;
nodes = (
(306,-9,o),
(365,34,o),
(395,206,cs),
(487,729,l),
(455,729,l),
(364,210,ls),
(341,80,o),
(308,19,o),
(219,19,cs),
(103,19,o),
(86,103,o),
(109,237,cs),
(195,729,l),
(164,729,l),
(79,239,ls),
(54,94,o),
(82,-9,o),
(218,-9,cs)
);
}
);
width = 485;
},
{
anchors = (
{
name = bottom;
pos = (369,0);
},
{
name = ogonek;
pos = (390,10);
},
{
name = top;
pos = (497,729);
},
{
name = topright;
pos = (865,729);
}
);
layerId = "33C7CA81-8DED-4513-9072-CA0E40765DD9";
shapes = (
{
closed = 1;
nodes = (
(578,-8,o),
(668,80,o),
(698,249,cs),
(783,729,l),
(746,729,l),
(661,254,ls),
(633,97,o),
(553,28,o),
(401,27,cs),
(233,25,o),
(137,104,o),
(167,274,cs),
(247,729,l),
(210,729,l),
(129,273,ls),
(97,94,o),
(204,-10,o),
(400,-9,cs)
);
}
);
width = 826;
},
{
anchors = (
{
name = bottom;
pos = (392,0);
},
{
name = ogonek;
pos = (408,10);
},
{
name = top;
pos = (520,729);
},
{
name = topright;
pos = (913,729);
}
);
layerId = "46C13DED-2BAB-471A-8D19-A1FA49A5501E";
shapes = (
{
closed = 1;
nodes = (
(641,-7,o),
(742,94,o),
(772,263,cs),
(856,729,l),
(816,729,l),
(734,268,ls),
(704,100,o),
(607,30,o),
(429,29,cs),
(238,27,o),
(113,105,o),
(145,285,cs),
(224,729,l),
(185,729,l),
(105,283,ls),
(70,94,o),
(208,-11,o),
(428,-9,cs)
);
}
);
width = 873;
},
{
anchors = (
{
name = bottom;
pos = (439,0);
},
{
name = ogonek;
pos = (480,10);
},
{
name = top;
pos = (439,729);
},
{
name = topright;
pos = (832,729);
}
);
layerId = "C1814757-B5F7-4D49-B715-04BFD84ECCF6";
shapes = (
{
closed = 1;
nodes = (
(657,-10,o),
(777,111,o),
(777,277,cs),
(777,729,l),
(736,729,l),
(736,280,ls),
(736,128,o),
(639,29,o),
(438,29,cs),
(265,29,o),
(140,106,o),
(140,280,cs),
(140,729,l),
(100,729,l),
(100,277,ls),
(100,98,o),
(234,-10,o),
(438,-10,cs)
);
}
);
width = 877;
},
{
anchors = (
{
name = bottom;
pos = (385,0);
},
{
name = ogonek;
pos = (414,10);
},
{
name = top;
pos = (385,729);
},
{
name = topright;
pos = (745,729);
}
);
background = {
shapes = (
{
closed = 1;
nodes = (
(265,0,l),
(265,279,l),
(490,279,l),
(490,0,l),
(702,0,l),
(702,729,l),
(490,729,l),
(490,459,l),
(265,459,l),
(265,729,l),
(52,729,l),
(52,0,l)
);
}
);
};
layerId = "8B1B4E65-9831-4464-9A92-CA98D2219836";
shapes = (
{
closed = 1;
nodes = (
(578,-10,o),
(709,97,o),
(709,285,cs),
(709,729,l),
(498,729,l),
(498,297,ls),
(498,217,o),
(453,177,o),
(385,177,cs),
(308,177,o),
(270,222,o),
(270,297,cs),
(270,729,l),
(59,729,l),
(59,285,ls),
(59,109,o),
(156,-10,o),
(383,-10,cs)
);
}
);
width = 768;
},
{
anchors = (
{
name = bottom;
pos = (340,0);
},
{
name = ogonek;
pos = (380,10);
},
{
name = top;
pos = (469,729);
},
{
name = topright;
pos = (833,729);
}
);
layerId = "2359B287-0F82-447F-8C68-59A72835D733";
shapes = (
{
closed = 1;
nodes = (
(559,-10,o),
(679,68,o),
(711,252,cs),
(795,729,l),
(576,729,l),
(500,284,ls),
(488,211,o),
(442,177,o),
(376,177,cs),
(300,177,o),
(260,217,o),
(273,296,cs),
(347,729,l),
(143,729,l),
(69,308,ls),
(34,105,o),
(156,-10,o),
(370,-10,cs)
);
}
);
width = 778;
},
{
anchors = (
{
name = bottom;
pos = (457,0);
},
{
name = ogonek;
pos = (497,10);
},
{
name = top;
pos = (457,729);
},
{
name = topright;
pos = (877,729);
}
);
layerId = "46DCD09A-F85A-41B9-8FAA-640012B7D4F4";
shapes = (
{
closed = 1;
nodes = (
(686,-10,o),
(857,98,o),
(857,295,cs),
(857,729,l),
(614,729,l),
(614,314,ls),
(614,225,o),
(550,182,o),
(459,182,cs),
(351,182,o),
(297,236,o),
(297,314,cs),
(297,729,l),
(57,729,l),
(57,295,ls),
(57,122,o),
(173,-10,o),
(453,-10,cs)
);
}
);
width = 914;
},
{
anchors = (
{
name = bottom;
pos = (390,0);
},
{
name = ogonek;
pos = (431,10);
},
{
name = top;
pos = (517,729);
},
{
name = topright;
pos = (922,729);
}
);
background = {
shapes = (
{
closed = 1;
nodes = (
(643,-10,o),
(782,63,o),
(819,270,cs),
(903,729,l),
(666,729,l),
(592,301,ls),
(577,214,o),
(531,179,o),
(431,179,cs),
(339,179,o),
(281,226,o),
(297,311,cs),
(369,729,l),
(138,729,l),
(69,344,ls),
(29,117,o),
(175,-10,o),
(424,-10,cs)
);
}
);
};
layerId = "0D69E86C-407B-4861-9815-978EE2313DB2";
shapes = (
{
closed = 1;
nodes = (
(638,-10,o),
(781,66,o),
(819,277,cs),
(901,729,l),
(665,729,l),
(592,304,ls),
(577,216,o),
(530,179,o),
(428,179,cs),
(339,179,o),
(283,225,o),
(297,309,cs),
(369,729,l),
(139,729,l),
(69,338,ls),
(28,111,o),
(174,-10,o),
(412,-10,cs)
);
}
);
width = 878;
}
);
unicode = 85;
},
{
color = 6;
glyphname = V;
kernLeft = V;
kernRight = V;
lastChange = "2022-11-17 14:59:21 +0000";
layers = (
{
anchors = (
{
name = bottom;
pos = (212,0);
},
{
name = top;
pos = (212,729);
}
);
layerId = "6932EABA-00D8-4526-96D6-87ADD7AC589E";
shapes = (
{
closed = 1;
nodes = (
(233,0,l),
(379,729,l),
(349,729,l),
(221,75,l),
(213,34,l),
(209,34,l),
(201,75,l),
(74,729,l),
(43,729,l),
(189,0,l)
);
}
);
width = 422;
},
{
anchors = (
{
name = bottom;
pos = (265,0);
},
{
name = top;
pos = (265,729);
}
);
background = {
shapes = (
{
closed = 1;
nodes = (
(390,0,l),
(519,729,l),
(336,729,l),
(280,239,l),
(272,166,l),
(262,166,l),
(254,239,l),
(198,729,l),
(15,729,l),
(144,0,l)
);
}
);
};
layerId = "E787E54A-EE3E-475A-BF02-8501A6DA5144";
shapes = (
{
closed = 1;
nodes = (
(392,0,l),
(512,729,l),
(334,729,l),
(283,305,l),
(271,159,l),
(261,159,l),
(247,305,l),
(196,729,l),
(18,729,l),
(138,0,l)
);
}
);
width = 530;
},
{
anchors = (
{
name = bottom;
pos = (343,0);
},
{
name = top;
pos = (343,729);
}
);
layerId = "B743CB11-DC16-45F2-BA04-3635CB00F7DA";
shapes = (
{
closed = 1;
nodes = (
(371,0,l),
(647,729,l),
(606,729,l),
(359,74,l),
(345,34,l),
(339,34,l),
(325,74,l),
(81,729,l),
(39,729,l),
(314,0,l)
);
}
);
width = 686;
},
{
anchors = (
{
name = bottom;
pos = (223,0);
},
{
name = top;
pos = (352,729);
}
);
background = {
shapes = (
{
closed = 1;
nodes = (
(346,0,l),
(603,729,l),
(420,729,l),
(278,239,l),
(257,166,l),
(247,166,l),
(252,239,l),
(282,729,l),
(99,729,l),
(100,0,l)
);
}
);
};
layerId = "3257632A-050A-40C2-B21A-C728868BC46F";
shapes = (
{
closed = 1;
nodes = (
(355,0,l),
(605,729,l),
(416,729,l),
(282,241,l),
(264,165,l),
(254,165,l),
(258,241,l),
(278,729,l),
(99,729,l),
(118,0,l)
);
}
);
width = 542;
},
{
anchors = (
{
name = bottom;
pos = (166,0);
},
{
name = top;
pos = (294,729);
}
);
layerId = "84BE75FC-12C8-47E9-B302-5F6D56903923";
shapes = (
{
closed = 1;
nodes = (
(188,0,l),
(461,729,l),
(430,729,l),
(188,75,l),
(173,34,l),
(169,34,l),
(168,75,l),
(156,729,l),
(126,729,l),
(144,0,l)
);
}
);
width = 421;
},
{
anchors = (
{
name = bottom;
pos = (298,0);
},
{
name = top;
pos = (426,729);
}
);
layerId = "33C7CA81-8DED-4513-9072-CA0E40765DD9";
shapes = (
{
closed = 1;
nodes = (
(325,0,l),
(730,729,l),
(688,729,l),
(326,76,l),
(304,34,l),
(297,34,l),
(289,76,l),
(160,729,l),
(122,729,l),
(268,0,l)
);
}
);
width = 686;
},
{
anchors = (
{
name = bottom;
pos = (330,0);
},
{
name = top;
pos = (458,729);
}
);
layerId = "46C13DED-2BAB-471A-8D19-A1FA49A5501E";
shapes = (
{
closed = 1;
nodes = (
(359,0,l),
(815,729,l),
(770,729,l),
(361,76,l),
(336,34,l),
(328,34,l),
(317,76,l),
(142,729,l),
(102,729,l),
(298,0,l)
);
}
);
width = 749;
},
{
anchors = (
{
name = bottom;
pos = (379,0);
},
{
name = top;
pos = (379,729);
}
);
layerId = "C1814757-B5F7-4D49-B715-04BFD84ECCF6";
shapes = (
{
closed = 1;
nodes = (
(407,0,l),
(742,729,l),
(697,729,l),
(401,76,l),
(381,34,l),
(374,34,l),
(356,76,l),
(61,729,l),
(19,729,l),
(351,0,l)
);
}
);
width = 761;
},
{
anchors = (
{
name = bottom;
pos = (386,0);
},
{
name = top;
pos = (386,729);
}
);
layerId = "8B1B4E65-9831-4464-9A92-CA98D2219836";
shapes = (
{
closed = 1;
nodes = (
(529,0,l),
(769,729,l),
(532,729,l),
(403,251,l),
(390,201,l),
(382,201,l),
(369,251,l),
(240,729,l),
(3,729,l),
(244,0,l)
);
}
);
width = 772;
},
{
anchors = (
{
name = bottom;
pos = (324,0);
},
{
name = top;
pos = (453,729);
}
);
layerId = "2359B287-0F82-447F-8C68-59A72835D733";
shapes = (
{
closed = 1;
nodes = (
(470,0,l),
(824,729,l),
(605,729,l),
(400,268,l),
(368,177,l),
(357,177,l),
(350,269,l),
(293,729,l),
(83,729,l),
(202,0,l)
);
}
);
width = 747;
},
{
anchors = (
{
name = bottom;
pos = (457,0);
},
{
name = top;
pos = (457,729);
}
);
layerId = "46DCD09A-F85A-41B9-8FAA-640012B7D4F4";
shapes = (
{
closed = 1;
nodes = (
(613,0,l),
(922,729,l),
(654,729,l),
(484,271,l),
(461,201,l),
(454,201,l),
(433,271,l),
(261,729,l),
(-7,729,l),
(302,0,l)
);
}
);
width = 913;
},
{
anchors = (
{
name = bottom;
pos = (386,0);
},
{
name = top;
pos = (518,729);
}
);
layerId = "0D69E86C-407B-4861-9815-978EE2313DB2";
shapes = (
{
closed = 1;
nodes = (
(544,0,l),
(964,729,l),
(678,729,l),
(448,282,l),
(415,204,l),
(408,204,l),
(398,280,l),
(324,729,l),
(74,729,l),
(225,0,l)
);
}
);
width = 874;
}
);
unicode = 86;
},
{
color = 6;
glyphname = W;
kernLeft = W;
kernRight = W;
lastChange = "2022-11-17 14:59:21 +0000";
layers = (
{
anchors = (
{
name = bottom;
pos = (297,0);
},
{
name = top;
pos = (297,729);
}
);
layerId = "6932EABA-00D8-4526-96D6-87ADD7AC589E";
shapes = (
{
closed = 1;
nodes = (
(181,0,l),
(278,589,l),
(294,690,l),
(297,690,l),
(313,589,l),
(410,0,l),
(459,0,l),
(559,729,l),
(528,729,l),
(469,287,l),
(436,42,l),
(432,42,l),
(320,729,l),
(272,729,l),
(161,42,l),
(157,42,l),
(124,287,l),
(65,729,l),
(34,729,l),
(134,0,l)
);
}
);
width = 593;
},
{
anchors = (
{
name = bottom;
pos = (363,0);
},
{
name = top;
pos = (363,729);
}
);
layerId = "E787E54A-EE3E-475A-BF02-8501A6DA5144";
shapes = (
{
closed = 1;
nodes = (
(314,0,l),
(343,266,l),
(358,438,l),
(363,438,l),
(378,266,l),
(406,0,l),
(625,0,l),
(708,729,l),
(536,729,l),
(513,388,l),
(505,183,l),
(498,183,l),
(446,729,l),
(279,729,l),
(227,183,l),
(221,183,l),
(214,371,l),
(189,729,l),
(17,729,l),
(100,0,l)
);
}
);
width = 725;
},
{
anchors = (
{
name = bottom;
pos = (488,0);
},
{
name = top;
pos = (488,729);
}
);
layerId = "B743CB11-DC16-45F2-BA04-3635CB00F7DA";
shapes = (
{
closed = 1;
nodes = (
(306,0,l),
(479,636,l),
(493,689,l),
(497,689,l),
(511,636,l),
(682,0,l),
(743,0,l),
(902,729,l),
(860,729,l),
(728,108,l),
(714,42,l),
(709,42,l),
(523,729,l),
(467,729,l),
(279,43,l),
(275,43,l),
(260,109,l),
(116,729,l),
(74,729,l),
(246,0,l)
);
}
);
width = 976;
},
{
anchors = (
{
name = bottom;
pos = (315,0);
},
{
name = top;
pos = (444,729);
}
);
layerId = "3257632A-050A-40C2-B21A-C728868BC46F";
shapes = (
{
closed = 1;
nodes = (
(268,0,l),
(359,334,l),
(389,453,l),
(394,453,l),
(384,334,l),
(360,0,l),
(578,0,l),
(789,729,l),
(615,729,l),
(532,388,l),
(488,183,l),
(481,183,l),
(525,729,l),
(358,729,l),
(210,183,l),
(204,183,l),
(230,371,l),
(268,729,l),
(98,729,l),
(53,0,l)
);
}
);
width = 725;
},
{
anchors = (
{
name = bottom;
pos = (252,0);
},
{
name = top;
pos = (380,729);
}
);
layerId = "84BE75FC-12C8-47E9-B302-5F6D56903923";
shapes = (
{
closed = 1;
nodes = (
(137,0,l),
(332,577,l),
(370,690,l),
(373,690,l),
(372,578,l),
(366,0,l),
(415,0,l),
(643,729,l),
(611,729,l),
(433,154,l),
(398,42,l),
(394,42,l),
(402,729,l),
(355,729,l),
(123,42,l),
(119,42,l),
(124,155,l),
(148,729,l),
(117,729,l),
(89,0,l)
);
}
);
width = 594;
},
{
anchors = (
{
name = bottom;
pos = (448,0);
},
{
name = top;
pos = (576,729);
}
);
layerId = "33C7CA81-8DED-4513-9072-CA0E40765DD9";
shapes = (
{
closed = 1;
nodes = (
(257,0,l),
(547,630,l),
(573,691,l),
(578,691,l),
(583,630,l),
(650,0,l),
(706,0,l),
(996,729,l),
(954,729,l),
(765,244,l),
(686,42,l),
(681,42,l),
(610,729,l),
(553,729,l),
(239,42,l),
(234,42,l),
(220,263,l),
(195,729,l),
(157,729,l),
(202,0,l)
);
}
);
width = 987;
},
{
anchors = (
{
name = bottom;
pos = (464,0);
},
{
name = top;
pos = (592,729);
}
);
layerId = "46C13DED-2BAB-471A-8D19-A1FA49A5501E";
shapes = (
{
closed = 1;
nodes = (
(241,0,l),
(567,646,l),
(590,692,l),
(595,692,l),
(602,646,l),
(698,0,l),
(755,0,l),
(1069,729,l),
(1024,729,l),
(829,272,l),
(734,42,l),
(729,42,l),
(628,729,l),
(567,729,l),
(222,42,l),
(217,42,l),
(194,296,l),
(154,729,l),
(114,729,l),
(186,0,l)
);
}
);
width = 1008;
},
{
anchors = (
{
name = bottom;
pos = (519,0);
},
{
name = top;
pos = (519,729);
}
);
layerId = "C1814757-B5F7-4D49-B715-04BFD84ECCF6";
shapes = (
{
closed = 1;
nodes = (
(293,0,l),
(511,651,l),
(525,692,l),
(530,692,l),
(545,651,l),
(758,0,l),
(817,0,l),
(1004,729,l),
(961,729,l),
(843,261,l),
(788,42,l),
(783,42,l),
(559,729,l),
(497,729,l),
(268,43,l),
(264,43,l),
(197,287,l),
(76,729,l),
(31,729,l),
(236,0,l)
);
}
);
width = 1026;
},
{
anchors = (
{
name = bottom;
pos = (522,0);
},
{
name = top;
pos = (522,729);
}
);
background = {
shapes = (
{
closed = 1;
nodes = (
(441,0,l),
(503,372,l),
(514,447,l),
(522,447,l),
(534,372,l),
(599,0,l),
(897,0,l),
(1058,729,l),
(819,729,l),
(741,239,l),
(737,200,l),
(728,200,l),
(633,729,l),
(396,729,l),
(312,199,l),
(303,199,l),
(299,238,l),
(215,729,l),
(-14,729,l),
(143,0,l)
);
}
);
};
layerId = "8B1B4E65-9831-4464-9A92-CA98D2219836";
shapes = (
{
closed = 1;
nodes = (
(432,0,l),
(503,378,l),
(514,440,l),
(521,440,l),
(532,378,l),
(603,0,l),
(891,0,l),
(1029,729,l),
(809,729,l),
(747,266,l),
(738,196,l),
(729,196,l),
(632,729,l),
(403,729,l),
(306,196,l),
(297,196,l),
(286,281,l),
(226,729,l),
(6,729,l),
(144,0,l)
);
}
);
width = 1035;
},
{
anchors = (
{
name = bottom;
pos = (466,0);
},
{
name = top;
pos = (595,729);
}
);
layerId = "2359B287-0F82-447F-8C68-59A72835D733";
shapes = (
{
closed = 1;
nodes = (
(398,0,l),
(502,339,l),
(529,431,l),
(536,431,l),
(532,339,l),
(520,0,l),
(828,0,l),
(1102,729,l),
(863,729,l),
(731,305,l),
(706,200,l),
(695,200,l),
(711,729,l),
(461,729,l),
(301,202,l),
(292,202,l),
(303,299,l),
(317,729,l),
(86,729,l),
(98,0,l)
);
}
);
width = 1028;
},
{
anchors = (
{
name = bottom;
pos = (610,0);
},
{
name = top;
pos = (610,729);
}
);
layerId = "46DCD09A-F85A-41B9-8FAA-640012B7D4F4";
shapes = (
{
closed = 1;
nodes = (
(521,0,l),
(584,371,l),
(594,431,l),
(604,431,l),
(616,371,l),
(678,0,l),
(1030,0,l),
(1195,729,l),
(948,729,l),
(860,249,l),
(850,206,l),
(841,206,l),
(748,729,l),
(449,729,l),
(356,206,l),
(347,206,l),
(337,247,l),
(251,729,l),
(3,729,l),
(168,0,l)
);
}
);
width = 1196;
},
{
anchors = (
{
name = bottom;
pos = (550,0);
},
{
name = top;
pos = (682,729);
}
);
layerId = "0D69E86C-407B-4861-9815-978EE2313DB2";
shapes = (
{
closed = 1;
nodes = (
(459,0,l),
(590,362,l),
(613,438,l),
(623,438,l),
(624,362,l),
(630,0,l),
(966,0,l),
(1287,729,l),
(1020,729,l),
(855,255,l),
(836,194,l),
(826,194,l),
(809,729,l),
(532,729,l),
(349,199,l),
(339,199,l),
(338,258,l),
(334,729,l),
(84,729,l),
(135,0,l)
);
}
);
width = 1208;
}
);
unicode = 87;
},
{
color = 6;
glyphname = X;
kernLeft = X;
kernRight = X;
lastChange = "2022-11-17 14:59:21 +0000";
layers = (
{
anchors = (
{
name = bottom;
pos = (222,0);
},
{
name = top;
pos = (222,729);
}
);
layerId = "6932EABA-00D8-4526-96D6-87ADD7AC589E";
shapes = (
{
closed = 1;
nodes = (
(77,0,l),
(217,346,l),
(221,346,l),
(363,0,l),
(396,0,l),
(238,378,l),
(384,729,l),
(352,729,l),
(221,409,l),
(217,409,l),
(95,729,l),
(64,729,l),
(201,377,l),
(45,0,l)
);
}
);
width = 441;
},
{
anchors = (
{
name = bottom;
pos = (286,0);
},
{
name = top;
pos = (286,729);
}
);
layerId = "E787E54A-EE3E-475A-BF02-8501A6DA5144";
shapes = (
{
closed = 1;
nodes = (
(200,0,l),
(279,238,l),
(289,238,l),
(364,0,l),
(551,0,l),
(408,386,l),
(535,729,l),
(355,729,l),
(294,515,l),
(285,515,l),
(220,729,l),
(32,729,l),
(168,383,l),
(21,0,l)
);
}
);
width = 572;
},
{
anchors = (
{
name = bottom;
pos = (366,0);
},
{
name = top;
pos = (366,729);
}
);
layerId = "B743CB11-DC16-45F2-BA04-3635CB00F7DA";
shapes = (
{
closed = 1;
nodes = (
(109,0,l),
(366,350,l),
(368,350,l),
(622,0,l),
(670,0,l),
(394,381,l),
(650,729,l),
(602,729,l),
(369,408,l),
(366,408,l),
(130,729,l),
(84,729,l),
(341,379,l),
(62,0,l)
);
}
);
width = 732;
},
{
anchors = (
{
name = bottom;
pos = (238,0);
},
{
name = top;
pos = (367,729);
}
);
layerId = "3257632A-050A-40C2-B21A-C728868BC46F";
shapes = (
{
closed = 1;
nodes = (
(158,0,l),
(276,238,l),
(286,238,l),
(322,0,l),
(503,0,l),
(422,375,l),
(615,729,l),
(429,729,l),
(331,515,l),
(322,515,l),
(294,729,l),
(112,729,l),
(193,394,l),
(-27,0,l)
);
}
);
width = 572;
},
{
anchors = (
{
name = bottom;
pos = (177,0);
},
{
name = top;
pos = (305,729);
}
);
layerId = "84BE75FC-12C8-47E9-B302-5F6D56903923";
shapes = (
{
closed = 1;
nodes = (
(34,0,l),
(233,346,l),
(236,346,l),
(320,0,l),
(351,0,l),
(258,374,l),
(467,729,l),
(433,729,l),
(248,409,l),
(245,409,l),
(176,729,l),
(147,729,l),
(223,383,l),
(0,0,l)
);
}
);
width = 441;
},
{
anchors = (
{
name = bottom;
pos = (322,0);
},
{
name = top;
pos = (450,729);
}
);
layerId = "33C7CA81-8DED-4513-9072-CA0E40765DD9";
shapes = (
{
closed = 1;
nodes = (
(65,0,l),
(387,351,l),
(389,351,l),
(584,0,l),
(628,0,l),
(417,377,l),
(740,729,l),
(691,729,l),
(398,408,l),
(395,408,l),
(215,729,l),
(173,729,l),
(368,382,l),
(17,0,l)
);
}
);
width = 735;
},
{
anchors = (
{
name = bottom;
pos = (322,0);
},
{
name = top;
pos = (450,729);
}
);
layerId = "46C13DED-2BAB-471A-8D19-A1FA49A5501E";
shapes = (
{
closed = 1;
nodes = (
(18,0,l),
(389,353,l),
(391,353,l),
(631,0,l),
(679,0,l),
(420,379,l),
(788,729,l),
(736,729,l),
(399,407,l),
(396,407,l),
(171,729,l),
(125,729,l),
(368,382,l),
(-33,0,l)
);
}
);
width = 735;
},
{
anchors = (
{
name = bottom;
pos = (372,0);
},
{
name = top;
pos = (372,729);
}
);
layerId = "C1814757-B5F7-4D49-B715-04BFD84ECCF6";
shapes = (
{
closed = 1;
nodes = (
(61,0,l),
(374,353,l),
(376,353,l),
(680,0,l),
(732,0,l),
(401,381,l),
(708,729,l),
(656,729,l),
(375,407,l),
(372,407,l),
(87,729,l),
(36,729,l),
(347,379,l),
(12,0,l)
);
}
);
width = 743;
},
{
anchors = (
{
name = bottom;
pos = (393,0);
},
{
name = top;
pos = (393,729);
}
);
layerId = "8B1B4E65-9831-4464-9A92-CA98D2219836";
shapes = (
{
closed = 1;
nodes = (
(250,0,l),
(386,228,l),
(394,228,l),
(527,0,l),
(786,0,l),
(547,382,l),
(771,729,l),
(519,729,l),
(401,519,l),
(392,519,l),
(276,729,l),
(15,729,l),
(246,380,l),
(0,0,l)
);
}
);
width = 787;
},
{
anchors = (
{
name = bottom;
pos = (339,0);
},
{
name = top;
pos = (468,729);
}
);
layerId = "2359B287-0F82-447F-8C68-59A72835D733";
shapes = (
{
closed = 1;
nodes = (
(206,0,l),
(380,235,l),
(390,235,l),
(480,0,l),
(724,0,l),
(564,369,l),
(853,729,l),
(596,729,l),
(444,515,l),
(434,515,l),
(356,729,l),
(111,729,l),
(268,395,l),
(-48,0,l)
);
}
);
width = 774;
},
{
anchors = (
{
name = bottom;
pos = (458,0);
},
{
name = top;
pos = (458,729);
}
);
layerId = "46DCD09A-F85A-41B9-8FAA-640012B7D4F4";
shapes = (
{
closed = 1;
nodes = (
(274,0,l),
(450,228,l),
(459,228,l),
(632,0,l),
(935,0,l),
(634,382,l),
(919,729,l),
(623,729,l),
(467,518,l),
(457,518,l),
(303,729,l),
(-1,729,l),
(288,380,l),
(-19,0,l)
);
}
);
width = 912;
},
{
anchors = (
{
name = bottom;
pos = (399,0);
},
{
name = top;
pos = (528,729);
}
);
layerId = "0D69E86C-407B-4861-9815-978EE2313DB2";
shapes = (
{
closed = 1;
nodes = (
(230,0,l),
(437,229,l),
(446,229,l),
(569,0,l),
(853,0,l),
(645,365,l),
(993,729,l),
(691,729,l),
(508,518,l),
(497,518,l),
(389,729,l),
(105,729,l),
(306,396,l),
(-68,0,l)
);
}
);
width = 888;
}
);
unicode = 88;
},
{
color = 6;
glyphname = Y;
kernLeft = Y;
kernRight = Y;
lastChange = "2022-11-17 14:59:21 +0000";
layers = (
{
anchors = (
{
name = bottom;
pos = (216,0);
},
{
name = top;
pos = (216,729);
},
{
name = topleft;
pos = (52,729);
}
);
layerId = "6932EABA-00D8-4526-96D6-87ADD7AC589E";
shapes = (
{
closed = 1;
nodes = (
(231,0,l),
(231,289,l),
(387,729,l),
(355,729,l),
(260,458,l),
(217,329,l),
(213,329,l),
(170,458,l),
(76,729,l),
(44,729,l),
(200,289,l),
(200,0,l)
);
}
);
width = 431;
},
{
anchors = (
{
name = bottom;
pos = (287,0);
},
{
name = top;
pos = (287,729);
},
{
name = topleft;
pos = (30,729);
}
);
layerId = "E787E54A-EE3E-475A-BF02-8501A6DA5144";
shapes = (
{
closed = 1;
nodes = (
(376,0,l),
(376,247,l),
(554,729,l),
(373,729,l),
(321,550,l),
(292,436,l),
(282,436,l),
(253,550,l),
(201,729,l),
(20,729,l),
(198,247,l),
(198,0,l)
);
}
);
width = 574;
},
{
anchors = (
{
name = bottom;
pos = (330,0);
},
{
name = top;
pos = (330,729);
},
{
name = topleft;
pos = (37,729);
}
);
background = {
shapes = (
{
closed = 1;
nodes = (
(317,0,l),
(317,300,l),
(583,729,l),
(539,729,l),
(411,521,l),
(299,340,l),
(295,340,l),
(184,520,l),
(54,729,l),
(10,729,l),
(277,300,l),
(277,0,l)
);
}
);
};
layerId = "B743CB11-DC16-45F2-BA04-3635CB00F7DA";
shapes = (
{
closed = 1;
nodes = (
(350,0,l),
(350,320,l),
(603,729,l),
(557,729,l),
(355,400,l),
(332,362,l),
(328,362,l),
(305,400,l),
(102,729,l),
(56,729,l),
(310,320,l),
(310,0,l)
);
}
);
width = 659;
},
{
anchors = (
{
name = bottom;
pos = (237,0);
},
{
name = top;
pos = (366,729);
},
{
name = topleft;
pos = (111,729);
}
);
background = {
shapes = (
{
closed = 1;
nodes = (
(320,0,l),
(363,247,l),
(626,729,l),
(445,729,l),
(362,550,l),
(313,436,l),
(303,436,l),
(294,550,l),
(273,729,l),
(92,729,l),
(185,247,l),
(142,0,l)
);
}
);
};
layerId = "3257632A-050A-40C2-B21A-C728868BC46F";
shapes = (
{
closed = 1;
nodes = (
(320,0,l),
(363,244,l),
(630,729,l),
(442,729,l),
(332,488,l),
(312,436,l),
(302,436,l),
(299,490,l),
(273,729,l),
(101,729,l),
(188,261,l),
(142,0,l)
);
}
);
width = 569;
},
{
anchors = (
{
name = bottom;
pos = (170,0);
},
{
name = top;
pos = (298,729);
},
{
name = topleft;
pos = (135,729);
}
);
layerId = "84BE75FC-12C8-47E9-B302-5F6D56903923";
shapes = (
{
closed = 1;
nodes = (
(185,0,l),
(236,289,l),
(469,729,l),
(436,729,l),
(259,388,l),
(228,329,l),
(225,329,l),
(215,392,l),
(158,729,l),
(127,729,l),
(206,292,l),
(154,0,l)
);
}
);
width = 430;
},
{
anchors = (
{
name = bottom;
pos = (294,0);
},
{
name = top;
pos = (422,729);
},
{
name = topleft;
pos = (127,729);
}
);
background = {
shapes = (
{
closed = 1;
nodes = (
(309,0,l),
(362,296,l),
(710,729,l),
(664,729,l),
(387,382,l),
(351,337,l),
(347,337,l),
(328,383,l),
(173,729,l),
(133,729,l),
(325,303,l),
(272,0,l)
);
}
);
};
layerId = "33C7CA81-8DED-4513-9072-CA0E40765DD9";
shapes = (
{
closed = 1;
nodes = (
(305,0,l),
(362,316,l),
(694,729,l),
(648,729,l),
(386,401,l),
(351,357,l),
(347,357,l),
(328,403,l),
(182,729,l),
(142,729,l),
(325,323,l),
(268,0,l)
);
}
);
width = 670;
},
{
anchors = (
{
name = bottom;
pos = (319,0);
},
{
name = top;
pos = (447,729);
},
{
name = topleft;
pos = (138,729);
}
);
layerId = "46C13DED-2BAB-471A-8D19-A1FA49A5501E";
shapes = (
{
closed = 1;
nodes = (
(334,0,l),
(387,298,l),
(782,729,l),
(732,729,l),
(414,380,l),
(376,339,l),
(372,339,l),
(350,381,l),
(154,729,l),
(111,729,l),
(348,306,l),
(295,0,l)
);
}
);
width = 720;
},
{
anchors = (
{
name = bottom;
pos = (365,0);
},
{
name = top;
pos = (365,729);
},
{
name = topleft;
pos = (58,729);
}
);
layerId = "C1814757-B5F7-4D49-B715-04BFD84ECCF6";
shapes = (
{
closed = 1;
nodes = (
(386,0,l),
(386,300,l),
(705,729,l),
(656,729,l),
(498,517,l),
(367,341,l),
(363,341,l),
(225,530,l),
(75,729,l),
(28,729,l),
(345,301,l),
(345,0,l)
);
}
);
width = 733;
},
{
anchors = (
{
name = bottom;
pos = (379,0);
},
{
name = top;
pos = (379,729);
},
{
name = topleft;
pos = (12,729);
}
);
background = {
shapes = (
{
closed = 1;
nodes = (
(484,0,l),
(484,258,l),
(756,729,l),
(512,729,l),
(405,506,l),
(382,459,l),
(374,459,l),
(351,506,l),
(244,729,l),
(0,729,l),
(272,258,l),
(272,0,l)
);
}
);
};
layerId = "8B1B4E65-9831-4464-9A92-CA98D2219836";
shapes = (
{
closed = 1;
nodes = (
(484,0,l),
(484,268,l),
(746,729,l),
(507,729,l),
(405,519,l),
(382,472,l),
(374,472,l),
(351,519,l),
(249,729,l),
(9,729,l),
(272,268,l),
(272,0,l)
);
}
);
width = 757;
},
{
anchors = (
{
name = bottom;
pos = (322,0);
},
{
name = top;
pos = (451,729);
},
{
name = topleft;
pos = (90,729);
}
);
layerId = "2359B287-0F82-447F-8C68-59A72835D733";
shapes = (
{
closed = 1;
nodes = (
(418,0,l),
(463,247,l),
(820,729,l),
(568,729,l),
(431,514,l),
(394,456,l),
(387,456,l),
(370,516,l),
(312,729,l),
(80,729,l),
(254,276,l),
(206,0,l)
);
}
);
width = 741;
},
{
anchors = (
{
name = bottom;
pos = (436,0);
},
{
name = top;
pos = (436,729);
},
{
name = topleft;
pos = (11,729);
}
);
layerId = "46DCD09A-F85A-41B9-8FAA-640012B7D4F4";
shapes = (
{
closed = 1;
nodes = (
(554,0,l),
(554,267,l),
(884,729,l),
(603,729,l),
(510,595,l),
(440,475,l),
(432,475,l),
(361,604,l),
(276,729,l),
(-17,729,l),
(312,267,l),
(312,0,l)
);
}
);
width = 858;
},
{
anchors = (
{
name = bottom;
pos = (364,0);
},
{
name = top;
pos = (494,729);
},
{
name = topleft;
pos = (82,729);
}
);
layerId = "0D69E86C-407B-4861-9815-978EE2313DB2";
shapes = (
{
closed = 1;
nodes = (
(473,0,l),
(517,250,l),
(931,729,l),
(636,729,l),
(486,534,l),
(435,469,l),
(428,469,l),
(397,545,l),
(323,729,l),
(64,729,l),
(282,266,l),
(235,0,l)
);
}
);
width = 824;
}
);
unicode = 89;
},
